<svg xmlns="http://www.w3.org/2000/svg" width="985.431" height="300.982" viewBox="0 0 985.431 300.982"><polygon points="906.027 300.982 0 300.982 79.404 0 985.431 0 906.027 300.982" fill="#111214"/><path d="M963.865,299.862A21.492,21.492,0,1,1,985.428,278.3,21.222,21.222,0,0,1,963.865,299.862Zm0-38.994c-9.871,0-17.152,7.7-17.152,17.432,0,9.871,7.281,17.572,17.152,17.572s17.152-7.841,17.152-17.572S973.736,260.868,963.865,260.868Zm10.221,29.613h-5.6l-4.411-8.821h-3.22v8.821h-5.041V266.189h10.012c5.39,0,8.54,2.8,8.54,7.56a7.291,7.291,0,0,1-5.25,7.421Zm-8.82-13.091c2.45,0,3.85-1.26,3.85-3.571,0-2.24-1.261-3.36-3.85-3.36H961v6.931Z" fill="#111214"/><path d="M84.522,231.038l42.5-161.093H239.88c3.028,0,5.451,1.069,6.65,2.933A6.053,6.053,0,0,1,246.7,78.6L223.7,135.232h9.578c2.836,0,5.185.961,6.443,2.636a5.565,5.565,0,0,1,.748,4.924L219.82,221.047c-1.4,5.323-8.082,9.991-14.29,9.991Zm54.352-30.517h40.061l9.173-34.772h-40.06ZM156.1,135.232h37.059l12.175-34.772h-40.06ZM357.73,231.038l8.05-30.515H298.189l9.175-34.774h42.9l14.917-30.515H315.414l9.174-34.774h67.591l8.05-30.515H286.337l-42.5,161.093Zm504.683,0,8.05-30.515h-67.59l9.174-34.774h42.9l14.917-30.515H820.1l9.174-34.774h67.591l8.05-30.515H791.02L773.8,135.232H718.053l17.224-65.287h-46.3l-42.5,161.093h46.3L710,165.749h55.742l-17.224,65.289Zm-254.7,0c6.209,0,12.886-4.668,14.29-9.991l20.646-78.254a5.573,5.573,0,0,0-.748-4.925c-1.26-1.675-3.608-2.636-6.444-2.636H550.529L559.7,100.46h84.756l15.28-30.515H533.106c-6.208,0-12.886,4.668-14.29,9.991L498.171,158.19a5.568,5.568,0,0,0,.748,4.923c1.259,1.676,3.608,2.637,6.444,2.637h84.924l-9.174,34.774H439.2L473.643,69.945h-46.3l-42.5,161.093Z" fill="#ffb328"/></svg>