<svg xmlns="http://www.w3.org/2000/svg" viewBox="0 0 56 56"><path fill="#ffe34b" d="M0 .01h55.99V56H0z"/><path d="M54.58 54.58H1.45V1.39h53.13v53.19zM0 56h56V0H0v56z"/><path d="M32.73 34.22H50.8v16.55H32.73V34.22m-14.77 9.2h5.34v7.35h-5.34zM5.24 34.21v9.21l8.94-9.2 9.12 9.2v-9.21zm0 9.21h5.45v7.35H5.24zM45.15 5.2h5.65v7.33h-5.65z"/><path d="M41.88 21.72l-9.13-9.2h5.59V5.2h-5.61v16.55H50.8v-9.21zM12.26 31.81h-1.83l.49-2.81H7.41l-.5 2.81H5.07l1.3-7.35H8.2l-.49 2.81h3.51l.5-2.81h1.83zm18.31 0l.99-5.62h-2.37l.31-1.73h6.56l-.3 1.73H33.4l-.99 5.62zm-11.16-5.54l.32-1.81h1.85l-.39 2.2-.13.59-.17.5-.21.41-.26.31-.32.24-.37.16-.45.1-.52.03h-.58l-.5 2.81h-1.85l.5-2.81h-.62l-.42-.02-.35-.06-.29-.1-.24-.15-.18-.2-.12-.25-.08-.3-.02-.36.02-.42.07-.48.39-2.2h1.84l-.32 1.81-.03.21-.02.17v.15l.01.12.03.1.05.08.07.06.09.05.12.02.15.03h.18l.21.01h1.34l.3-.01.25-.03.19-.05.14-.08.11-.12.09-.18.07-.23zm23.49-.08h-3.64l-.31.01-.24.03-.19.05-.15.09-.11.13-.08.18-.07.23-.06.3-.03.13h4.13l-.28 1.59h-4.13l-.03.18-.03.25-.02.19v.16l.03.13.06.09.09.07.12.04.16.02.21.02h3.89l-.31 1.73h-4.5l-.41-.02-.36-.06-.29-.1-.23-.15-.18-.19-.13-.25-.07-.31-.03-.35.03-.42.06-.49.47-2.67.13-.6.17-.49.21-.41.27-.32.31-.23.38-.16.44-.1.52-.03h4.5zm-16.99 3.88l-.16.01h-4.49l-.31 1.73H24l1.15-.02.93-.06.72-.12.54-.21.4-.3.3-.42.2-.55.16-.71.06-.53v-.44l-.07-.35-.13-.28-.18-.21-.23-.14-.28-.11-.33-.06-.35-.03-.39-.01h-.42l-.44.01h-.74l-.29-.01h-.24l-.19-.02-.15-.03-.11-.03-.08-.06-.04-.06-.03-.09v-.11l.02-.13.04-.13.05-.11.06-.1.09-.07.11-.06.12-.04.15-.02.16-.01h3.82l.31-1.73h-2.37l-1.16.02-.92.05-.72.13-.54.2-.41.3-.29.41-.21.55-.15.7-.07.53.01.43.07.35.14.28.18.21.24.15.28.11.32.07.36.03.38.02h1.58l.29.01.24.01.19.01.15.03.11.04.08.05.05.07.02.08v.11l-.02.13-.03.14-.06.11-.06.09-.09.08-.11.05-.12.04zm23.12-3.21l-.03.2-.05.24-.06.2-.08.15-.11.11-.15.08-.19.05-.24.03-.31.01h-2.27l.31-1.74h2.51l.2.02.16.03.12.05.09.07.07.08.03.11.01.14-.01.17zm1.96-1.23l-.04-.26-.08-.23-.11-.19-.15-.16-.19-.12-.23-.09-.26-.06-.31-.04-.35-.01H44.3l-1.29 7.35h1.84l.39-2.22h2.41l.18.01.17.01.12.04.09.06.06.09.04.12.02.15-.01.19-.02.23-.05.28-.18 1.03h1.86l.27-1.53.05-.34.01-.27-.02-.22-.05-.17-.08-.13-.12-.11-.15-.08-.17-.06-.2-.05-.25-.05.3-.09.26-.1.24-.13.22-.18.2-.25.18-.34.15-.45.13-.58.06-.39.04-.36-.01-.3zM5.24 5.19h18.07v16.56H5.24V5.2"/></svg>