<svg xmlns="http://www.w3.org/2000/svg" viewBox="0 0 308 238"><g stroke="#000" stroke-width="9" fill="none"><circle cy="88.6" cx="129" r="40.5"/><circle cy="45.6" cx="154" r="40.5"/><circle cy="88.6" cx="179" r="40.5"/></g><path d="m82.7 200v35.1h-15.5v-75.2h22.1c8.79 0 15.4 1.78 19.8 5.34 4.39 3.53 6.57 8.84 6.57 16 0 5.17-1.5 9.57-4.49 13.2-3 3.66-6.84 5.8-11.6 6.42l20.2 34.2h-17.8zm0.025-28.2v21.1h2.34c9.36 0 15.3-3.13 15.4-10.2 0.0456-3.86-1.1-6.72-3.26-8.38-2.16-1.65-6.2-2.54-12.2-2.53z"/><path d="m279 160c9.71 0 16.9 1.9 21.5 5.66 4.64 3.77 6.96 9.58 6.96 17.5 0 7.29-2.35 13-7.1 17.2-4.64 4.15-11.1 6.22-19.4 6.22h-4.35v28.7h-15.9v-75.2zm0.2 33.9c4.72 0 8.16-0.909 10.3-2.73s3.21-4.73 3.21-8.73c0-3.7-1.07-6.38-3.21-8.09s-5.58-2.57-10.3-2.57h-2.5v22.1z"/><path d="m16.7 160v34.1l24.7-34.1h18.3l-26.5 34.3 27.5 41h-19.1l-24.8-39.4v39.4h-15.8v-75.2z"/><path d="m126 160h15.7v44.3c0 6.2 1.35 10.8 4.05 13.9 2.7 3.12 6.85 4.68 12.2 4.68 5.38 0 9.34-1.58 12.1-4.73 2.76-3.14 4.14-7.7 4.14-13.9v-44.2h15.8v46.7c0 10.2-2.65 17.8-7.94 22.8-5.28 5-13.3 7.54-24.1 7.54s-18.8-2.52-24.1-7.53c-5.2-5.21-7.84-12.9-7.91-22.9z"/><path d="m223 160c9.71 0 16.9 1.87 21.5 5.64 4.64 3.77 6.96 9.58 6.96 17.5 0 7.29-2.35 13-7.1 17.2-4.64 4.15-11.1 6.22-19.4 6.22h-4.35v28.7h-15.9v-75.2zm0.2 34c4.72 0 8.16-0.909 10.3-2.73s3.21-4.73 3.21-8.73c0-3.7-1.07-6.38-3.21-8.09s-5.58-2.57-10.3-2.57h-2.5v22.1z"/></svg>