<?xml version="1.0" encoding="UTF-8"?> <svg xmlns="http://www.w3.org/2000/svg" version="1.1" id="Ebene_1" x="0" y="0" viewBox="0 0 171.1 58.1" style="enable-background:new 0 0 171.1 58.1" xml:space="preserve"><style>.st1{fill-rule:evenodd;clip-rule:evenodd;fill:#007bb4}</style><path d="M6.9.3c-.7.2-1.5.5-2.1 1-.7.4-1.4.9-2 1.5S1.7 4.1 1.2 4.9C.8 5.6.5 6.5.3 7.3.1 8.2 0 9 0 9.9v38.2c0 .9.1 1.8.3 2.6.2.9.6 1.7 1 2.5s1 1.5 1.6 2.1 1.3 1.1 2 1.5 1.4.7 2.2.9c.7.2 1.5.3 2.2.3h152.6c.8 0 1.5-.1 2.2-.3s1.5-.5 2.2-.9 1.4-.9 1.9-1.5c.6-.6 1.1-1.3 1.6-2.1.4-.8.8-1.6 1-2.5s.3-1.7.3-2.6V9.9c0-.9-.1-1.8-.3-2.6-.2-.9-.6-1.7-1-2.5s-1-1.5-1.6-2.1-1.3-1.1-2-1.5-1.4-.7-2.2-.9c-.7-.2-1.5-.3-2.2-.3H9.2c-.8.1-1.5.2-2.3.3" style="fill-rule:evenodd;clip-rule:evenodd;fill:#fff"></path><g id="Ebene_1_00000083807982374784140880000013948354832876673455_"><path class="st1" d="M9.9 3.3c-.7.2-1.5.5-2.1 1-.7.4-1.4.9-2 1.5S4.7 7.1 4.2 7.9c-.4.7-.7 1.6-.9 2.4-.2.9-.3 1.7-.3 2.6v35.2c0 .9.1 1.8.3 2.6.2.9.6 1.7 1 2.5s1 1.5 1.6 2.1 1.3 1.1 2 1.5 1.4.7 2.2.9c.7.2 1.5.3 2.2.3h146.6c.8 0 1.5-.1 2.2-.3s1.5-.5 2.2-.9 1.4-.9 1.9-1.5c.6-.6 1.1-1.3 1.6-2.1.4-.8.8-1.6 1-2.5s.3-1.7.3-2.6V12.9c0-.9-.1-1.8-.3-2.6-.2-.9-.6-1.7-1-2.5s-1-1.5-1.6-2.1-1.3-1.1-2-1.5-1.4-.7-2.2-.9c-.7-.2-1.5-.3-2.2-.3H12.2c-.8.1-1.5.2-2.3.3"></path><path d="M44.7 28.1c0-.1-.1-.2-.2-.3l-.3-.3c-.1-.1-.2-.1-.4-.2-.1 0-.3-.1-.5-.1h-10l-2.6 8.9h10.2c.3 0 .7-.1 1.1-.3.2-.1.4-.2.5-.4.2-.1.3-.3.4-.5.1-.2.2-.3.3-.5l1.6-5.5v-.5s0-.1-.1-.3m105.2-8.8-7.2 25h-9.6l7.2-25h9.6zm-31.9 27c-1.5 0-2.4.7-2.6 1.6l-1.3 4.6c-.2.8 0 1.6 1.2 1.6h6.1c1.5 0 2.4-.7 2.6-1.6l1.3-4.6c.2-.8 0-1.6-1.2-1.6H118zm1.8 2c-.7 0-1.1.3-1.2.8l-.6 2.2c-.1.4 0 .8.6.8h1.6c.7 0 1.1-.3 1.3-.8l.6-2.2c.1-.4 0-.8-.6-.8h-1.7zm10.7-2c-1.5 0-2.4.7-2.6 1.6l-1.8 6.1h3.2c.2 0 .4-.2.5-.4l1.4-4.7c.1-.4.5-.7 1.1-.7 0 0 .9 0 .7.7l-1.4 5.1h3l1.4-5.1c.1-.4.5-.7 1.1-.7 0 0 .9 0 .7.7l-1.4 5.1h3.5l1.8-6.2c.2-.8 0-1.6-1.2-1.6-2 .1-8 .1-10 .1zm-31.1 7.4.4-1.2c.1-.4-.1-.6-.6-.6H98c-.4 0-.5.1-.6.3l-.4 1.3c-.1.3-.2.5-.1.5H99c.1.1.4-.2.4-.3zm6.1-7.4c-1.5 0-2.4.7-2.6 1.6l-1.3 4.6c-.2.8 0 1.6 1.2 1.6h6.1c1.5 0 2.4-.7 2.6-1.6l.4-1.5h-3l-.1.3c-.1.4-.5.8-1.2.8H106c-.5 0-.7-.4-.6-.8l.6-2.2c.1-.4.5-.8 1.2-.8h1.6c.5 0 .7.4.6.8l-.1.2h3l.4-1.4c.2-.8 0-1.6-1.2-1.6h-6zM74 25.3c-.2.1-.4.1-.6.2s-.4.3-.5.4c-.2.2-.3.3-.4.5s-.2.4-.2.5l-.4 1.6h10l.5-1.7v-.5c0-.2-.1-.3-.1-.5-.1-.1-.2-.3-.3-.4-.1-.1-.3-.2-.4-.2-.2-.1-.3-.1-.5-.1h-6.4c-.3.1-.5.2-.7.2zM61 44.2c-.4 0-.8-.1-1.1-.2-.4-.1-.7-.3-1-.5s-.5-.4-.7-.7-.4-.6-.5-.9c-.1-.3-.2-.7-.2-1.1 0-.4.1-.8.2-1.2l4.5-15.7c.1-.5.3-.9.6-1.4s.6-.9 1-1.3.9-.8 1.4-1.1c.5-.3 1-.5 1.5-.6s.9-.2 1.4-.2h21.1c.4 0 .8.1 1.2.2.4.1.7.3 1 .5s.5.4.7.7c.2.3.4.6.5.9s.2.7.2 1.1-.1.8-.2 1.2l-3 10.6H70.1l-1 3.3h19.4l-1.8 6.4H61zm90.5-30.5h-9.6l2.3-8.2h-28.7l-6.2 21.8h4l6.9-8h8c.1 0 .1.1.2.1s.1.1.2.2c0 .1.1.1.1.2.1.2 0 .4-.1.6 0 .1-.1.2-.2.3l-5.7 6.6h6.8c.2 0 .3 0 .4.1.1 0 .3.1.4.2l.3.3c.1.1.1.2.2.4.1.3.1.6 0 .9l-4.3 15.1h-9.6l2.3-8.1c0-.2.1-.4 0-.5 0-.2-.1-.3-.1-.5-.1-.1-.2-.3-.3-.4-.1-.1-.3-.2-.4-.2-.2-.1-.3-.1-.5-.1h-10.7l-2.8 9.8h-11l11.1-38.8H12.2c-.7 0-1.3.1-1.9.4-.6.2-1.2.5-1.8 1-.6.4-1.1 1-1.5 1.6-.4.5-.7 1.2-.9 2-.2.7-.3 1.5-.3 2.2v35.5c0 .8.1 1.5.3 2.2.2.7.5 1.4.9 2 .4.6.9 1.2 1.5 1.6.6.4 1.2.8 1.8 1s1.3.3 1.9.3h1l10.3-36h29c.4 0 .8.1 1.2.2s.7.3 1 .4c.3.2.5.4.7.7.2.3.4.6.5.9s.2.7.2 1.1-.1.8-.2 1.2l-4.6 15.8c-.1.5-.3.9-.6 1.4s-.6.9-1 1.3-.9.8-1.4 1.1-1 .5-1.5.6-.9.2-1.4.2h-17l-3.2 11.1h134c.6 0 1.3-.1 1.9-.3.6-.2 1.2-.5 1.8-1 .6-.4 1.1-1 1.5-1.6s.7-1.3.9-2 .3-1.5.3-2.2V12.7c0-.8-.1-1.5-.3-2.2s-.5-1.4-.9-2-.9-1.2-1.5-1.6-1.2-.8-1.8-1c-.6-.2-1.3-.3-1.9-.3h-5.3l-2.4 8.1z" style="fill-rule:evenodd;clip-rule:evenodd;fill:#e3e3e3"></path><path d="m158.8 10.9.1.1c.1.1.2.2.2.3s.1.1.1.2v.1c0 .1 0 .3-.1.5 0 .1 0 .1-.1.2 0 .1-.1.1-.1.1l-.1.1c-.1 0-.1.1-.2.1.1 0 .1.1.2.1.1.1.2.1.2.2 0 0 0 .1.1.1v1.3l.1.1v.1h-.8V13.2s0-.1-.1-.1H157v1.4h-.7v-3.7H158.6c.1 0 .1 0 .2.1-.1 0-.1 0 0 0m-1.8 1.5H158.3s.1 0 .1-.1l.1-.1v-.6s0-.1-.1-.1c0 0-.1 0-.1-.1H157v1zm-.2-2.5c-.3.1-.6.2-.8.4-.3.2-.5.4-.7.7-.2.2-.3.5-.4.8-.1.3-.1.6-.1.9 0 .3 0 .6.1.9.1.3.2.6.4.8s.4.5.7.6c.2.2.5.3.8.4.3.1.6.1.9.1.3 0 .6 0 .9-.1.3-.1.6-.2.8-.4.3-.2.5-.4.7-.6.2-.2.3-.5.4-.8.1-.3.1-.6.1-.9 0-.3 0-.6-.1-.9-.1-.3-.2-.6-.4-.8s-.4-.5-.7-.7-.5-.3-.8-.4c-.3-.1-.6-.1-.9-.1s-.6 0-.9.1zm2-.5c.3.1.7.3 1 .5s.6.5.8.8.4.6.5 1c.1.3.2.7.2 1s-.1.7-.2 1c-.1.3-.3.7-.5 1s-.5.6-.8.8-.6.4-1 .5c-.3.1-.7.2-1.1.2-.4 0-.7-.1-1-.2-.3-.1-.7-.3-1-.5s-.6-.5-.8-.8-.4-.6-.5-1c-.1-.3-.2-.7-.2-1s.1-.7.2-1c.1-.3.3-.7.5-1s.5-.6.8-.8.6-.4 1-.5c.3-.1.7-.2 1-.2.4 0 .7.1 1.1.2z" style="fill-rule:evenodd;clip-rule:evenodd;fill:#005da9"></path><path class="st1" d="m158.8 10.9.1.1c.1.1.2.2.2.3s.1.1.1.2v.1c0 .1 0 .3-.1.5 0 .1 0 .1-.1.2 0 .1-.1.1-.1.1l-.1.1c-.1 0-.1.1-.2.1.1 0 .1.1.2.1.1.1.2.1.2.2 0 0 0 .1.1.1v1.3l.1.1v.1h-.8V13.2s0-.1-.1-.1H157v1.4h-.7v-3.7H158.6c.1 0 .1 0 .2.1-.1 0-.1 0 0 0m-1.8 1.5H158.3s.1 0 .1-.1l.1-.1v-.6s0-.1-.1-.1c0 0-.1 0-.1-.1H157v1zm-.2-2.5c-.3.1-.6.2-.8.4-.3.2-.5.4-.7.7-.2.2-.3.5-.4.8-.1.3-.1.6-.1.9 0 .3 0 .6.1.9.1.3.2.6.4.8s.4.5.7.6c.2.2.5.3.8.4.3.1.6.1.9.1.3 0 .6 0 .9-.1.3-.1.6-.2.8-.4.3-.2.5-.4.7-.6.2-.2.3-.5.4-.8.1-.3.1-.6.1-.9 0-.3 0-.6-.1-.9-.1-.3-.2-.6-.4-.8s-.4-.5-.7-.7-.5-.3-.8-.4c-.3-.1-.6-.1-.9-.1s-.6 0-.9.1zm2-.5c.3.1.7.3 1 .5s.6.5.8.8.4.6.5 1c.1.3.2.7.2 1s-.1.7-.2 1c-.1.3-.3.7-.5 1s-.5.6-.8.8-.6.4-1 .5c-.3.1-.7.2-1.1.2-.4 0-.7-.1-1-.2-.3-.1-.7-.3-1-.5s-.6-.5-.8-.8-.4-.6-.5-1c-.1-.3-.2-.7-.2-1s.1-.7.2-1c.1-.3.3-.7.5-1s.5-.6.8-.8.6-.4 1-.5c.3-.1.7-.2 1-.2.4 0 .7.1 1.1.2z"></path></g></svg> 