<svg xmlns="http://www.w3.org/2000/svg" viewBox="0 0 360 360"><title>logo-desktop</title><path d="M334.357 38.654a7.184 7.184 0 1 1-7.422 7.158 7.24 7.24 0 0 1 7.378-7.158zm-.088 1.439a5.722 5.722 0 0 0 .088 11.438 5.468 5.468 0 0 0 5.457-5.72 5.528 5.528 0 0 0-5.5-5.718zm-1.091 9.43h-1.659v-7.116a13.953 13.953 0 0 1 2.75-.262 4.051 4.051 0 0 1 2.489.569 1.954 1.954 0 0 1 .7 1.528 1.838 1.838 0 0 1-1.484 1.7v.088c.7.217 1.091.786 1.31 1.745a4.721 4.721 0 0 0 .523 1.747h-1.79a5.722 5.722 0 0 1-.568-1.7c-.131-.786-.569-1.134-1.484-1.134h-.787zm.043-4.017h.786c.918 0 1.66-.305 1.66-1.048 0-.654-.48-1.091-1.528-1.091a3.9 3.9 0 0 0-.917.088z" fill="#fff"/><path d="M57.8 38.581C25.5 38.581.4 66.466.4 98.1v69.947c0 31.744 25.017 59.467 57.4 59.467h226.377c32.226 0 57.4-27.845 57.4-59.467V98.1c0-31.533-25.269-59.516-57.4-59.516z" fill="#ac162c"/><path fill="#fff" d="M115.438 185.011l-.098-104.779 54.92-.225 6.913 26.527-34.813.072v13.436h21.467l.084 24.504h-21.303v12.542h34.972l-5.946 27.923h-56.196zm143.162.302l-5.622-42.05-18.485 40.6-21.31-40.753-5.455 42.2-29.988-.41 11.167-105.311h24.6l20.182 38.932 19.443-38.932h23.96c3.747 35.261 8.351 70.416 12.143 105.637l-30.638.087zm-205.069-.164l-.081-32.161a45.8 45.8 0 0 0 10.455 1.37c4.5 0 11.649-1.312 11.649-6.994 0-8.1-22.1-22.35-22.1-42.348 0-20.943 23.06-25.75 39.389-25.75 5.65 0 12.389 1.614 18 2.515l.1 26.3c-5.3-.622-10.661-3.231-15.929-3.231-3.84 0-6.823 1.246-6.823 5.548 0 12.026 25 24.6 25 43.493 0 19.229-20.059 31.261-37.539 31.261-7.369 0-14.741-.092-22.116 0zM0 273.642h18.442c8.729 0 12.8 4.659 12.8 11.682 0 4.987-2.166 9.45-7.351 10.5v.131c6.169.591 8.663 5.841 8.663 10.7 0 8.138-3.938 13.848-14.11 13.848H0zm12.207 18.376h2.954c2.494 0 3.872-2.231 3.872-4.725 0-2.625-1.378-4.857-3.872-4.857h-2.954zm0 19.689h3.413c2.232 0 4.332-1.969 4.332-5.776 0-3.61-2.1-5.644-4.332-5.644h-3.413zm35.917-38.065v33.8c0 4.528 1.378 5.709 3.675 5.709s3.675-1.181 3.675-5.709v-33.8h12.207v30.714c0 13.126-5.644 17.063-15.882 17.063s-15.882-3.937-15.882-17.063v-30.714zm24.35 0h12.207V320.5H72.474zm17.941 0h12.207v36.884h15.029v9.974H90.415zm32.118 10.369h-9.188v-10.37h30.583v10.37h-9.188V320.5h-12.207zm40.691-10.369h12.928c9.057 0 12.6 4.791 12.6 11.748 0 4.594-2.494 8.991-7.219 10.172v.131c5.776 1.116 8.729 5.579 8.729 11.682 0 8.2-5.316 13.126-14.176 13.126h-12.862zm4.2 20.608h6.629c7.219 0 10.5-3.085 10.5-8.532 0-6.235-3.215-8.532-9.778-8.532h-7.351zm0 22.707h7.81c7.285 0 10.829-3.282 10.829-9.582s-3.544-9.582-10.829-9.582h-7.81zm27.361-43.315h23.232v3.544h-19.032v17.064h17.785v3.544h-17.785v19.164h19.623v3.542h-23.823zm37.934 3.544h-12.076v-3.544h28.352v3.544h-12.076V320.5h-4.2zm30.393 0h-12.076v-3.544h28.352v3.544h-12.076V320.5h-4.2zm20.346-3.544h23.232v3.544h-19.032v17.064h17.785v3.544h-17.785v19.164h19.623v3.542h-23.823zm29.142 0h13.979c7.81 0 12.141 4.463 12.141 11.748 0 5.644-2.231 10.7-8.466 11.879v.131c5.841.526 7.81 3.872 8.007 11.092l.131 5.119c.066 2.56.328 5.054 1.969 6.891h-4.922c-.985-1.641-1.181-4.069-1.247-6.563l-.134-3.939c-.262-8.27-1.772-10.894-9.319-10.894H316.8V320.5h-4.2zm4.2 21.92h7.219c6.629 0 10.5-3.019 10.5-9.188 0-5.71-2.428-9.188-10.041-9.188H316.8zm29.158-10.182h-1.485v-10.733h-3.021v-1.316H349v1.316h-3.037zm4.185-12.049h2.5l2.413 9.552h.033l2.413-9.552H360v12.049h-1.485v-10.531h-.034l-2.666 10.531h-1.485l-2.666-10.531h-.034v10.531h-1.485z"/></svg>