<svg xmlns="http://www.w3.org/2000/svg" version="1.0" width="2560.000000pt" height="1919.000000pt" viewBox="0 0 2560.000000 1919.000000" preserveAspectRatio="xMidYMid meet">

<g transform="translate(0.000000,1919.000000) scale(0.100000,-0.100000)" fill="#4c4746" stroke="none">
<path d="M12780 18189 c-449 -11 -730 -26 -845 -43 -55 -9 -154 -20 -220 -26 -66 -5 -140 -13 -165 -19 -25 -5 -90 -15 -145 -21 -120 -14 -431 -63 -572 -90 -56 -11 -118 -20 -137 -20 -19 0 -57 -8 -83 -19 -26 -10 -77 -22 -112 -26 -35 -4 -80 -14 -99 -22 -19 -8 -67 -21 -106 -28 -101 -18 -241 -52 -311 -74 -33 -11 -78 -23 -100 -27 -22 -3 -53 -14 -70 -22 -16 -8 -55 -21 -85 -28 -55 -13 -100 -27 -220 -70 -36 -13 -83 -28 -105 -34 -58 -14 -166 -50 -195 -65 -14 -7 -49 -20 -79 -29 -29 -9 -59 -20 -65 -25 -6 -5 -33 -16 -61 -24 -27 -8 -63 -22 -80 -31 -16 -9 -37 -16 -45 -16 -8 0 -35 -11 -60 -24 -25 -13 -56 -27 -70 -31 -27 -7 -112 -45 -170 -75 -19 -10 -51 -21 -70 -25 -19 -4 -45 -16 -58 -26 -13 -10 -36 -21 -52 -24 -17 -4 -32 -11 -35 -15 -3 -5 -48 -30 -100 -55 -52 -25 -97 -49 -100 -55 -3 -5 -25 -14 -48 -21 -23 -6 -49 -17 -57 -24 -8 -7 -33 -22 -55 -34 -22 -12 -47 -25 -55 -31 -57 -35 -188 -110 -205 -116 -11 -4 -49 -26 -85 -49 -36 -23 -78 -50 -95 -60 -16 -11 -47 -27 -67 -37 -21 -9 -38 -21 -38 -27 0 -5 -9 -13 -21 -16 -11 -4 -49 -29 -85 -56 -36 -27 -68 -49 -72 -49 -4 -1 -23 -14 -42 -30 -19 -17 -38 -30 -42 -30 -7 0 -184 -131 -220 -163 -9 -9 -26 -21 -38 -27 -12 -6 -29 -18 -38 -26 -49 -42 -134 -113 -171 -144 -23 -19 -55 -46 -70 -60 -15 -14 -62 -56 -106 -95 -43 -38 -127 -117 -185 -175 -59 -58 -117 -114 -131 -126 -13 -11 -39 -38 -58 -60 -18 -21 -65 -73 -103 -114 -39 -40 -95 -105 -125 -142 -31 -37 -59 -68 -63 -68 -5 0 -16 -13 -27 -29 -20 -32 -94 -128 -170 -221 -16 -19 -46 -60 -66 -92 -20 -31 -40 -58 -44 -60 -5 -1 -19 -25 -33 -52 -13 -27 -48 -82 -76 -121 -29 -40 -61 -92 -73 -116 -26 -55 -90 -173 -118 -217 -35 -56 -223 -442 -223 -459 0 -6 -9 -22 -20 -36 -11 -14 -23 -40 -27 -59 -3 -18 -14 -49 -23 -68 -10 -19 -23 -60 -30 -90 -7 -30 -18 -62 -25 -70 -7 -8 -15 -29 -18 -47 -4 -17 -15 -51 -25 -75 -21 -47 -26 -63 -81 -278 -21 -80 -41 -168 -45 -197 -3 -28 -15 -75 -25 -105 -10 -29 -21 -87 -25 -128 -4 -41 -13 -104 -21 -140 -7 -36 -19 -114 -25 -175 -6 -60 -15 -137 -20 -170 -5 -33 -14 -155 -21 -272 -11 -203 -9 -291 16 -653 10 -139 70 -566 90 -635 8 -28 21 -82 29 -120 32 -159 82 -340 144 -520 19 -55 41 -120 49 -145 8 -25 21 -58 28 -75 7 -16 18 -48 25 -70 6 -22 29 -76 50 -120 21 -44 63 -132 94 -197 31 -64 60 -127 66 -140 6 -12 24 -45 40 -73 17 -27 39 -68 51 -90 11 -22 36 -65 55 -95 19 -30 41 -68 49 -85 35 -67 230 -362 302 -455 23 -30 55 -72 70 -92 16 -21 42 -53 60 -73 17 -19 57 -68 89 -108 32 -39 98 -115 147 -167 48 -52 91 -99 95 -103 71 -81 462 -447 592 -555 8 -7 33 -29 55 -48 22 -20 57 -47 78 -60 21 -14 46 -32 57 -42 10 -9 46 -37 80 -62 34 -25 76 -57 93 -71 18 -14 43 -32 57 -39 14 -7 59 -39 100 -71 41 -31 91 -64 110 -73 19 -9 55 -31 80 -49 56 -41 182 -120 240 -151 85 -45 115 -62 155 -87 39 -25 223 -123 355 -190 36 -18 76 -41 89 -51 13 -10 30 -18 38 -18 8 0 61 -22 117 -50 56 -27 106 -50 110 -50 5 0 47 -18 93 -40 88 -43 184 -81 268 -107 28 -9 59 -22 71 -29 11 -8 45 -21 75 -30 30 -9 59 -19 64 -24 6 -4 62 -24 125 -45 63 -21 138 -46 165 -55 157 -55 157 -55 410 -128 172 -49 287 -79 340 -87 22 -3 78 -16 125 -29 190 -52 550 -126 615 -126 22 0 79 -9 126 -19 47 -11 119 -22 160 -26 41 -4 119 -15 174 -25 55 -10 154 -24 220 -30 66 -6 161 -16 210 -21 240 -26 306 -31 510 -39 458 -20 802 -23 1225 -11 442 12 606 21 830 47 69 8 195 21 280 29 86 8 171 20 190 25 19 5 81 14 139 20 58 6 122 15 143 21 20 5 101 18 179 29 177 25 343 55 429 79 36 10 88 23 115 29 28 6 77 17 110 25 33 9 114 27 180 42 66 14 156 37 200 50 44 13 95 27 114 30 18 4 52 16 75 26 22 10 49 19 59 19 10 0 43 11 73 25 30 14 60 25 66 25 16 0 201 58 260 81 26 11 53 19 60 19 7 0 34 11 60 25 26 14 53 25 60 25 7 0 29 8 48 19 19 10 53 24 75 30 93 29 150 52 305 125 30 14 59 26 63 26 5 0 56 23 115 51 115 55 130 62 238 118 38 20 81 41 95 47 49 22 284 147 299 159 8 7 66 40 129 74 62 34 120 68 128 76 8 8 19 15 25 15 6 0 24 12 42 26 38 32 137 94 149 94 5 0 31 18 57 40 26 22 50 40 54 40 5 0 83 55 115 82 8 6 37 27 65 47 54 37 187 143 299 238 37 32 95 82 130 111 201 170 518 484 667 661 25 30 68 79 95 110 28 31 64 78 80 104 17 27 50 73 75 102 25 29 61 75 80 102 19 26 41 52 47 56 7 4 13 13 13 18 0 6 13 29 28 52 16 23 41 62 57 87 15 25 36 57 46 71 10 15 34 56 53 93 49 93 87 159 102 176 28 34 257 509 277 576 8 27 22 63 31 79 9 17 16 37 16 45 0 8 9 33 20 55 11 22 19 45 20 52 0 6 11 38 23 70 47 116 105 321 128 453 5 30 18 84 28 120 11 36 24 94 30 130 5 36 19 117 30 180 61 348 66 419 65 895 0 434 0 430 -49 755 -9 58 -22 130 -30 160 -7 30 -16 84 -20 119 -4 36 -15 88 -25 116 -10 28 -21 75 -25 105 -4 29 -13 67 -20 84 -7 17 -18 60 -25 96 -10 58 -35 137 -83 265 -8 22 -30 85 -47 140 -18 55 -39 109 -45 120 -7 11 -18 38 -25 60 -6 22 -22 61 -36 86 -13 26 -24 52 -24 59 0 6 -9 24 -19 39 -11 15 -22 43 -26 63 -4 21 -13 42 -21 48 -7 7 -18 27 -25 47 -6 19 -27 63 -47 96 -19 34 -44 78 -54 97 -11 19 -33 58 -49 85 -16 28 -37 66 -47 85 -20 41 -36 65 -109 175 -29 44 -53 85 -53 92 0 6 -7 16 -15 23 -8 7 -34 40 -57 74 -23 33 -46 66 -52 72 -6 7 -36 44 -66 84 -30 40 -67 87 -82 105 -16 18 -28 38 -28 44 0 6 -4 11 -9 11 -5 0 -38 37 -73 82 -35 44 -95 115 -134 157 -39 42 -84 91 -100 109 -16 18 -55 59 -88 90 -32 31 -66 65 -75 75 -84 94 -420 387 -646 563 -126 97 -177 135 -258 191 -50 34 -93 65 -96 70 -12 17 -79 62 -112 76 -19 7 -40 21 -48 30 -7 10 -19 17 -26 17 -6 0 -20 9 -30 20 -10 11 -23 20 -30 20 -6 0 -45 22 -87 50 -42 27 -92 56 -110 65 -55 26 -91 46 -128 70 -47 31 -150 86 -350 186 -91 45 -186 92 -211 105 -26 13 -53 24 -61 24 -8 0 -39 12 -69 26 -53 26 -100 48 -209 97 -30 14 -73 31 -95 37 -22 7 -49 19 -60 25 -11 7 -42 18 -70 25 -27 6 -57 17 -65 25 -8 7 -31 16 -50 20 -19 4 -53 16 -75 25 -81 36 -156 62 -217 76 -35 8 -72 21 -84 29 -11 7 -47 18 -79 24 -32 6 -68 17 -79 24 -12 8 -39 17 -61 21 -22 3 -60 15 -85 25 -25 10 -74 26 -110 35 -36 9 -126 32 -200 51 -74 19 -155 37 -180 41 -25 4 -81 17 -124 30 -44 13 -96 24 -115 24 -20 0 -56 9 -80 20 -24 11 -59 20 -78 20 -20 0 -90 11 -157 24 -66 13 -175 32 -241 41 -66 9 -123 18 -126 21 -4 2 -70 10 -147 18 -78 9 -172 22 -209 30 -61 13 -133 22 -493 56 -99 10 -580 28 -905 34 -104 2 -332 0 -505 -5z m783 -766 c5 -3 122 -9 260 -14 139 -4 302 -15 362 -23 61 -8 151 -18 200 -21 50 -4 149 -16 220 -27 72 -11 159 -24 195 -28 36 -5 85 -13 110 -18 81 -18 154 -31 220 -38 36 -3 92 -14 125 -24 33 -10 84 -21 114 -24 29 -4 77 -16 105 -27 28 -10 64 -19 79 -19 15 0 62 -11 105 -24 83 -25 219 -60 320 -82 34 -8 75 -20 90 -28 15 -7 46 -16 69 -20 24 -3 62 -15 85 -25 24 -11 84 -31 133 -46 50 -15 115 -36 145 -47 30 -11 75 -25 100 -33 47 -14 154 -56 205 -80 45 -21 160 -65 171 -65 5 0 31 -11 59 -24 123 -59 182 -86 192 -86 5 0 18 -8 27 -19 9 -10 31 -21 47 -25 17 -3 42 -15 56 -26 14 -11 32 -20 40 -20 17 0 139 -60 183 -90 17 -11 43 -28 58 -39 15 -10 42 -22 59 -25 17 -4 39 -16 49 -27 9 -10 23 -19 29 -19 7 0 28 -11 48 -24 19 -13 45 -27 57 -31 12 -4 49 -26 83 -49 34 -23 91 -60 127 -81 36 -22 67 -42 70 -45 8 -8 149 -103 187 -125 44 -27 155 -108 213 -157 25 -21 126 -104 225 -186 167 -138 473 -431 556 -533 20 -24 62 -71 93 -104 31 -33 71 -79 89 -103 18 -24 67 -87 109 -140 43 -53 78 -102 78 -108 0 -7 7 -15 15 -18 9 -3 22 -20 30 -38 8 -18 35 -60 60 -93 25 -33 45 -64 45 -69 0 -5 11 -23 24 -40 56 -74 226 -388 226 -418 0 -9 5 -20 10 -23 6 -4 21 -28 34 -53 13 -26 31 -60 40 -77 9 -16 16 -34 16 -40 0 -5 11 -32 25 -59 14 -27 25 -56 25 -64 0 -9 6 -23 14 -31 8 -9 20 -39 27 -66 6 -28 23 -79 36 -115 14 -36 32 -83 40 -105 8 -22 19 -50 24 -63 5 -13 9 -32 9 -43 0 -10 9 -36 20 -56 11 -21 20 -47 20 -59 0 -12 9 -50 19 -85 11 -35 27 -107 36 -159 9 -52 21 -117 26 -145 5 -27 14 -84 20 -125 5 -41 20 -133 32 -205 20 -120 22 -163 21 -550 0 -364 -2 -428 -17 -482 -9 -33 -21 -115 -27 -180 -5 -66 -18 -148 -29 -184 -10 -35 -22 -102 -26 -149 -4 -47 -13 -103 -22 -125 -8 -22 -20 -67 -27 -100 -7 -33 -19 -73 -28 -90 -8 -16 -18 -49 -22 -72 -3 -24 -15 -62 -25 -85 -41 -95 -64 -155 -72 -198 -5 -25 -18 -57 -29 -72 -11 -15 -20 -33 -20 -41 0 -7 -11 -35 -24 -63 -36 -73 -86 -191 -86 -202 0 -5 -9 -20 -19 -34 -11 -13 -23 -38 -27 -54 -7 -28 -47 -104 -100 -189 -14 -22 -34 -59 -44 -81 -11 -23 -27 -47 -35 -54 -8 -7 -15 -18 -15 -25 0 -13 -41 -77 -110 -172 -25 -34 -67 -95 -95 -134 -27 -39 -82 -110 -121 -158 -38 -47 -75 -94 -80 -103 -5 -10 -41 -52 -79 -94 -39 -42 -92 -102 -120 -132 -87 -98 -413 -422 -424 -422 -5 0 -23 -12 -39 -27 -70 -67 -120 -111 -167 -145 -52 -39 -82 -63 -125 -98 -25 -22 -135 -103 -175 -130 -12 -8 -47 -33 -76 -55 -30 -22 -62 -44 -70 -50 -9 -5 -29 -19 -45 -29 -16 -11 -45 -30 -65 -43 -19 -12 -40 -23 -45 -23 -6 0 -19 -9 -28 -19 -10 -11 -32 -25 -49 -32 -18 -7 -36 -19 -42 -25 -5 -7 -46 -31 -90 -54 -44 -23 -87 -48 -95 -54 -14 -12 -43 -28 -225 -125 -38 -20 -91 -45 -117 -55 -26 -9 -64 -29 -85 -43 -21 -14 -51 -30 -68 -36 -16 -5 -37 -16 -46 -23 -8 -8 -40 -23 -70 -33 -152 -55 -175 -64 -190 -77 -9 -8 -34 -20 -55 -25 -22 -6 -46 -17 -54 -24 -8 -7 -31 -18 -51 -24 -20 -6 -53 -20 -74 -31 -22 -11 -47 -20 -57 -20 -10 0 -46 -11 -80 -24 -63 -25 -125 -46 -208 -71 -67 -21 -169 -55 -225 -76 -27 -10 -74 -23 -104 -29 -30 -5 -59 -14 -66 -20 -6 -5 -50 -16 -98 -24 -48 -9 -96 -20 -107 -26 -10 -5 -47 -17 -82 -24 -35 -8 -94 -24 -133 -35 -38 -12 -89 -21 -113 -21 -23 0 -58 -7 -78 -15 -19 -8 -63 -19 -97 -25 -34 -6 -100 -19 -147 -30 -47 -10 -144 -26 -216 -34 -72 -9 -144 -20 -160 -26 -16 -6 -77 -15 -136 -21 -59 -5 -135 -16 -170 -24 -36 -9 -158 -20 -282 -25 -120 -6 -222 -12 -226 -15 -57 -35 -1439 -40 -1605 -6 -27 6 -140 15 -250 21 -112 5 -248 19 -309 30 -61 11 -130 20 -155 20 -25 0 -75 7 -111 15 -36 8 -132 24 -215 35 -82 11 -175 27 -205 35 -30 8 -66 15 -81 15 -14 0 -61 10 -105 21 -43 12 -105 25 -137 30 -33 5 -91 18 -130 29 -201 58 -387 106 -459 120 -25 5 -59 15 -75 23 -16 9 -47 18 -68 22 -22 4 -65 17 -95 30 -64 25 -131 49 -215 76 -116 36 -208 69 -219 78 -6 5 -31 14 -56 21 -24 7 -55 20 -68 31 -14 10 -32 19 -41 19 -9 0 -38 11 -66 24 -27 14 -79 37 -115 51 -55 23 -140 63 -395 187 -16 8 -75 39 -130 68 -55 29 -112 59 -127 67 -15 8 -30 18 -33 23 -3 4 -43 27 -90 50 -47 24 -92 51 -101 62 -10 10 -23 18 -30 18 -7 0 -25 11 -40 25 -15 14 -30 25 -35 25 -4 0 -20 11 -36 24 -15 13 -39 27 -53 31 -14 4 -36 17 -50 30 -14 12 -84 63 -157 113 -72 51 -163 118 -201 149 -39 32 -87 69 -107 83 -20 14 -42 30 -49 37 -8 7 -51 44 -97 84 -223 191 -417 382 -557 549 -35 41 -82 96 -105 121 -61 67 -169 205 -189 241 -9 17 -21 34 -26 37 -13 8 -155 218 -177 261 -10 19 -24 40 -31 48 -8 7 -17 25 -20 40 -4 15 -14 36 -24 47 -18 22 -68 105 -127 215 -11 19 -24 44 -30 55 -26 46 -163 348 -163 359 0 6 -11 32 -25 58 -14 26 -30 71 -36 100 -6 29 -19 72 -30 95 -10 24 -19 49 -19 56 0 7 -9 29 -20 49 -11 21 -23 57 -26 80 -4 24 -15 63 -24 88 -10 25 -21 65 -24 90 -4 25 -16 82 -27 126 -11 45 -26 128 -34 185 -8 57 -21 136 -29 174 -8 39 -17 108 -21 155 -3 47 -13 144 -21 215 -20 171 -14 482 14 763 12 117 23 216 26 220 2 4 14 75 26 157 12 83 30 181 41 220 10 38 19 79 19 90 0 29 110 383 135 435 7 14 16 43 19 65 4 22 16 58 26 80 54 119 69 152 75 174 8 27 41 92 68 132 9 14 24 49 32 77 9 28 20 54 24 57 5 3 26 38 46 78 20 39 56 99 80 132 24 33 44 67 44 75 1 16 38 77 108 180 24 34 43 64 43 67 0 3 22 33 49 68 27 34 56 75 64 91 13 24 111 148 171 217 9 9 16 21 16 26 0 6 8 16 18 23 10 7 46 45 79 83 115 133 517 525 539 525 8 0 14 4 14 8 0 8 103 96 161 137 15 11 72 56 126 100 105 86 126 101 298 215 33 21 74 48 90 60 63 44 106 70 114 70 5 0 25 14 46 30 21 17 44 30 51 30 8 0 14 5 14 11 0 5 20 19 45 30 24 11 47 24 50 29 3 5 45 29 93 54 48 24 107 55 132 70 25 14 61 33 80 41 19 9 42 20 50 25 8 6 31 17 50 25 35 15 128 59 165 78 29 15 64 32 115 54 25 11 69 32 98 47 30 14 58 26 64 26 12 0 141 55 188 80 20 10 54 23 75 29 22 5 65 19 95 31 124 51 152 61 193 69 53 11 161 48 207 71 19 9 57 21 85 25 27 4 62 13 78 21 15 8 53 19 85 25 31 5 66 14 77 19 20 10 220 59 340 84 33 7 74 20 90 28 17 9 59 19 95 23 36 4 85 13 109 21 24 8 84 21 135 28 50 7 152 23 226 35 333 55 353 57 650 92 102 11 300 26 440 31 140 6 327 14 415 18 162 7 693 2 708 -7z" fill="#4c4746"/>
<path d="M14045 14353 c-58 -12 -75 -26 -85 -67 -6 -22 -17 -61 -25 -86 -8 -25 -21 -94 -30 -154 -8 -60 -20 -115 -25 -121 -5 -6 -14 -45 -20 -86 -6 -41 -19 -100 -30 -132 -11 -31 -20 -75 -20 -97 0 -23 -9 -67 -20 -100 -11 -33 -25 -92 -30 -132 -6 -40 -19 -100 -29 -133 -10 -33 -24 -102 -31 -154 -7 -52 -18 -112 -26 -134 -8 -22 -14 -54 -14 -73 0 -18 -11 -68 -24 -111 -13 -43 -27 -101 -30 -130 -4 -29 -13 -71 -22 -95 -8 -24 -19 -79 -25 -124 -5 -45 -17 -108 -28 -140 -10 -32 -22 -90 -26 -128 -4 -38 -13 -87 -22 -110 -8 -23 -18 -76 -23 -118 -5 -42 -16 -91 -25 -108 -9 -17 -20 -64 -25 -103 -5 -40 -18 -103 -29 -142 -12 -38 -21 -84 -21 -101 0 -18 -11 -74 -24 -125 -13 -52 -27 -121 -31 -154 -4 -32 -15 -86 -25 -120 -10 -33 -20 -83 -23 -111 -3 -28 -15 -78 -26 -112 -12 -34 -21 -75 -21 -91 0 -16 -9 -58 -20 -94 -11 -36 -25 -103 -31 -149 -5 -46 -18 -117 -28 -158 -11 -41 -22 -100 -25 -130 -4 -30 -16 -84 -27 -119 -10 -35 -19 -78 -19 -97 0 -18 -9 -56 -20 -83 -10 -27 -22 -73 -25 -103 -4 -29 -15 -80 -25 -113 -10 -33 -24 -94 -30 -135 -6 -41 -20 -108 -30 -149 -11 -41 -20 -99 -20 -128 0 -86 -40 -82 700 -65 234 5 587 7 785 4 390 -5 2477 15 2900 28 260 8 733 41 855 60 36 5 110 15 165 21 212 24 448 105 647 221 92 54 357 301 358 333 0 6 12 25 28 42 38 44 117 152 136 188 9 17 20 37 25 45 5 8 35 69 66 135 31 66 64 134 72 150 19 36 58 149 79 225 9 30 21 64 28 75 7 11 16 38 20 60 4 22 16 67 26 100 37 122 70 283 80 395 5 63 14 138 20 165 17 80 24 522 11 675 -27 320 -63 550 -108 680 -8 25 -20 68 -27 95 -7 28 -17 59 -24 71 -6 11 -18 47 -26 80 -8 32 -25 88 -38 124 -29 80 -137 301 -172 353 -14 21 -33 52 -42 70 -22 41 -168 221 -214 263 -69 62 -159 134 -168 134 -5 0 -16 7 -23 16 -8 9 -32 25 -54 36 -22 10 -51 25 -65 33 -53 29 -107 53 -140 60 -19 4 -60 16 -90 26 -30 10 -84 23 -120 29 -35 7 -76 18 -92 26 -15 8 -44 14 -65 14 -21 0 -114 9 -208 20 -262 29 -261 29 -590 35 -786 13 -3570 35 -3600 28z m2900 -658 c59 -4 156 -14 305 -34 340 -45 561 -187 717 -460 17 -31 34 -72 38 -91 4 -19 16 -52 27 -75 12 -22 25 -56 29 -75 4 -19 17 -62 28 -95 54 -163 94 -508 93 -815 0 -240 -29 -587 -57 -690 -8 -30 -15 -68 -15 -85 0 -17 -7 -55 -15 -85 -8 -30 -22 -82 -31 -115 -8 -33 -24 -82 -34 -110 -10 -27 -25 -77 -33 -110 -8 -33 -22 -80 -31 -105 -23 -62 -114 -240 -135 -265 -10 -11 -24 -35 -31 -52 -7 -18 -49 -70 -94 -116 -124 -127 -230 -209 -306 -237 -19 -7 -40 -17 -46 -22 -24 -18 -223 -76 -284 -83 -36 -4 -93 -13 -128 -21 -109 -25 -388 -33 -1149 -34 l-741 0 -31 26 c-20 17 -31 35 -31 52 0 28 44 278 61 347 5 22 15 74 21 115 6 41 19 104 28 140 10 36 21 88 25 115 3 28 14 84 25 125 10 41 30 134 44 205 15 72 36 175 47 230 11 55 24 129 29 165 10 65 28 154 76 370 15 63 32 142 40 175 17 76 39 194 59 310 25 150 44 246 59 299 7 28 17 71 20 96 3 25 15 79 26 120 28 107 77 345 85 414 4 33 11 71 16 84 5 13 16 63 24 110 29 170 67 259 120 283 18 8 1006 3 1150 -6z" fill="#4c4746"/>
<path d="M11520 14344 c-75 -12 -99 -25 -129 -71 -17 -25 -31 -59 -31 -74 0 -16 -9 -52 -19 -81 -11 -29 -27 -91 -35 -138 -9 -47 -22 -110 -29 -140 -8 -30 -19 -77 -25 -105 -6 -27 -18 -84 -27 -125 -46 -208 -65 -302 -65 -327 0 -15 -9 -57 -20 -93 -11 -36 -26 -96 -34 -135 -21 -100 -45 -200 -66 -275 -11 -36 -22 -85 -25 -110 -5 -39 -27 -158 -64 -350 -29 -151 -62 -304 -67 -312 -7 -10 -50 -210 -74 -338 -10 -52 -25 -124 -34 -160 -9 -36 -39 -162 -67 -280 -28 -118 -59 -242 -69 -275 -10 -33 -21 -87 -25 -120 -4 -33 -17 -107 -30 -165 -13 -58 -27 -121 -30 -140 -4 -19 -12 -55 -20 -80 -7 -25 -23 -92 -35 -150 -55 -266 -83 -349 -129 -370 -30 -14 -519 -14 -896 0 -283 10 -462 46 -642 127 -28 12 -55 23 -59 23 -4 0 -38 18 -76 40 -85 51 -238 202 -300 297 -51 77 -168 328 -168 359 0 10 -11 53 -25 94 -54 164 -65 209 -80 315 -8 61 -20 142 -27 180 -7 45 -12 191 -11 415 0 301 3 361 21 470 11 69 23 159 26 201 4 42 15 102 26 132 11 31 20 74 20 95 0 22 7 59 16 83 8 24 22 83 30 131 8 48 23 111 33 140 11 29 23 73 26 98 4 25 12 54 18 65 6 11 19 52 28 90 19 75 61 201 77 231 12 22 46 123 72 210 10 34 25 72 33 85 8 13 18 37 22 54 3 16 26 70 51 119 24 49 44 94 44 100 0 6 11 34 25 61 32 66 33 118 0 150 l-24 25 -233 1 c-401 2 -819 -1 -908 -7 -47 -3 -137 -15 -200 -27 -99 -18 -123 -26 -172 -60 -65 -44 -148 -129 -148 -150 0 -8 -9 -22 -21 -33 -12 -10 -30 -35 -40 -54 -11 -19 -33 -55 -49 -80 -16 -25 -38 -63 -50 -85 -11 -22 -27 -51 -35 -65 -9 -14 -20 -36 -25 -50 -6 -14 -14 -32 -19 -40 -19 -30 -160 -357 -181 -420 -12 -36 -28 -94 -36 -130 -8 -36 -21 -74 -29 -86 -7 -11 -17 -43 -20 -70 -4 -27 -15 -69 -25 -94 -10 -25 -20 -67 -24 -95 -4 -27 -15 -88 -26 -135 -36 -158 -64 -552 -55 -775 8 -210 33 -483 50 -559 7 -34 19 -97 25 -141 6 -44 20 -107 30 -140 10 -33 22 -80 25 -105 4 -25 13 -57 21 -71 7 -14 20 -52 28 -85 22 -88 55 -180 93 -264 57 -123 105 -224 114 -240 5 -8 21 -37 34 -65 46 -93 285 -420 317 -433 5 -2 32 -26 61 -53 28 -27 55 -49 58 -49 4 0 28 -17 53 -38 26 -21 63 -48 84 -59 20 -11 46 -25 57 -31 138 -78 382 -158 550 -182 44 -6 98 -15 120 -20 22 -5 155 -17 295 -25 140 -9 282 -20 315 -26 122 -20 3473 -44 3504 -25 21 13 42 73 67 191 13 61 31 139 39 175 9 36 22 101 31 145 8 44 21 112 28 150 8 39 20 99 29 135 23 95 47 214 62 302 8 43 21 103 30 135 19 71 52 226 66 313 6 36 19 93 30 127 10 34 21 82 25 105 3 24 14 75 24 113 23 87 58 248 75 340 8 39 19 83 25 100 6 16 18 80 26 142 8 61 21 127 29 146 8 19 18 68 23 109 5 41 17 88 26 106 9 17 16 41 16 54 0 13 7 52 15 88 9 36 24 112 35 170 11 58 27 134 35 170 9 36 22 102 30 147 7 45 21 103 29 128 9 25 16 64 16 86 0 22 7 54 16 71 9 17 22 68 29 114 8 46 19 92 24 103 6 11 16 55 22 98 6 43 19 112 29 153 10 41 26 117 35 169 9 52 20 102 25 111 5 9 14 53 19 98 6 45 17 94 25 109 8 16 17 55 21 88 4 33 15 86 26 118 10 31 19 80 19 108 0 84 54 79 -897 78 -455 -1 -839 -3 -853 -5z" fill="#4c4746"/>
<path d="M17730 3370 c-41 -4 -95 -13 -120 -18 -25 -6 -78 -13 -119 -17 -41 -4 -106 -18 -145 -31 -38 -13 -76 -24 -83 -24 -8 0 -46 -19 -86 -41 -40 -23 -85 -49 -100 -57 -44 -22 -154 -129 -181 -175 -95 -166 -124 -288 -136 -587 -9 -213 3 -527 24 -621 8 -35 18 -89 21 -118 11 -80 68 -190 139 -268 57 -62 169 -153 189 -153 5 0 21 -8 35 -18 35 -24 180 -70 262 -83 36 -5 90 -16 120 -24 121 -32 597 -43 1072 -26 175 6 210 10 226 24 15 14 20 37 26 118 3 55 3 118 0 141 l-7 41 -319 -6 c-412 -9 -767 6 -821 34 -21 10 -46 19 -55 19 -19 0 -100 49 -148 90 -31 27 -94 108 -94 123 0 4 -11 32 -24 60 -60 128 -73 612 -25 892 24 136 126 272 243 325 85 38 92 40 171 51 39 5 95 14 125 20 50 11 255 12 832 5 58 0 109 2 113 6 11 11 18 261 8 275 -5 8 -53 17 -114 23 -57 6 -129 15 -159 20 -68 10 -767 11 -870 0z" fill="#4c4746"/>
<path d="M22720 3369 c-353 -30 -438 -41 -528 -70 -51 -16 -111 -41 -134 -57 -22 -15 -55 -36 -72 -47 -65 -40 -123 -114 -153 -194 -26 -70 -28 -87 -28 -212 0 -131 1 -139 30 -200 17 -35 38 -71 48 -81 9 -10 17 -21 17 -26 0 -4 33 -34 74 -66 108 -87 244 -160 466 -251 143 -58 227 -95 355 -155 55 -26 123 -57 150 -70 28 -12 100 -46 161 -76 61 -30 114 -54 118 -54 16 0 107 -83 121 -111 28 -53 15 -131 -28 -177 -12 -13 -49 -37 -82 -55 l-60 -32 -647 -1 c-356 -1 -653 -4 -661 -7 -8 -3 -17 -23 -20 -44 -7 -38 8 -251 17 -261 3 -2 96 -11 208 -19 112 -7 228 -16 258 -20 93 -10 709 -5 820 7 58 6 152 17 210 24 157 20 379 90 408 128 7 10 19 18 26 18 22 0 118 112 150 175 29 59 30 63 30 220 1 216 -12 252 -133 371 -82 81 -92 87 -305 193 -122 60 -240 114 -263 121 -23 6 -45 15 -48 20 -3 4 -22 14 -43 21 -20 6 -44 17 -52 24 -8 7 -34 18 -56 24 -23 6 -52 19 -65 29 -13 10 -45 26 -71 36 -26 10 -50 22 -53 27 -4 5 -16 9 -28 9 -12 0 -44 11 -72 25 -27 13 -66 31 -85 39 -19 9 -42 20 -50 24 -8 5 -44 24 -80 41 -74 36 -126 79 -140 116 -22 57 -7 185 21 185 4 0 17 9 28 21 20 21 29 23 261 51 113 14 577 18 720 6 47 -4 150 -9 230 -13 193 -8 184 -16 188 160 l4 135 -26 10 c-35 13 -236 28 -531 40 -285 11 -468 11 -605 -1z" fill="#4c4746"/>
<path d="M5300 3360 c-130 -7 -187 -19 -201 -42 -4 -6 -5 -487 -4 -1070 4 -1094 4 -1105 43 -1125 32 -16 1308 -5 1372 11 14 4 61 11 105 17 151 20 251 47 350 96 236 116 326 239 404 548 18 70 45 315 49 438 2 79 -2 152 -14 220 -9 56 -20 131 -24 167 -9 73 -42 190 -74 265 -36 84 -137 208 -223 271 -45 33 -223 124 -244 124 -11 0 -52 9 -92 21 -145 41 -404 60 -877 64 -239 2 -496 0 -570 -5z m1065 -300 c38 -6 79 -17 90 -24 11 -7 35 -17 53 -20 17 -4 34 -12 38 -17 3 -5 24 -21 46 -35 48 -30 97 -84 120 -131 10 -19 21 -40 27 -47 10 -12 38 -111 54 -196 7 -32 12 -177 12 -350 0 -273 -2 -304 -24 -410 -27 -130 -65 -209 -133 -280 -68 -71 -142 -111 -218 -120 -36 -4 -78 -13 -95 -20 -21 -9 -111 -13 -295 -14 -238 -1 -269 1 -302 17 -20 10 -41 31 -47 45 -8 20 -11 247 -9 794 3 881 -7 798 103 817 73 12 483 6 580 -9z" fill="#4c4746"/>
<path d="M11697 3364 c-4 -4 -64 -7 -134 -6 -126 2 -238 -12 -249 -30 -4 -6 -6 -494 -5 -1086 2 -929 4 -1080 17 -1099 14 -23 16 -23 262 -23 191 0 252 3 266 13 11 8 22 34 27 63 4 27 8 438 8 914 1 823 2 867 20 900 12 24 30 39 56 48 47 16 437 31 531 21 252 -28 230 -21 374 -115 67 -44 100 -147 100 -314 0 -220 -78 -331 -266 -381 -59 -15 -130 -23 -279 -29 l-199 -8 -23 -29 c-47 -58 -20 -139 81 -248 36 -38 66 -74 66 -79 0 -5 35 -45 78 -90 43 -44 112 -121 152 -171 41 -49 86 -101 100 -115 14 -14 59 -66 101 -115 42 -50 90 -104 105 -120 16 -17 40 -44 54 -60 14 -17 41 -41 60 -55 l35 -25 308 -3 307 -3 0 26 c0 27 -20 64 -55 100 -11 12 -49 54 -85 95 -36 41 -91 102 -122 135 -57 59 -71 75 -158 175 -25 29 -71 79 -103 113 -33 33 -66 72 -75 86 -9 14 -27 34 -40 45 -18 14 -22 26 -20 55 3 33 8 38 58 63 30 15 80 34 110 43 30 9 62 20 70 25 8 6 30 16 48 24 40 19 139 98 171 137 67 84 111 258 111 436 0 113 -37 331 -61 362 -11 13 -19 30 -19 38 0 21 -88 111 -136 139 -22 13 -49 33 -59 44 -10 11 -26 20 -36 20 -10 0 -51 11 -91 24 -126 42 -395 60 -963 63 -270 2 -494 1 -498 -3z" fill="#4c4746"/>
<path d="M2323 3342 c-46 -3 -54 -6 -59 -27 -3 -13 -4 -385 -2 -827 l5 -803 26 -72 c15 -40 27 -79 27 -88 0 -8 5 -15 11 -15 5 0 19 -19 29 -42 10 -24 28 -49 39 -56 12 -7 21 -17 21 -22 0 -5 16 -24 36 -42 20 -18 46 -42 58 -53 77 -71 273 -157 421 -185 33 -6 98 -18 145 -28 69 -13 141 -16 380 -16 292 1 296 1 430 32 151 34 207 52 297 93 34 16 64 29 67 29 26 0 129 94 213 195 44 51 103 188 113 255 4 36 10 419 12 852 3 714 1 789 -13 803 -14 15 -49 16 -277 16 -144 -1 -268 -4 -276 -7 -9 -3 -18 -26 -22 -52 -4 -26 -4 -373 0 -773 7 -707 4 -827 -23 -864 -4 -5 -13 -28 -19 -50 -12 -41 -103 -149 -153 -179 -14 -9 -59 -28 -100 -42 -65 -23 -94 -27 -234 -31 -130 -4 -171 -2 -220 12 -33 9 -78 20 -100 24 -49 9 -155 79 -188 124 -56 76 -76 132 -87 244 -6 63 -10 407 -10 829 0 397 -2 729 -6 738 -3 9 -17 19 -29 22 -25 6 -427 11 -512 6z" fill="#4c4746"/>
<path d="M19352 3340 c-18 -4 -35 -10 -38 -13 -3 -3 -5 -491 -5 -1084 l2 -1078 22 -22 c21 -21 31 -22 182 -23 88 -1 204 -1 257 -1 l97 1 17 33 c15 28 17 76 20 432 3 451 6 495 37 531 21 24 23 25 57 10 34 -14 80 -57 110 -102 8 -12 56 -69 105 -126 50 -58 101 -120 115 -138 14 -17 35 -44 47 -59 59 -71 180 -222 198 -247 11 -15 45 -58 75 -95 30 -37 67 -84 81 -103 14 -20 52 -57 84 -83 l58 -48 327 -3 327 -3 -5 28 c-3 15 -13 34 -24 41 -10 7 -18 17 -18 22 0 13 -60 101 -90 131 -44 45 -104 113 -140 159 -19 25 -51 63 -70 86 -52 60 -91 107 -125 148 -16 20 -43 51 -59 69 -15 18 -40 48 -54 67 -36 48 -124 153 -139 165 -7 6 -23 24 -35 42 -13 17 -50 65 -83 105 -57 70 -60 75 -60 128 0 44 5 63 25 89 37 48 287 314 505 536 316 321 377 387 365 398 -12 13 -516 17 -560 5 -14 -4 -44 -27 -67 -50 -152 -156 -223 -232 -261 -279 -39 -48 -231 -253 -394 -420 -32 -33 -62 -59 -68 -59 -5 0 -10 -7 -10 -15 0 -8 -10 -21 -22 -29 -13 -8 -32 -31 -42 -51 -35 -65 -114 -109 -149 -83 -31 23 -37 125 -35 555 1 227 -1 415 -4 419 -21 20 -482 32 -556 14z" fill="#4c4746"/>
<path d="M8541 3321 c-16 -16 -20 -34 -19 -103 0 -46 5 -121 11 -168 11 -77 14 -85 37 -91 14 -4 176 -7 361 -8 185 -1 350 -4 367 -7 17 -3 45 -19 64 -34 l33 -28 1 -849 c0 -666 3 -856 13 -881 12 -29 15 -31 84 -34 40 -2 159 -1 265 1 l193 3 17 26 c16 24 17 92 17 877 0 672 3 855 13 872 7 13 27 31 45 40 29 16 70 18 399 18 333 0 369 2 384 17 15 14 18 44 22 176 4 139 3 160 -12 175 -16 16 -98 17 -1147 17 -1103 0 -1129 0 -1148 -19z" fill="#4c4746"/>
<path d="M13990 3310 c-12 -12 -20 -34 -20 -52 0 -18 0 -287 1 -598 1 -602 10 -931 30 -1020 33 -156 115 -275 269 -392 76 -58 221 -120 345 -148 187 -42 274 -51 500 -52 228 -1 366 11 495 42 41 10 94 21 117 25 24 4 65 18 93 31 27 13 57 24 65 24 30 0 125 62 195 127 155 144 211 294 230 613 4 69 8 408 9 754 1 575 0 631 -15 648 -16 17 -38 18 -294 18 -217 0 -280 -3 -288 -13 -8 -9 -12 -255 -14 -813 -3 -747 -4 -802 -21 -844 -10 -25 -23 -64 -28 -87 -14 -56 -87 -133 -174 -181 -93 -52 -190 -67 -397 -60 -128 5 -162 9 -202 27 -27 11 -54 21 -60 21 -22 0 -132 83 -158 120 -15 21 -41 73 -58 116 l-31 77 0 788 c0 434 -4 801 -8 816 l-7 28 -277 3 c-266 2 -277 2 -297 -18z" fill="#4c4746"/>
</g>
</svg>