<?xml version="1.0" encoding="UTF-8"?>
<!-- Created with Inkscape (http://www.inkscape.org/) -->
<svg width="284.5638mm" height="81.28522mm" version="1.1" viewBox="0 0 284.5638 81.28522" xmlns="http://www.w3.org/2000/svg">
 <g fill="#000000">
  <text x="507.20667" y="179.98438" font-family="'Futura XBlk BT'" font-size="101.6px" style="line-height:1.25" xml:space="preserve"/>
  <path d="m134.7803 59.60044v-45.82634h-13.26949v-13.7741h44.02085v13.7741h-13.82635v45.54002z"/>
  <g transform="matrix(7.735624 0 0 7.735624 644.1925 -1534.454)" stroke-width=".264583" aria-label="mTran">
   <path d="m-74.94819 206.0482v-5.34457h2.429562l-0.08133 1.00542q0.508277-1.15358 1.565492-1.15358 1.087712 0 1.514664 1.20649 0.36596-1.19591 1.555327-1.19591 0.853904 0 1.341849 0.58208 0.487946 0.58208 0.487946 1.61925v3.28082h-2.470224v-2.71991q0-0.41275-0.06099-0.53975-0.09149-0.14816-0.274469-0.14816-0.243973 0-0.355793 0.22225-0.02034 0.0529-0.04066 0.14816-0.01016 0.0952-0.01016 0.33867v2.69874h-2.378734v-2.67758q0-0.40216-0.07116-0.53974-0.06099-0.13759-0.243972-0.13759-0.426953 0-0.426953 0.64558v2.70933z"/>
   <path d="m-63.27576 205.9173v-5.34457h2.561159v0.78317q0.370415-0.92075 1.608661-0.92075l0.201083 0.0106v2.59291q-0.433915-0.30691-0.814914-0.30691-0.359832 0-0.634998 0.19049-0.328082 0.24342-0.328082 0.98425v2.01083z"/>
   <path d="m-55.2531 201.4194v-0.71967h2.539992l0.05292 5.34457h-2.571742v-0.73025q-0.232833 0.39158-0.677331 0.62442-0.444499 0.23283-0.963081 0.23283-0.973663 0-1.608661-0.78317-0.634998-0.79374-0.634998-2.02141 0-1.20649 0.645581-2.01082 0.656165-0.81492 1.640411-0.81492 1.05833 0 1.576912 0.87842zm-0.613831 1.14299q-0.317499 0-0.518582 0.22225t-0.201083 0.58208q0 0.34925 0.1905 0.56092 0.201082 0.20108 0.529165 0.20108 0.317499 0 0.507998-0.21166 0.201083-0.22225 0.201083-0.58209 0-0.32808-0.201083-0.55033t-0.507998-0.22225z"/>
   <path d="m-52.54359 206.0442v-5.34457h2.539992l-0.09525 0.91017q0.0635-0.0953 0.137583-0.20109 0.08467-0.10583 0.127-0.14816 0.634998-0.6985 1.492245-0.6985t1.354662 0.55033 0.497415 1.50283v3.42899h-2.582325v-2.86808q0-0.0952-0.02117-0.21166-0.02117-0.127-0.137583-0.21167-0.105833-0.0847-0.253999-0.0847-0.455082 0-0.455082 0.67733v2.69874z"/>
  </g>
  <path d="m47.88442 6.739915v0.016007h-1.194757l-46.68966 74.5293h17.15968l30.6617-50.82325h0.06304v10.8722h-3.353284c-3.100729 0-5.597072 2.496347-5.597072 5.597076v6.929294c0 3.100729 2.496343 5.596557 5.597072 5.596557h17.52245v-52.7172z" style="paint-order:markers stroke fill"/>
 </g>
</svg>
