<?xml version="1.0" encoding="UTF-8" standalone="no"?>
<svg
   xmlns:dc="http://purl.org/dc/elements/1.1/"
   xmlns:cc="http://creativecommons.org/ns#"
   xmlns:rdf="http://www.w3.org/1999/02/22-rdf-syntax-ns#"
   xmlns:svg="http://www.w3.org/2000/svg"
   xmlns="http://www.w3.org/2000/svg"
   viewBox="0 0 295.82718 283.03253"
   height="283.03253"
   width="295.82718"
   xml:space="preserve"
   id="svg2"
   version="1.1"><metadata
     id="metadata8"><rdf:RDF><cc:Work
         rdf:about=""><dc:format>image/svg+xml</dc:format><dc:type
           rdf:resource="http://purl.org/dc/dcmitype/StillImage" /><dc:title></dc:title></cc:Work></rdf:RDF></metadata><defs
     id="defs6"><clipPath
       id="clipPath18"
       clipPathUnits="userSpaceOnUse"><path
         id="path16"
         d="M 0,283.465 H 283.465 V 0 H 0 Z" /></clipPath></defs><g
     transform="matrix(1.3333333,0,0,-1.3333333,-47.435465,330.49266)"
     id="g10"><g
       id="g12"><g
         clip-path="url(#clipPath18)"
         id="g14"><g
           transform="translate(208.167,240.8708)"
           id="g20"><path
             id="path22"
             style="fill:#ffffff;fill-opacity:1;fill-rule:nonzero;stroke:none"
             d="m 0,0 c -7.178,-2.995 -47.207,-19.74 -47.207,-19.74 l -40.585,-0.123 c 0,0 -40.067,16.762 -47.218,19.756 3.172,-7.331 24.768,-57.07 24.768,-57.07 0,0 -7.551,-12.637 -8.446,-14.18 0.873,-1.75 47.905,-95.367 50.978,-101.506 3.102,6.121 50.521,99.881 51.394,101.619 -0.927,1.54 -8.465,14.282 -8.465,14.282 0,0 21.576,49.632 24.781,56.962" /></g><g
           transform="translate(140.4502,68.0075)"
           id="g24"><path
             id="path26"
             style="fill:#ffffff;fill-opacity:1;fill-rule:nonzero;stroke:none"
             d="m 0,0 c -3.072,6.14 -50.104,99.756 -50.976,101.506 0.905,1.543 8.445,14.18 8.445,14.18 0,0 -21.596,49.739 -24.759,57.07 C -60.135,169.762 -20.083,153 -20.083,153 l 40.588,0.124 c 0,0 40.041,16.744 47.205,19.739 -3.202,-7.33 -24.781,-56.962 -24.781,-56.962 0,0 7.552,-12.742 8.477,-14.282 C 50.52,99.881 3.113,6.121 0,0 m 74.791,179.862 c 0,0 -54.375,-22.746 -55.038,-23.03 -0.716,0 -38.355,-0.107 -39.101,-0.107 -0.675,0.279 -55.027,23.02 -55.027,23.02 0,0 26.95,-62.094 27.681,-63.786 -0.86,-1.446 -8.538,-14.299 -8.538,-14.299 L -0.006,-8.249 55.635,101.76 c 0,0 -7.675,12.95 -8.537,14.402 0.724,1.701 27.693,63.7 27.693,63.7" /></g><g
           transform="translate(193.9736,169.697)"
           id="g28"><path
             id="path30"
             style="fill:#1d1d1b;fill-opacity:1;fill-rule:nonzero;stroke:none"
             d="m 0,0 -8.507,14.336 26.245,60.336 -51.132,-21.397 -39.852,-0.101 -51.119,21.38 26.245,-60.421 -8.511,-14.246 53.108,-105.692 z" /></g><g
           transform="translate(140.6748,75.0261)"
           id="g32"><path
             id="path34"
             style="fill:#ffdd00;fill-opacity:1;fill-rule:nonzero;stroke:none"
             d="m 0,0 45.551,94.416 -23.322,34.52 24.064,22.899 -25.847,-9.969 -40.913,-0.119 -26.008,9.904 24.228,-22.817 -23.327,-34.536 45.552,-94.419" /></g><g
           transform="translate(108.8667,203.9968)"
           id="g36"><path
             id="path38"
             style="fill:#ffffff;fill-opacity:1;fill-rule:nonzero;stroke:none"
             d="M 0,0 -7.875,-11.62 -23.369,22.075 Z" /></g><g
           transform="translate(172.4795,203.9968)"
           id="g40"><path
             id="path42"
             style="fill:#ffffff;fill-opacity:1;fill-rule:nonzero;stroke:none"
             d="M 0,0 7.87,-11.62 23.38,22.075 Z" /></g><g
           transform="translate(105.6704,167.657)"
           id="g44"><path
             id="path46"
             style="fill:#1d1d1b;fill-opacity:1;fill-rule:nonzero;stroke:none"
             d="M 0,0 11.851,-8.725 30.274,-63.919 20.154,-0.076 Z" /></g><g
           transform="translate(176.4062,168.1208)"
           id="g48"><path
             id="path50"
             style="fill:#1d1d1b;fill-opacity:1;fill-rule:nonzero;stroke:none"
             d="m 0,0 -11.851,-8.726 -18.464,-55.189 10.142,63.837 z" /></g><g
           transform="translate(68.1816,35.9841)"
           id="g52"><path
             id="path54"
             style="fill:#1d1d1b;fill-opacity:1;fill-rule:nonzero;stroke:none"
             d="m 0,0 c 0,-0.267 -0.179,-0.389 -0.595,-0.389 h -21.859 c -2.981,0 -5.43,0.993 -7.327,3.039 -1.88,1.944 -2.824,4.446 -2.824,7.474 0,3.064 0.93,5.594 2.795,7.573 1.853,1.966 4.301,2.945 7.356,2.945 H -0.595 C -0.179,20.642 0,20.514 0,20.234 v -2.851 c 0,-0.247 -0.179,-0.355 -0.595,-0.355 h -14.68 c -1.493,0 -2.509,-0.47 -3.026,-1.369 -0.389,-0.626 -0.612,-1.795 -0.612,-3.432 V 8.858 c 0,-1.712 0.213,-2.983 0.589,-3.798 0.514,-1.233 1.556,-1.838 3.049,-1.838 h 14.68 C -0.179,3.222 0,3.096 0,2.814 Z" /></g><g
           transform="translate(92.7686,44.8425)"
           id="g56"><path
             id="path58"
             style="fill:#1d1d1b;fill-opacity:1;fill-rule:nonzero;stroke:none"
             d="M 0,0 V 3.368 C 0,5.006 -0.192,6.175 -0.569,6.801 -1.099,7.699 -2.126,8.17 -3.603,8.17 H -6.449 C -7.859,8.17 -8.83,7.674 -9.295,6.711 -9.655,6.075 -9.857,4.961 -9.857,3.368 V 0 c 0,-1.696 0.194,-2.943 0.539,-3.735 0.488,-1.27 1.459,-1.902 2.869,-1.902 h 2.846 c 1.477,0 2.52,0.606 3.074,1.838 C -0.163,-3.001 0,-1.727 0,0 m 13.694,1.266 c 0,-2.993 -0.938,-5.531 -2.822,-7.519 C 8.963,-8.254 6.556,-9.247 3.55,-9.247 h -16.598 c -3,0 -5.43,0.993 -7.309,2.994 -1.897,1.988 -2.858,4.526 -2.858,7.519 0,3.064 0.946,5.593 2.794,7.573 1.853,1.955 4.322,2.944 7.373,2.944 H 3.55 c 3.025,0 5.489,-0.989 7.363,-2.944 1.843,-1.98 2.781,-4.509 2.781,-7.573" /></g><g
           transform="translate(143.1875,56.2702)"
           id="g60"><path
             id="path62"
             style="fill:#1d1d1b;fill-opacity:1;fill-rule:nonzero;stroke:none"
             d="m 0,0 c 0,-0.093 -0.05,-0.188 -0.142,-0.296 l -12.727,-11.222 v -8.768 c 0,-0.267 -0.18,-0.389 -0.573,-0.389 h -11.595 c -0.41,0 -0.606,0.122 -0.606,0.389 v 8.63 l -12.812,11.36 c -0.088,0.108 -0.137,0.203 -0.137,0.296 0,0.244 0.202,0.355 0.644,0.355 h 14.478 c 0.195,0 0.356,-0.065 0.462,-0.152 l 8.85,-7.889 8.841,7.889 c 0.13,0.087 0.267,0.152 0.472,0.152 h 4.218 C -0.197,0.355 0,0.244 0,0" /></g><g
           transform="translate(164.5527,44.8425)"
           id="g64"><path
             id="path66"
             style="fill:#1d1d1b;fill-opacity:1;fill-rule:nonzero;stroke:none"
             d="M 0,0 V 3.368 C 0,5.006 -0.203,6.175 -0.585,6.801 -1.126,7.699 -2.128,8.17 -3.613,8.17 h -2.864 c -1.4,0 -2.355,-0.496 -2.836,-1.459 -0.36,-0.636 -0.53,-1.75 -0.53,-3.343 V 0 c 0,-1.696 0.17,-2.943 0.475,-3.735 0.518,-1.27 1.491,-1.902 2.891,-1.902 h 2.864 c 1.485,0 2.513,0.606 3.068,1.838 C -0.178,-3.001 0,-1.727 0,0 m 13.693,1.266 c 0,-2.993 -0.97,-5.531 -2.856,-7.519 C 8.97,-8.254 6.524,-9.247 3.534,-9.247 h -16.616 c -2.976,0 -5.422,0.993 -7.322,2.994 -1.884,1.988 -2.824,4.526 -2.824,7.519 0,3.064 0.933,5.593 2.791,7.573 1.861,1.955 4.324,2.944 7.355,2.944 H 3.534 c 3.04,0 5.495,-0.989 7.362,-2.944 1.86,-1.98 2.797,-4.509 2.797,-7.573" /></g><g
           transform="translate(211.6641,53.3669)"
           id="g68"><path
             id="path70"
             style="fill:#1d1d1b;fill-opacity:1;fill-rule:nonzero;stroke:none"
             d="m 0,0 c 0,-0.247 -0.18,-0.354 -0.585,-0.354 h -9.332 v -17.029 c 0,-0.266 -0.202,-0.388 -0.584,-0.388 h -11.597 c -0.408,0 -0.622,0.122 -0.622,0.388 v 17.029 h -8.985 c -0.384,0 -0.606,0.107 -0.606,0.354 v 2.852 c 0,0.279 0.222,0.407 0.606,0.407 h 31.12 C -0.18,3.259 0,3.131 0,2.852 Z" /></g><g
           transform="translate(245.7393,45.6101)"
           id="g72"><path
             id="path74"
             style="fill:#1d1d1b;fill-opacity:1;fill-rule:nonzero;stroke:none"
             d="m 0,0 c 0,-0.278 -0.181,-0.401 -0.579,-0.401 h -15.504 c -0.416,0 -0.598,0.123 -0.598,0.401 v 2.854 c 0,0.27 0.182,0.421 0.598,0.421 H -0.579 C -0.181,3.275 0,3.124 0,2.854 Z m 0,-9.626 c 0,-0.267 -0.181,-0.389 -0.579,-0.389 h -21.882 c -3.007,0 -5.479,0.994 -7.356,3.039 -1.873,1.944 -2.781,4.446 -2.781,7.474 0,3.065 0.908,5.582 2.781,7.573 1.862,1.955 4.323,2.945 7.356,2.945 H -0.579 C -0.181,11.016 0,10.888 0,10.608 V 7.757 C 0,7.51 -0.181,7.402 -0.579,7.402 h -14.697 c -1.507,0 -2.544,-0.47 -3.026,-1.369 -0.384,-0.626 -0.594,-1.795 -0.594,-3.432 v -3.369 c 0,-1.712 0.187,-2.983 0.554,-3.798 0.547,-1.233 1.566,-1.838 3.066,-1.838 H -0.579 C -0.181,-6.404 0,-6.53 0,-6.812 Z" /></g><g
           transform="translate(251.168,62.4236)"
           id="g76"><path
             id="path78"
             style="fill:#1d1d1b;fill-opacity:1;fill-rule:nonzero;stroke:none"
             d="M 0,0 C 0.22,0.025 0.435,0.046 0.642,0.063 0.849,0.08 1.076,0.089 1.322,0.089 1.627,0.089 1.906,0.06 2.16,0 2.415,-0.06 2.634,-0.148 2.816,-0.268 2.998,-0.386 3.141,-0.542 3.249,-0.737 3.354,-0.933 3.406,-1.161 3.406,-1.424 3.406,-1.805 3.313,-2.112 3.127,-2.346 2.94,-2.579 2.737,-2.75 2.517,-2.86 L 3.851,-4.882 C 3.732,-4.898 3.625,-4.909 3.528,-4.913 3.431,-4.918 3.336,-4.92 3.242,-4.92 c -0.178,0 -0.343,0.013 -0.496,0.038 l -1.45,2.264 0.254,0.114 c 0.205,0.093 0.397,0.218 0.579,0.375 0.183,0.156 0.273,0.358 0.273,0.604 0,0.245 -0.089,0.436 -0.266,0.572 C 1.958,-0.818 1.724,-0.75 1.437,-0.75 1.368,-0.75 1.296,-0.752 1.221,-0.757 1.145,-0.761 1.06,-0.771 0.967,-0.788 V -4.894 C 0.838,-4.92 0.681,-4.932 0.495,-4.932 0.317,-4.932 0.153,-4.92 0,-4.894 Z m 1.564,-6.432 c 0.592,0 1.122,0.102 1.589,0.305 0.466,0.203 0.862,0.479 1.188,0.826 0.327,0.348 0.575,0.758 0.749,1.234 0.174,0.473 0.261,0.987 0.261,1.538 0,0.542 -0.087,1.05 -0.261,1.525 C 4.916,-0.53 4.668,-0.119 4.341,0.229 4.015,0.576 3.619,0.852 3.153,1.055 2.686,1.258 2.156,1.36 1.564,1.36 0.979,1.36 0.451,1.258 -0.019,1.055 -0.49,0.852 -0.885,0.576 -1.208,0.229 -1.53,-0.119 -1.777,-0.53 -1.951,-1.004 c -0.173,-0.475 -0.26,-0.983 -0.26,-1.525 0,-0.551 0.087,-1.065 0.26,-1.538 0.174,-0.476 0.421,-0.886 0.743,-1.234 0.323,-0.347 0.718,-0.623 1.189,-0.826 0.47,-0.203 0.998,-0.305 1.583,-0.305 m 0,-0.826 c -0.705,0 -1.346,0.12 -1.925,0.362 -0.582,0.242 -1.078,0.572 -1.489,0.992 -0.411,0.419 -0.73,0.917 -0.96,1.493 -0.228,0.576 -0.342,1.203 -0.342,1.882 0,0.669 0.114,1.294 0.342,1.875 0.23,0.58 0.549,1.08 0.96,1.5 0.411,0.419 0.907,0.75 1.489,0.991 0.579,0.241 1.22,0.362 1.925,0.362 0.702,0 1.345,-0.119 1.924,-0.356 0.582,-0.238 1.076,-0.568 1.489,-0.991 0.411,-0.424 0.73,-0.924 0.96,-1.5 0.229,-0.577 0.342,-1.204 0.342,-1.881 0,-0.679 -0.113,-1.306 -0.342,-1.882 C 5.707,-4.987 5.388,-5.485 4.977,-5.904 4.564,-6.324 4.07,-6.654 3.488,-6.896 2.909,-7.138 2.266,-7.258 1.564,-7.258" /></g></g></g><g
       id="g947"><g
         id="g945"
         clip-path="url(#clipPath18)"><g
           id="g887"
           transform="translate(208.167,240.8708)"><path
             d="m 0,0 c -7.178,-2.995 -47.207,-19.74 -47.207,-19.74 l -40.585,-0.123 c 0,0 -40.067,16.762 -47.218,19.756 3.172,-7.331 24.768,-57.07 24.768,-57.07 0,0 -7.551,-12.637 -8.446,-14.18 0.873,-1.75 47.905,-95.367 50.978,-101.506 3.102,6.121 50.521,99.881 51.394,101.619 -0.927,1.54 -8.465,14.282 -8.465,14.282 0,0 21.576,49.632 24.781,56.962"
             style="fill:#ffffff;fill-opacity:1;fill-rule:nonzero;stroke:none"
             id="path885" /></g><g
           id="g891"
           transform="translate(140.4502,68.0075)"><path
             d="m 0,0 c -3.072,6.14 -50.104,99.756 -50.976,101.506 0.905,1.543 8.445,14.18 8.445,14.18 0,0 -21.596,49.739 -24.759,57.07 C -60.135,169.762 -20.083,153 -20.083,153 l 40.588,0.124 c 0,0 40.041,16.744 47.205,19.739 -3.202,-7.33 -24.781,-56.962 -24.781,-56.962 0,0 7.552,-12.742 8.477,-14.282 C 50.52,99.881 3.113,6.121 0,0 m 74.791,179.862 c 0,0 -54.375,-22.746 -55.038,-23.03 -0.716,0 -38.355,-0.107 -39.101,-0.107 -0.675,0.279 -55.027,23.02 -55.027,23.02 0,0 26.95,-62.094 27.681,-63.786 -0.86,-1.446 -8.538,-14.299 -8.538,-14.299 L -0.006,-8.249 55.635,101.76 c 0,0 -7.675,12.95 -8.537,14.402 0.724,1.701 27.693,63.7 27.693,63.7"
             style="fill:#ffffff;fill-opacity:1;fill-rule:nonzero;stroke:none"
             id="path889" /></g><g
           id="g895"
           transform="translate(193.9736,169.697)"><path
             d="m 0,0 -8.507,14.336 26.245,60.336 -51.132,-21.397 -39.852,-0.101 -51.119,21.38 26.245,-60.421 -8.511,-14.246 53.108,-105.692 z"
             style="fill:#1d1d1b;fill-opacity:1;fill-rule:nonzero;stroke:none"
             id="path893" /></g><g
           id="g899"
           transform="translate(140.6748,75.0261)"><path
             d="m 0,0 45.551,94.416 -23.322,34.52 24.064,22.899 -25.847,-9.969 -40.913,-0.119 -26.008,9.904 24.228,-22.817 -23.327,-34.536 45.552,-94.419"
             style="fill:#ffdd00;fill-opacity:1;fill-rule:nonzero;stroke:none"
             id="path897" /></g><g
           id="g903"
           transform="translate(108.8667,203.9968)"><path
             d="M 0,0 -7.875,-11.62 -23.369,22.075 Z"
             style="fill:#ffffff;fill-opacity:1;fill-rule:nonzero;stroke:none"
             id="path901" /></g><g
           id="g907"
           transform="translate(172.4795,203.9968)"><path
             d="M 0,0 7.87,-11.62 23.38,22.075 Z"
             style="fill:#ffffff;fill-opacity:1;fill-rule:nonzero;stroke:none"
             id="path905" /></g><g
           id="g911"
           transform="translate(105.6704,167.657)"><path
             d="M 0,0 11.851,-8.725 30.274,-63.919 20.154,-0.076 Z"
             style="fill:#1d1d1b;fill-opacity:1;fill-rule:nonzero;stroke:none"
             id="path909" /></g><g
           id="g915"
           transform="translate(176.4062,168.1208)"><path
             d="m 0,0 -11.851,-8.726 -18.464,-55.189 10.142,63.837 z"
             style="fill:#1d1d1b;fill-opacity:1;fill-rule:nonzero;stroke:none"
             id="path913" /></g><g
           id="g919"
           transform="translate(68.1816,35.9841)"><path
             d="m 0,0 c 0,-0.267 -0.179,-0.389 -0.595,-0.389 h -21.859 c -2.981,0 -5.43,0.993 -7.327,3.039 -1.88,1.944 -2.824,4.446 -2.824,7.474 0,3.064 0.93,5.594 2.795,7.573 1.853,1.966 4.301,2.945 7.356,2.945 H -0.595 C -0.179,20.642 0,20.514 0,20.234 v -2.851 c 0,-0.247 -0.179,-0.355 -0.595,-0.355 h -14.68 c -1.493,0 -2.509,-0.47 -3.026,-1.369 -0.389,-0.626 -0.612,-1.795 -0.612,-3.432 V 8.858 c 0,-1.712 0.213,-2.983 0.589,-3.798 0.514,-1.233 1.556,-1.838 3.049,-1.838 h 14.68 C -0.179,3.222 0,3.096 0,2.814 Z"
             style="fill:#1d1d1b;fill-opacity:1;fill-rule:nonzero;stroke:none"
             id="path917" /></g><g
           id="g923"
           transform="translate(92.7686,44.8425)"><path
             d="M 0,0 V 3.368 C 0,5.006 -0.192,6.175 -0.569,6.801 -1.099,7.699 -2.126,8.17 -3.603,8.17 H -6.449 C -7.859,8.17 -8.83,7.674 -9.295,6.711 -9.655,6.075 -9.857,4.961 -9.857,3.368 V 0 c 0,-1.696 0.194,-2.943 0.539,-3.735 0.488,-1.27 1.459,-1.902 2.869,-1.902 h 2.846 c 1.477,0 2.52,0.606 3.074,1.838 C -0.163,-3.001 0,-1.727 0,0 m 13.694,1.266 c 0,-2.993 -0.938,-5.531 -2.822,-7.519 C 8.963,-8.254 6.556,-9.247 3.55,-9.247 h -16.598 c -3,0 -5.43,0.993 -7.309,2.994 -1.897,1.988 -2.858,4.526 -2.858,7.519 0,3.064 0.946,5.593 2.794,7.573 1.853,1.955 4.322,2.944 7.373,2.944 H 3.55 c 3.025,0 5.489,-0.989 7.363,-2.944 1.843,-1.98 2.781,-4.509 2.781,-7.573"
             style="fill:#1d1d1b;fill-opacity:1;fill-rule:nonzero;stroke:none"
             id="path921" /></g><g
           id="g927"
           transform="translate(143.1875,56.2702)"><path
             d="m 0,0 c 0,-0.093 -0.05,-0.188 -0.142,-0.296 l -12.727,-11.222 v -8.768 c 0,-0.267 -0.18,-0.389 -0.573,-0.389 h -11.595 c -0.41,0 -0.606,0.122 -0.606,0.389 v 8.63 l -12.812,11.36 c -0.088,0.108 -0.137,0.203 -0.137,0.296 0,0.244 0.202,0.355 0.644,0.355 h 14.478 c 0.195,0 0.356,-0.065 0.462,-0.152 l 8.85,-7.889 8.841,7.889 c 0.13,0.087 0.267,0.152 0.472,0.152 h 4.218 C -0.197,0.355 0,0.244 0,0"
             style="fill:#1d1d1b;fill-opacity:1;fill-rule:nonzero;stroke:none"
             id="path925" /></g><g
           id="g931"
           transform="translate(164.5527,44.8425)"><path
             d="M 0,0 V 3.368 C 0,5.006 -0.203,6.175 -0.585,6.801 -1.126,7.699 -2.128,8.17 -3.613,8.17 h -2.864 c -1.4,0 -2.355,-0.496 -2.836,-1.459 -0.36,-0.636 -0.53,-1.75 -0.53,-3.343 V 0 c 0,-1.696 0.17,-2.943 0.475,-3.735 0.518,-1.27 1.491,-1.902 2.891,-1.902 h 2.864 c 1.485,0 2.513,0.606 3.068,1.838 C -0.178,-3.001 0,-1.727 0,0 m 13.693,1.266 c 0,-2.993 -0.97,-5.531 -2.856,-7.519 C 8.97,-8.254 6.524,-9.247 3.534,-9.247 h -16.616 c -2.976,0 -5.422,0.993 -7.322,2.994 -1.884,1.988 -2.824,4.526 -2.824,7.519 0,3.064 0.933,5.593 2.791,7.573 1.861,1.955 4.324,2.944 7.355,2.944 H 3.534 c 3.04,0 5.495,-0.989 7.362,-2.944 1.86,-1.98 2.797,-4.509 2.797,-7.573"
             style="fill:#1d1d1b;fill-opacity:1;fill-rule:nonzero;stroke:none"
             id="path929" /></g><g
           id="g935"
           transform="translate(211.6641,53.3669)"><path
             d="m 0,0 c 0,-0.247 -0.18,-0.354 -0.585,-0.354 h -9.332 v -17.029 c 0,-0.266 -0.202,-0.388 -0.584,-0.388 h -11.597 c -0.408,0 -0.622,0.122 -0.622,0.388 v 17.029 h -8.985 c -0.384,0 -0.606,0.107 -0.606,0.354 v 2.852 c 0,0.279 0.222,0.407 0.606,0.407 h 31.12 C -0.18,3.259 0,3.131 0,2.852 Z"
             style="fill:#1d1d1b;fill-opacity:1;fill-rule:nonzero;stroke:none"
             id="path933" /></g><g
           id="g939"
           transform="translate(245.7393,45.6101)"><path
             d="m 0,0 c 0,-0.278 -0.181,-0.401 -0.579,-0.401 h -15.504 c -0.416,0 -0.598,0.123 -0.598,0.401 v 2.854 c 0,0.27 0.182,0.421 0.598,0.421 H -0.579 C -0.181,3.275 0,3.124 0,2.854 Z m 0,-9.626 c 0,-0.267 -0.181,-0.389 -0.579,-0.389 h -21.882 c -3.007,0 -5.479,0.994 -7.356,3.039 -1.873,1.944 -2.781,4.446 -2.781,7.474 0,3.065 0.908,5.582 2.781,7.573 1.862,1.955 4.323,2.945 7.356,2.945 H -0.579 C -0.181,11.016 0,10.888 0,10.608 V 7.757 C 0,7.51 -0.181,7.402 -0.579,7.402 h -14.697 c -1.507,0 -2.544,-0.47 -3.026,-1.369 -0.384,-0.626 -0.594,-1.795 -0.594,-3.432 v -3.369 c 0,-1.712 0.187,-2.983 0.554,-3.798 0.547,-1.233 1.566,-1.838 3.066,-1.838 H -0.579 C -0.181,-6.404 0,-6.53 0,-6.812 Z"
             style="fill:#1d1d1b;fill-opacity:1;fill-rule:nonzero;stroke:none"
             id="path937" /></g><g
           id="g943"
           transform="translate(251.168,62.4236)"><path
             d="M 0,0 C 0.22,0.025 0.435,0.046 0.642,0.063 0.849,0.08 1.076,0.089 1.322,0.089 1.627,0.089 1.906,0.06 2.16,0 2.415,-0.06 2.634,-0.148 2.816,-0.268 2.998,-0.386 3.141,-0.542 3.249,-0.737 3.354,-0.933 3.406,-1.161 3.406,-1.424 3.406,-1.805 3.313,-2.112 3.127,-2.346 2.94,-2.579 2.737,-2.75 2.517,-2.86 L 3.851,-4.882 C 3.732,-4.898 3.625,-4.909 3.528,-4.913 3.431,-4.918 3.336,-4.92 3.242,-4.92 c -0.178,0 -0.343,0.013 -0.496,0.038 l -1.45,2.264 0.254,0.114 c 0.205,0.093 0.397,0.218 0.579,0.375 0.183,0.156 0.273,0.358 0.273,0.604 0,0.245 -0.089,0.436 -0.266,0.572 C 1.958,-0.818 1.724,-0.75 1.437,-0.75 1.368,-0.75 1.296,-0.752 1.221,-0.757 1.145,-0.761 1.06,-0.771 0.967,-0.788 V -4.894 C 0.838,-4.92 0.681,-4.932 0.495,-4.932 0.317,-4.932 0.153,-4.92 0,-4.894 Z m 1.564,-6.432 c 0.592,0 1.122,0.102 1.589,0.305 0.466,0.203 0.862,0.479 1.188,0.826 0.327,0.348 0.575,0.758 0.749,1.234 0.174,0.473 0.261,0.987 0.261,1.538 0,0.542 -0.087,1.05 -0.261,1.525 C 4.916,-0.53 4.668,-0.119 4.341,0.229 4.015,0.576 3.619,0.852 3.153,1.055 2.686,1.258 2.156,1.36 1.564,1.36 0.979,1.36 0.451,1.258 -0.019,1.055 -0.49,0.852 -0.885,0.576 -1.208,0.229 -1.53,-0.119 -1.777,-0.53 -1.951,-1.004 c -0.173,-0.475 -0.26,-0.983 -0.26,-1.525 0,-0.551 0.087,-1.065 0.26,-1.538 0.174,-0.476 0.421,-0.886 0.743,-1.234 0.323,-0.347 0.718,-0.623 1.189,-0.826 0.47,-0.203 0.998,-0.305 1.583,-0.305 m 0,-0.826 c -0.705,0 -1.346,0.12 -1.925,0.362 -0.582,0.242 -1.078,0.572 -1.489,0.992 -0.411,0.419 -0.73,0.917 -0.96,1.493 -0.228,0.576 -0.342,1.203 -0.342,1.882 0,0.669 0.114,1.294 0.342,1.875 0.23,0.58 0.549,1.08 0.96,1.5 0.411,0.419 0.907,0.75 1.489,0.991 0.579,0.241 1.22,0.362 1.925,0.362 0.702,0 1.345,-0.119 1.924,-0.356 0.582,-0.238 1.076,-0.568 1.489,-0.991 0.411,-0.424 0.73,-0.924 0.96,-1.5 0.229,-0.577 0.342,-1.204 0.342,-1.881 0,-0.679 -0.113,-1.306 -0.342,-1.882 C 5.707,-4.987 5.388,-5.485 4.977,-5.904 4.564,-6.324 4.07,-6.654 3.488,-6.896 2.909,-7.138 2.266,-7.258 1.564,-7.258"
             style="fill:#1d1d1b;fill-opacity:1;fill-rule:nonzero;stroke:none"
             id="path941" /></g></g></g></g></svg>