<?xml version="1.0" encoding="UTF-8"?>
<!-- Created with Inkscape (http://www.inkscape.org/) -->
<svg width="1160.8" height="454.06" version="1.1" viewBox="0 0 1160.8 454.06" xmlns="http://www.w3.org/2000/svg">
 <g>
  <path d="m0 361.25h16.927v92.812h-16.927z"/>
  <path d="m504.11 361.25h17.188v92.812h-17.188z"/>
  <path d="m329.11 454.06v-92.812h70.104v12.292h-53.177v28.177h37.969v13.229h-37.969v39.115z"/>
  <path d="m989.69 454.06v-80.521h-31.979v-12.292h81.042v12.292h-32.136v80.521z"/>
  <path d="m834.58 361.25h17.864v92.812h-17.864z"/>
  <path d="m1143.9 361.25h16.927v92.812h-16.927z"/>
  <path d="m706.25 454.06-53.958-66.302v66.302h-15.885v-92.812h12.969l53.958 65.625v-65.625h16.094v92.812z"/>
  <path d="m202.14 454.06-53.281-66.302v66.302h-16.927v-92.812h12.917l54.219 65.625v-65.625h15.99v92.812z"/>
  <path d="m580.21 5.9374c-114.06 0-206.04 48.386-206.04 105.73 0 32.188 37.969 57.344 95.26 71.615l98.906-119.01h11.875l-85.99 173.39c-92.969-17.24-160.16-60.677-160.16-114.06 0-68.281 110.21-123.59 246.15-123.59 136.3 0 246.51 55.312 246.51 123.59 0 53.386-67.187 96.823-160.47 114.06l-86.042-173.39h13.177l99.01 119.01c56.25-14.271 94.219-39.427 94.219-71.615 0-57.344-92.24-105.73-206.41-105.73z"/>
 </g>
</svg>
