<svg height="361.916377" viewBox="0 0 918.85052 1204.2888" width="276.306922" xmlns="http://www.w3.org/2000/svg"><g transform="translate(-62.91853 -28.910581)"><g fill="#adadad"><path d="m459.32 29.46c13.55-.27 27.11-.14 40.67-.13 20.32-.77 40.69-.21 61.04-.38 13.29.79 26.62-.03 39.91.68 12.71.02 25.39.9 38.11.66 14.3.17 28.59 1.16 42.9 1.02 12.36.18 24.68 1.31 37.05.98 13.64 1.03 27.34.81 40.99 1.74 33.9 1.22 67.76 3.09 101.57 5.69 22.89 2.35 46.44 3.33 68.15 11.76 10.49 4.23 20.65 10.12 28.07 18.81 7.32 7.1 12.05 16.39 15.78 25.76 8.67 24.97 8.39 51.82 8.11 77.92-2.24 56.84-6.89 113.54-12.47 170.12-5.22 50.14-11.45 100.19-19.34 149.98-12.82 80.45-24.11 161.22-41.14 240.92-9.74 46.85-21.52 93.28-35.73 138.98-2.65 9.48-6.44 18.58-9.09 28.06-9.72 29.33-18.86 58.87-28.67 88.19-1.03 4.39-3.37 8.35-4.24 12.79-9.71 29.37-20.44 58.41-31.77 87.19-4.77 10.57-8.6 21.55-13.77 31.95-2.84 7.37-6.69 14.27-9.82 21.51-5.23 10.04-9.61 20.56-15.94 30-9.75 15.05-23.61 27.23-39.32 35.77-16.83 9.23-35.54 14.71-54.48 17.53-13.48 2.58-27.23 2.57-40.86 3.71-12.33-.13-24.63 1.33-36.96.98-28.36 1.03-56.74 1.11-85.11 1.02-25 .17-49.98-1-74.97-1.01-23.66-1-47.35-1.2-70.97-2.91-18-.51-35.75-5.18-51.99-12.89-15.16-7.96-28.91-18.79-39.36-32.43-12.72-15.58-21.08-34.06-28.51-52.59-10.69-25.01-20.75-50.28-30.41-75.71-2.52-8.61-6.75-16.58-9.16-25.23-6.24-16.25-11.58-32.81-17.12-49.31-22.56-67.62-40.29-136.78-54.62-206.59-24.2-116.79-39.18-235.32-49.56-354.03-4.16-48.59-7.57-97.23-9.9-145.96-.17-9.37-1.28-18.71-1.11-28.08-.52-10.66-1.24-21.32-.95-31.99-.93-10.63-.27-21.3-1.01-31.93-.22-14.03.33-28.04 1-42.04 1.49-18.34 7.37-36.48 18.09-51.53 5.2-7.98 12.08-14.69 19.19-20.96 16.49-13.18 36.26-22.49 57.19-25.68 14.36-1.46 28.74-2.36 43.15-3.33 7.71-.03 15.33-1.42 23.06-1.22 9.33-1.05 18.74-.54 28.06-1.64 12.63-.11 25.22-1.33 37.85-1.38 15-1.05 30.05-.91 45.06-1.92 15.04.23 30.04-1.34 45.08-.99 26.08-1.23 52.18-.98 78.27-1.86m20.1 7.12c-53.16.68-106.31 1.89-159.45 3.73-52.52 2.01-105.08 3.9-157.45 8.45-22.2 2.77-43.51 12.65-60.06 27.69-14.16 12.81-24.32 29.96-28.47 48.62-3.3 13.39-2.74 27.27-3.24 40.94-.1 14.65.31 29.3.54 43.95 2.34 85.83 8.35 171.54 16.68 256.99 9.45 95.88 22.35 191.5 41.06 286.04 15.61 79.07 35.3 157.43 61.17 233.81 17.35 51.89 37.17 102.94 58.71 153.23 6.6 15.47 14.86 30.38 25.92 43.13 14.32 16.71 33.82 28.8 55.16 34.19 16.61 4.6 33.95 4.47 51.02 5.4 28.64 1.21 57.29 1.65 85.93 2.26 55.03.53 110.1.54 165.09-2.15 18.21-.83 36.5-2.73 54.1-7.65 21.69-5.82 42.61-16.46 57.9-33.19 13.32-14.26 20.54-32.71 29.02-49.96 27.41-58.62 47.61-120.22 67.51-181.69 11.92-37.83 25.18-75.26 35.8-113.49 28.15-99.19 44.25-201.22 59.86-302.97 5.27-33.62 10.76-67.21 15.16-100.95 9.9-74.68 17.04-149.73 21.35-224.93 1.17-24 2.75-48.06 1.01-72.06-1.26-16.62-3.93-33.66-12.03-48.45-6.66-12.38-17.85-21.91-30.64-27.52-17.93-8.08-37.78-9.82-57.1-11.81-51.05-4.69-102.31-6.55-153.53-8.36-40.82-1.28-81.65-2.26-122.48-2.92-39.5-.98-79.03-.71-118.54-.33z"/><path d="m338.59 126.77c13.19-1.74 27.23-.69 39.26 5.38 7.13 3.59 13.46 9.26 16.54 16.77 4.02 10.3 3 22.77-3.73 31.73-7.36 10.05-19.45 15.73-31.57 17.43-12.29 1.59-25.17.65-36.62-4.35-8.59-4.01-16.25-11.03-19.09-20.29-3.11-10.46-1.53-22.69 5.71-31.13 7.25-8.88 18.3-13.93 29.5-15.54m3.94 5c-5.76.85-11.57 2.84-16.1 6.57-14.4 11.49-15.01 37.01.1 48.18 6.22 5.13 14.45 7.29 22.43 7.01 8.66.18 17.75-2.23 24.09-8.38 6.47-5.39 9.89-13.73 9.97-22.06.36-8.71-2.15-18.17-9.03-23.98-8.67-7.12-20.62-8.97-31.46-7.34z"/><path d="m151.68 127.4c4.78-.41 9.57.16 14.36.13 9.29-.04 18.72-1.11 27.89.8 4.96.99 9.66 3.82 12.34 8.18 2.52 4.65 2 10.56-.61 15.06-5.1 7.34-14.25 10.22-22.77 10.99 7.76 9.06 16.7 17.06 24.99 25.64 2.95 3.25 6.93 5.59 9.27 9.34-5.55-.18-11.1-.18-16.65-.04-10.39-11.83-21.44-23.1-32.87-33.91-1.1.05-2.21.1-3.31.14.26 11.24-.16 22.51 1.01 33.71-4.54-.02-9.08-.13-13.61.11 1.05-12.82.58-25.68 1.06-38.51-.16-10.56.45-21.16-1.1-31.64m13.05 6.21c-.49 8.09.09 16.2-.6 24.28 8.26.33 17.07-.13 24.47-4.16 5.84-3.05 8.09-12.51 2.11-16.54-7.68-4.81-17.31-4.09-25.98-3.58z"/><path d="m480.91 127.24c4.98.23 9.95.12 14.93.12 6.18 14.51 13.63 28.45 20.64 42.58 2.74 4.75 4.63 10.06 8.02 14.39 9.44-18.79 19.28-37.41 26.96-57.02 3.74.12 7.47.12 11.21-.04-9.56 15.14-16.73 31.59-24.95 47.45-3.66 7.67-7.92 15.04-11.5 22.75-3.15-.06-6.3-.05-9.44.03-7.46-17.09-16.66-33.32-25.05-49.95-3.47-6.85-7.25-13.53-10.82-20.31z"/><path d="m650.99 126.7c15.36 1.42 30.85.98 46.23-.01-.2 2.44-.2 4.88.04 7.31-11.02-.6-22.06-1.02-33.1-.62-.7 8.2-.72 16.43-.45 24.65 10.04-.02 20.09-.05 30.11-.82-.03 2.45-.02 4.91.07 7.37-10.04-.76-20.11-.79-30.16-.81-.35 9.24-.41 18.51.04 27.74 11.19.11 22.39-.13 33.57-.83-.15 2.47-.16 4.94 0 7.41-15.51-.81-31.1-1.43-46.59.07 1.3-15.02.96-30.12 1.01-45.18-.07-8.76.36-17.56-.77-26.28z"/><path d="m794.57 127.36c5.15-.35 10.3.26 15.47.16 8.66-.14 17.42-.89 26.01.64 5.31.91 10.47 3.85 13.18 8.63 3.29 6.3 1.17 14.78-4.53 18.95-5.32 4.28-12.12 6.22-18.83 6.77 2.51 3.66 5.92 6.53 8.93 9.76 8.3 8.78 17.07 17.1 25.95 25.28-5.76-.12-11.51-.29-17.26-.01-10.39-11.68-21.3-22.89-32.53-33.75-1.25 0-2.5.02-3.73.05 0 11.24-.19 22.48.93 33.69-4.5-.17-8.99-.13-13.48-.02 1-18.8.81-37.62.85-56.44.12-4.6-.54-9.15-.96-13.71m12.86 6.24c.25 8.12-.33 16.23-.26 24.35 8.49.21 17.65-.18 25.08-4.76 5.51-3.43 6.78-12.66.81-16.28-7.69-4.53-17.07-3.77-25.63-3.31z"/><path d="m153.52 242.49c112.93-9.41 226.26-13.59 339.55-13.73 122.24-.45 244.55 3.57 366.4 13.72-9.86 121.05-27.49 241.71-57.47 359.49-8.69 33.32-17.86 66.55-29.17 99.09-14.07 42.61-30.05 84.64-48.8 125.42-23.68-17.18-49.08-32.05-75.88-43.81-33.68-15.02-69.17-25.83-105.3-33.11-1.88-.48-3.95-.44-5.66-1.41-.4-.34-1.21-1.01-1.61-1.35.8-4.02-2.47-7.01-2.74-10.84l1.4.25c36.75 6.57 72.91 16.78 107.42 31.08 27.26 11 53.02 25.35 77.54 41.5 10.77-23.28 19.65-47.37 28.9-71.28 5.85-16.12 11.03-32.47 16.86-48.59 9.01-28.35 17.42-56.89 24.76-85.71.92-1.28 1.86-2.61 2.18-4.19 2.48-9.91 4.7-19.87 7.34-29.74.83-4.94 2.86-9.77 2.31-14.85.25-1.02.52-2.03.81-3.02.74-.96 1.34-1.98 1.8-3.07 2.35-11.11 5.15-22.11 6.94-33.33 4.88-21.74 8.67-43.72 12.21-65.71 2.23-9.57 3.28-19.35 4.99-29.01.17-6.21 2.59-12.04 2.63-18.25 1.48-7.65 1.97-15.43 3.36-23.1.5-7.38 2.4-14.57 2.75-21.97 1.35-7.01 2.1-14.12 1.57-21.26 2.64-21.07 4.51-42.24 6.84-63.34 1.04-6.5 1.74-13.07 1.96-19.64-19.44-2.25-39.02-2.86-58.52-4.49-6.94-.89-13.97-.19-20.88-1.36-1.65-.44-4.52.01-4.28 2.25-.1 9.27.15 18.56-.21 27.83-.71 8.71-1.35 17.44-1.3 26.18-.73 9.73-1.52 19.45-2.42 29.16-.42-1.79-.92-3.56-1.39-5.34-.66 1.94-1.3 3.87-1.92 5.82-.5.06-1.49.17-1.98.23.6-7.15 1.63-14.46-.12-21.53 1.08-15.49 1.98-31 2.87-46.51-.06-6.01.62-12.04.01-18.04-11.3-1.5-22.87-.93-34.25-2.12-14.75-.34-29.48-1.55-44.23-1.41-.22 3.96-.37 7.93-.37 11.9-1.46 24.26-3.28 48.49-4.98 72.74.29 4.74-1.09 9.27-1.7 13.92-1.31 3.77-.3 7.8-1.17 11.63-.97 3.89-.19 7.95-1.16 11.84-.85 3.68.01 7.51-.85 11.2-.98 3.85-.16 7.89-1.14 11.75-.73 3.13-.16 6.38-.73 9.53-1.08 4.62-.38 9.42-1.5 14.05 1.16 5.66-.86 11.26-.69 16.95-2.1 22.47-4.67 44.9-7.08 67.34-.18-2.06-.42-4.1-.63-6.14-.67 1.21-1.32 2.42-1.96 3.64-.86-.34-1.72-.67-2.56-.99.12-4.36.25-8.73-.48-13.04 1.75-20.24 4.55-40.39 5.99-60.66-.3-5.76 1.59-11.32 1.29-17.07.86-4.3.96-8.65 1.09-13.02 1.23-4.91.45-10.03 1.68-14.94.37-9.72 1.94-19.33 2.35-29.05 1.15-7.94 2.19-15.92 2.16-23.96 1.97-25.86 3.86-51.74 5.23-77.64-7.46-1.34-15.07-.75-22.6-1.05-19.55-.92-39.12-.97-58.68-1.14.1 9.28-.83 18.52-.74 27.8-1.18 11.95-.66 23.98-1.16 35.97-.01 9.7-.84 19.37-.91 29.07-.88 6.29.12 12.71-1.32 18.93-.85 10.64.91 21.46-1.13 32-.6 9.32.93 18.83-.77 28.05.67 9.66-1.02 19.39.45 29.02-.17 7.28-.21 14.58-.23 21.87-.29-8.02.53-16.1-.64-24.08-.74 12.13-1.43 24.27-1.63 36.43-.89 10.21-.44 20.49-1.56 30.69-.46 23.05-2.44 46.02-3.17 69.06-1.82 29.52-3.32 59.07-5.69 88.57-.5 4.9.06 10.02-1.63 14.74-2.23.36-4.47-.11-6.63-.57 2.08-28.83 4.18-57.65 5.6-86.52 1.02-26.1 2.94-52.15 3.63-78.28.1-3.05.05-6.11-.1-9.15.23-.08.68-.23.9-.31.51-22.84 1.99-45.65 2.71-68.48-.24-5.51-.9-11.08.15-16.56 1.42-8.43-.45-17.09 1.42-25.46.74-7.97-.78-16.09.99-23.97.71-8.32-.74-16.77 1.13-24.99-.15-10.36.5-20.71.58-31.07-.1-8.35 1.08-16.63.92-24.98.22-16.14 1.29-32.27 1.07-48.42-50.69-.38-101.39-.35-152.08 0-.17 19.09 1.11 38.14 1.24 57.23 1.11 11.72.58 23.5 1.27 35.24.43 5.34-.65 10.78.72 16.04.88 6.94-.19 13.97.46 20.93 1.55 6.91.6 14.03.8 21.04-.09 3.36 1.17 6.58 1.08 9.95.02 6.42-.38 12.9.66 19.28 1.26 7.22-.55 14.52.19 21.78.67 7.39.54 14.82.9 22.23-.46 7.71.85 15.37.85 23.07-1.56 9.81-.28 19.79.02 29.65.23 3.88-.36 8.06 1.81 11.53.08 1.31.15 2.62.19 3.94-1.16 7.83-.34 15.79-.15 23.67.39 4.17-.44 8.74 1.97 12.46.65 9.79.89 19.61 1.71 29.4.68 8.77.55 17.6 1.74 26.33.98 18.1 2.61 36.16 3.76 54.25-2.24.49-4.52 1.13-6.83.77-1.69-4.52-1.16-9.43-1.6-14.14-3.59-45.92-5.76-91.93-8.13-137.93-.81-9.48-.32-19.02-1.41-28.47-.21-12.27-1.17-24.51-1.31-36.79-.02-7.53-1.85-15.13-.3-22.61-.58.63-1.16 1.27-1.73 1.9.24 7.44.2 14.88.14 22.31-.11-7.53-.03-15.08-.23-22.61 1.46-9.29-.24-18.67.46-27.99-2.1-10.86.68-22.16-1.58-33.03-.81-10.28.9-20.74-.99-30.93-.89-25.59-2.32-51.24-1.85-76.86-1.78-10.35-.63-20.95-1.48-31.39-8.62-.07-17.26-.29-25.85.49-18.52.33-37.04.83-55.55 1.47-.13 6.11.34 12.2.87 18.28 1.23 21.02 2.71 42.02 4.4 63 .58 4.09-.95 8.66 1.34 12.37-.51 3.59.82 7.03.92 10.59-.21 5.04 1.39 9.92 1.09 14.98 1.12 5.62.75 11.38 1.87 17-.33 5.07 1.37 9.96 1.06 15.02-.17 3.38 1.17 6.61 1 9.99-.28 4.07 1.25 7.98 1.15 12.04 0 4.68.45 9.34 1.05 13.97 1.21 13.9 2.75 27.77 4.24 41.64-1.36 6.97-.5 14.11 0 21.12-.43.27-1.28.82-1.71 1.1-.8-1.25-1.59-2.5-2.38-3.73-.28 2.04-.56 4.09-.77 6.15-.97-11.78-2.92-23.47-3.55-35.28-1.42-7.92-1.49-15.98-2.75-23.92-.97-6.29-.65-12.69-1.77-18.96-.58-2.58.72-5.15.09-7.7-.97-4.43-.25-9.03-1.43-13.44.07-6.05-1.38-11.94-1.32-17.98-1.33-4.97-.32-10.15-1.54-15.12-.54-3.65-.03-7.39-.99-10.98-.52-5.7-.3-11.62-2.34-17.06-1.58-26.84-3.79-53.63-5.44-80.47.06-3.99-.1-7.99-.31-11.97-26.26.2-52.46 2.06-78.68 3.27-.26 17.45 1.25 34.85 2.18 52.26.75 7.07.95 14.19 1.88 21.25 2.67 29.54 6.1 58.95 8.79 88.45 2.71 14.68 3.99 29.57 6.33 44.31 6.5 45.46 14.02 90.79 23.61 135.7.76 3.92 1.8 7.78 2.39 11.74-.55 2.37-.9 4.8-1.04 7.24-1.31.47-2.62.94-3.93 1.4-.61-7.03-2.94-13.79-4.25-20.7-1.11-4.32-1.12-9.04-3.59-12.89-10.09-49.12-17.78-98.71-24.3-148.42-.62-5.98-1.76-11.93-1.62-17.97-2.64-22.84-4.97-45.72-7.4-68.58-2.13-7.98-1.73-16.32-2.88-24.45-.73-13.7-2.39-27.34-2.54-41.07-.1-9.07-.1-18.15-.06-27.22-7.73-.55-15.41.76-23.14.84-12.63 1.22-25.35 1.49-37.98 2.85-7.22.2-14.39 1.32-21.62 1.32-.2 6.54.83 13.01 1.2 19.53.11 4.11.82 8.17 1.12 12.27-.29 4.76-.57 9.55-.01 14.29 1.72 8.29 2.16 16.77 3.4 25.13-.01 7.57 2.3 14.86 2.49 22.41 1.8 13.56 3.26 27.16 5.39 40.69.34 6.42 2.05 12.65 2.46 19.06.17 2.69 1.06 5.26 1.55 7.9 2.05 18.54 6.3 36.73 8.92 55.19 3.06 15.26 5.68 30.6 8.99 45.8.56 5.27 2.47 10.28 2.79 15.6-.11 1.57 1.24 2.46 2.22 3.46 15.86 73.17 35.94 145.54 62.4 215.62 7.71 19.89 15.22 39.91 24.42 59.17 55.18-37.76 119.39-60.83 184.91-72.7-1.02 4.09-2.15 8.15-3 12.28-66.73 12.75-132.02 37.54-186.89 78.16-35.37-77.55-61.67-159-81.99-241.7-27.4-112.36-43.82-227.19-53.22-342.4z"/><path d="m517.95 437.97c0-1.57.14-3.14.46-4.67-.38 9.24.2 18.48.14 27.72.32 9.67-.15 19.36.61 29.01.38 12.71.41 25.43.67 38.15-.44 7.95.71 15.87.57 23.82.51 25.99 1.16 51.98 1.49 77.97.75 8.88.33 17.84 1.38 26.69.02 6.34 1.19 12.6 1.31 18.94-.47 6.52-.66 13.21 1.22 19.55 1.55 11.57 3.36 23.14 5.86 34.55-.44 1.44-.88 2.88-1.3 4.34.03-4.06-1.07-7.97-2.81-11.61-.61.61-1.22 1.23-1.81 1.85-2.07-1.61-2.89-4.07-3.53-6.5-1.98-1.5-3.6-3.43-4.1-5.91-.05-24.63-.18-49.26-.04-73.88.02-53-.15-106.01.31-159.01-.42-13.67-.36-27.34-.43-41.01z"/></g><g fill="#010101"><path d="m479.42 36.58c39.51-.38 79.04-.65 118.54.33 40.83.66 81.66 1.64 122.48 2.92 51.22 1.81 102.48 3.67 153.53 8.36 19.32 1.99 39.17 3.73 57.1 11.81 12.79 5.61 23.98 15.14 30.64 27.52 8.1 14.79 10.77 31.83 12.03 48.45 1.74 24 .16 48.06-1.01 72.06-4.31 75.2-11.45 150.25-21.35 224.93-4.4 33.74-9.89 67.33-15.16 100.95-15.61 101.75-31.71 203.78-59.86 302.97-10.62 38.23-23.88 75.66-35.8 113.49-19.9 61.47-40.1 123.07-67.51 181.69-8.48 17.25-15.7 35.7-29.02 49.96-15.29 16.73-36.21 27.37-57.9 33.19-17.6 4.92-35.89 6.82-54.1 7.65-54.99 2.69-110.06 2.68-165.09 2.15-28.64-.61-57.29-1.05-85.93-2.26-17.07-.93-34.41-.8-51.02-5.4-21.34-5.39-40.84-17.48-55.16-34.19-11.06-12.75-19.32-27.66-25.92-43.13-21.54-50.29-41.36-101.34-58.71-153.23-25.87-76.38-45.56-154.74-61.17-233.81-18.71-94.54-31.61-190.16-41.06-286.04-8.33-85.45-14.34-171.16-16.68-256.99-.23-14.65-.64-29.3-.54-43.95.5-13.67-.06-27.55 3.24-40.94 4.15-18.66 14.31-35.81 28.47-48.62 16.55-15.04 37.86-24.92 60.06-27.69 52.37-4.55 104.93-6.44 157.45-8.45 53.14-1.84 106.29-3.05 159.45-3.73m-140.83 90.19c-11.2 1.61-22.25 6.66-29.5 15.54-7.24 8.44-8.82 20.67-5.71 31.13 2.84 9.26 10.5 16.28 19.09 20.29 11.45 5 24.33 5.94 36.62 4.35 12.12-1.7 24.21-7.38 31.57-17.43 6.73-8.96 7.75-21.43 3.73-31.73-3.08-7.51-9.41-13.18-16.54-16.77-12.03-6.07-26.07-7.12-39.26-5.38m-186.91.63c1.55 10.48.94 21.08 1.1 31.64-.48 12.83-.01 25.69-1.06 38.51 4.53-.24 9.07-.13 13.61-.11-1.17-11.2-.75-22.47-1.01-33.71 1.1-.04 2.21-.09 3.31-.14 11.43 10.81 22.48 22.08 32.87 33.91 5.55-.14 11.1-.14 16.65.04-2.34-3.75-6.32-6.09-9.27-9.34-8.29-8.58-17.23-16.58-24.99-25.64 8.52-.77 17.67-3.65 22.77-10.99 2.61-4.5 3.13-10.41.61-15.06-2.68-4.36-7.38-7.19-12.34-8.18-9.17-1.91-18.6-.84-27.89-.8-4.79.03-9.58-.54-14.36-.13m329.23-.16c3.57 6.78 7.35 13.46 10.82 20.31 8.39 16.63 17.59 32.86 25.05 49.95 3.14-.08 6.29-.09 9.44-.03 3.58-7.71 7.84-15.08 11.5-22.75 8.22-15.86 15.39-32.31 24.95-47.45-3.74.16-7.47.16-11.21.04-7.68 19.61-17.52 38.23-26.96 57.02-3.39-4.33-5.28-9.64-8.02-14.39-7.01-14.13-14.46-28.07-20.64-42.58-4.98 0-9.95.11-14.93-.12m170.08-.54c1.13 8.72.7 17.52.77 26.28-.05 15.06.29 30.16-1.01 45.18 15.49-1.5 31.08-.88 46.59-.07-.16-2.47-.15-4.94 0-7.41-11.18.7-22.38.94-33.57.83-.45-9.23-.39-18.5-.04-27.74 10.05.02 20.12.05 30.16.81-.09-2.46-.1-4.92-.07-7.37-10.02.77-20.07.8-30.11.82-.27-8.22-.25-16.45.45-24.65 11.04-.4 22.08.02 33.1.62-.24-2.43-.24-4.87-.04-7.31-15.38.99-30.87 1.43-46.23.01m143.58.66c.42 4.56 1.08 9.11.96 13.71-.04 18.82.15 37.64-.85 56.44 4.49-.11 8.98-.15 13.48.02-1.12-11.21-.93-22.45-.93-33.69 1.23-.03 2.48-.05 3.73-.05 11.23 10.86 22.14 22.07 32.53 33.75 5.75-.28 11.5-.11 17.26.01-8.88-8.18-17.65-16.5-25.95-25.28-3.01-3.23-6.42-6.1-8.93-9.76 6.71-.55 13.51-2.49 18.83-6.77 5.7-4.17 7.82-12.65 4.53-18.95-2.71-4.78-7.87-7.72-13.18-8.63-8.59-1.53-17.35-.78-26.01-.64-5.17.1-10.32-.51-15.47-.16m-641.05 115.13c9.4 115.21 25.82 230.04 53.22 342.4 20.32 82.7 46.62 164.15 81.99 241.7 54.87-40.62 120.16-65.41 186.89-78.16-1.32 5.81-3.12 11.5-4.76 17.23-10.69 35.18-26.54 69.04-48.64 98.54-18.85 24.92-41.97 47.26-69.74 61.97 8.14 14.68 17.97 28.35 28.13 41.69 1.93 2.59 3.92 5.14 5.9 7.7 9.99 12.93 20.52 25.42 31.16 37.81 6.44 7.22 12.76 14.56 19.37 21.62 18.22 19.6 36.94 38.85 57.81 55.65.55.4 1.12.81 1.68 1.23 3.12 2.51 6.39 4.82 9.62 7.18.47-.25 1.42-.74 1.89-.98l-.01-.25c3.92-2.46 7.58-5.29 11.11-8.26 13.95-11.16 26.69-23.73 39.33-36.32 12.27-12.75 24.27-25.75 35.91-39.08 11.28-12.93 22.18-26.19 32.76-39.7 4.23-5.75 8.77-11.29 12.75-17.22l.2-.01c6.03-8.44 11.98-16.95 17.26-25.89.98-1.78 2.34-3.45 2.5-5.54-20.77-10.61-38.59-26.27-54.32-43.33-20.64-23.02-37.13-49.64-49.36-78-7.83-18.2-14.53-36.99-18.98-56.32 1.71.97 3.78.93 5.66 1.41 36.13 7.28 71.62 18.09 105.3 33.11 26.8 11.76 52.2 26.63 75.88 43.81 18.75-40.78 34.73-82.81 48.8-125.42 11.31-32.54 20.48-65.77 29.17-99.09 29.98-117.78 47.61-238.44 57.47-359.49-121.85-10.15-244.16-14.17-366.4-13.72-113.29.14-226.62 4.32-339.55 13.73m238.3 835.75c-11.21 2.71-21.39 8.38-32.49 11.44-9.16 2.19-19.02 3.32-28.07.06-2.96-1.16-6.34-2.23-9.44-.94-2.81.98-3.85 4.51-2.95 7.16 1.17 4.83 4.71 8.54 7.98 12.1 7.8 8.59 16.14 16.76 25.35 23.83 4.12 2.98 8.46 5.71 13.24 7.5 10.84 4.13 22.69 4.26 34.12 3.89 5.11.49 10.29.04 15.43.21 10.87-.17 21.75.34 32.6-.24 8.43.6 16.99.05 25.48.24 23.11-.15 46.31.32 69.38-.23 16.36.55 32.76.11 49.13.19 16.57-.27 33.39 1.25 49.73-2.1 7.83-1.9 14.95-5.98 21.19-11 8.85-7 16.68-15.16 24.43-23.32 3.16-3.43 6.3-7.29 7.18-12 .61-2.9-1.24-6.05-4.2-6.62-5.19-.99-9.71 2.56-14.78 2.93-16.18 2.45-31.31-5.03-45.98-10.62-16.68-5.79-34.62-7.44-52.13-5.51l.49.68-.44-.59c-5.05.61-10.11 1.35-15.02 2.68-3.42 2.49-6.2 5.76-9.35 8.58-4.55 4.41-9.32 8.57-14.1 12.71-7.09 6.08-14.4 11.94-22.22 17.08-3.55 2.46-7.99 3.99-12.33 3.19-4.98-.68-8.9-4.05-12.89-6.79-8.6-6.01-16.38-13.07-24.42-19.77l.01-.18c-4.39-4.18-8.93-8.2-13.24-12.45-3.36-4.06-9.25-3.35-13.92-4.54-15.87-2.36-32.25-1.73-47.77 2.43z"/><path d="m342.53 131.77c10.84-1.63 22.79.22 31.46 7.34 6.88 5.81 9.39 15.27 9.03 23.98-.08 8.33-3.5 16.67-9.97 22.06-6.34 6.15-15.43 8.56-24.09 8.38-7.98.28-16.21-1.88-22.43-7.01-15.11-11.17-14.5-36.69-.1-48.18 4.53-3.73 10.34-5.72 16.1-6.57z"/><path d="m164.73 133.61c8.67-.51 18.3-1.23 25.98 3.58 5.98 4.03 3.73 13.49-2.11 16.54-7.4 4.03-16.21 4.49-24.47 4.16.69-8.08.11-16.19.6-24.28z"/><path d="m807.43 133.6c8.56-.46 17.94-1.22 25.63 3.31 5.97 3.62 4.7 12.85-.81 16.28-7.43 4.58-16.59 4.97-25.08 4.76-.07-8.12.51-16.23.26-24.35z"/></g><path d="m430.46 240.55c50.69-.35 101.39-.38 152.08 0 .22 16.15-.85 32.28-1.07 48.42.16 8.35-1.02 16.63-.92 24.98-.08 10.36-.73 20.71-.58 31.07-1.87 8.22-.42 16.67-1.13 24.99-1.77 7.88-.25 16-.99 23.97-1.87 8.37 0 17.03-1.42 25.46-1.05 5.48-.39 11.05-.15 16.56-.72 22.83-2.2 45.64-2.71 68.48-.22.08-.67.23-.9.31.15 3.04.2 6.1.1 9.15-.69 26.13-2.61 52.18-3.63 78.28-.57-4.74-.5-9.51-.59-14.27-.24 8.04-1.37 16.04-1.15 24.09.28 9.03-1.75 17.91-1.95 26.91-.23 6.08.53 12.27-1.02 18.23-1.56 5.14-.66 10.53-.98 15.8 0 5.2-1.07 10.38-.57 15.58l.66.18c2.16.46 4.4.93 6.63.57 1.69-4.72 1.13-9.84 1.63-14.74 2.37-29.5 3.87-59.05 5.69-88.57.73-23.04 2.71-46.01 3.17-69.06 1.12-10.2.67-20.48 1.56-30.69.2-12.16.89-24.3 1.63-36.43 1.17 7.98.35 16.06.64 24.08.02-7.29.06-14.59.23-21.87-1.47-9.63.22-19.36-.45-29.02 1.7-9.22.17-18.73.77-28.05 2.04-10.54.28-21.36 1.13-32 1.44-6.22.44-12.64 1.32-18.93.07-9.7.9-19.37.91-29.07.5-11.99-.02-24.02 1.16-35.97-.09-9.28.84-18.52.74-27.8 19.56.17 39.13.22 58.68 1.14 7.53.3 15.14-.29 22.6 1.05-1.37 25.9-3.26 51.78-5.23 77.64.03 8.04-1.01 16.02-2.16 23.96-.41 9.72-1.98 19.33-2.35 29.05-1.23 4.91-.45 10.03-1.68 14.94-.13 4.37-.23 8.72-1.09 13.02.3 5.75-1.59 11.31-1.29 17.07-1.44 20.27-4.24 40.42-5.99 60.66-.69 5.78-1.52 11.54-2.01 17.35-.46-2.19-1.43-4.2-2.46-6.16-.37 4.91-.23 9.9 1.21 14.64-2.63 21.19-5.35 42.36-8.45 63.49-.49 10.06-2.56 19.94-3.88 29.91-4.12 27.8-8.91 55.49-14.32 83.07-.91 6.7-3.53 13.08-3.8 19.88 2.31.53 4.62 1.06 6.94 1.6.65-3.78 1.43-7.54 2.58-11.2 1.78-2.68 2.46-5.81 2.9-8.94 2.22-9.08 3.18-18.39 5.21-27.51.73-2.71.64-5.52.39-8.28 2.76-17.31 5.76-34.6 8.29-51.95 1.21-7.24 1.63-14.62 3.77-21.67 2.96-23.97 5.52-48 8.84-71.93.24-1.92.35-3.85.42-5.77 2.41-22.44 4.98-44.87 7.08-67.34-.17-5.69 1.85-11.29.69-16.95 1.12-4.63.42-9.43 1.5-14.05.57-3.15 0-6.4.73-9.53.98-3.86.16-7.9 1.14-11.75.86-3.69 0-7.52.85-11.2.97-3.89.19-7.95 1.16-11.84.87-3.83-.14-7.86 1.17-11.63.61-4.65 1.99-9.18 1.7-13.92 1.7-24.25 3.52-48.48 4.98-72.74 2.01-3.1 1.78-6.95 2.5-10.45 8.98-.49 18.02-.16 26.98.43 12.05 2.6 24.44.25 36.57 2.03 3.33.5 6.89-.08 10.06 1.24 1.56 3.1.95 6.8 1.08 10.16-.5 9.33.29 18.71-.84 28-.46 5.1-1.39 10.17-1.39 15.3.09 6.08-1 12.17 0 18.23-1.64 17.97-3.47 35.88-5.38 53.8-1.76 14.99-2.4 30.1-5.17 44.97-7.69 60.87-17.78 121.45-30.58 181.46-1.01 4.97-2.54 9.82-4.04 14.66-4.52 17.94-8.36 36.04-13.42 53.84-3.45 15.04-9.02 29.46-13.73 44.12-1.19 4.05-3.43 7.84-3.77 12.1 1.96.98 4.07 1.63 6.13 2.4 3.39-5.77 4.54-12.48 6.92-18.67 4.72-13.81 9.37-27.65 13.15-41.74.97-7.38 3.18-14.49 4.89-21.72 2.65-10.63 5.34-21.26 7.97-31.9 1.01-1.31 1.48-2.9 1.25-4.54-.15-1.78-.9-3.91.54-5.39-.02-1.03-.04-2.05-.06-3.07 2.06.8 2.53-1.54 3.25-2.84.48-2.56.12-5.23.79-7.78 12.16-57.46 21.38-115.52 28.6-173.79.3-11.79 2.52-23.43 3.32-35.18 1.09-10.3 2.5-20.57 3.28-30.9.85-3.68.4-7.53 1.46-11.17.58-2.16.89-4.37 1.02-6.6.9-9.71 1.69-19.43 2.42-29.16 1.76-2.7.87-6.13 1.52-9.14 1.31-7.22-.11-14.6 1.13-21.82 1.09-7.37-.06-14.87.76-22.26.32-.32.96-.98 1.28-1.3 6.67-1.05 13.36.24 19.94 1.26 9.71.45 19.46.26 29.13 1.47 9.29 1.29 18.75.57 27.98 2.49 1.82.47 1.58 2.65 1.74 4.1.07 4.81-.47 9.61-.25 14.43-2.33 21.1-4.2 42.27-6.84 63.34-5.44 41.85-11.05 83.7-18.47 125.26-4.23 23.35-8.5 46.7-13.62 69.88-1.29 6.87-3.23 13.61-4.16 20.56-.29.99-.56 2-.81 3.02-2.72 9.35-4.48 18.96-7.01 28.37-1.36 6.87-3.67 13.5-4.82 20.41-7.34 28.82-15.75 57.36-24.76 85.71-5.83 16.12-11.01 32.47-16.86 48.59-9.25 23.91-18.13 48-28.9 71.28-24.52-16.15-50.28-30.5-77.54-41.5-34.51-14.3-70.67-24.51-107.42-31.08-2.18-10.79-4.48-21.56-5.91-32.47-1.64-9.33-2.19-18.8-3.75-28.14-.12-6.34-1.29-12.6-1.31-18.94.99-5.2.22-10.48.33-15.71.02-17.04.38-34.1-1.4-51.07-.76-5.92.09-11.9-.42-17.83-.49-25.69.54-51.42-1.3-77.06-.51 11.05.27 22.14-.65 33.19-.26-12.72-.29-25.44-.67-38.15-.76-9.65-.29-19.34-.61-29.01.06-9.24-.52-18.48-.14-27.72.31-.23.94-.7 1.25-.93 6.65-4.4 9.96-12.65 9.86-20.44-.06-10.43-3.83-20.38-7.7-29.92-4.27-10.4-9.89-20.15-15.14-30.06-.34.4-1.01 1.2-1.34 1.59-3.94 6.74-7.58 13.71-10.7 20.87-.11.23-.32.67-.43.9-5.57 10.78-10.08 22.49-10.86 34.7-.63 8.02 2.28 16.39 8.56 21.59 1.12.93 3.1 1.45 2.74 3.3-.19 14.71 0 29.44-1.01 44.12-.09 16.14-.34 32.29-.9 48.42-.22 5.54-.2 11.08-.27 16.63l-.97-.96c-1.56 3.07-1.03 6.61-1.06 9.93-.06 29.69.27 59.42-1.55 89.05-1.07 9.47.18 19.06-1.28 28.51-.62 3.76-1.17 7.54-1.22 11.36-.07 7.58-3.5 14.92-1.82 22.55-1.61 10.61-3.63 21.16-5.95 31.64-65.52 11.87-129.73 34.94-184.91 72.7-9.2-19.26-16.71-39.28-24.42-59.17-26.46-70.08-46.54-142.45-62.4-215.62-.83-5.63-2.15-11.16-3.26-16.72.83-8.69-2.75-16.86-3.78-25.37-5.41-27.53-10.22-55.19-14.21-82.95-2.46-12.58-3.27-25.43-5.73-38.02-.48-7.05-2.07-13.97-2.22-21.04-.1-2.49-.71-4.91-1.24-7.34-1.2-5.27-.71-10.75-1.93-16.02-1.26-5.48-.51-11.16-1.61-16.66-.6-3.3-.86-6.63-1.06-9.97-.34-6.39-1.78-12.67-2.13-19.07-.21-3.7-.5-7.4-1.15-11.05-.25.6-.75 1.81-1 2.41-.37-6.52-1.4-12.99-1.2-19.53 7.23 0 14.4-1.12 21.62-1.32 12.63-1.36 25.35-1.63 37.98-2.85 7.73-.08 15.41-1.39 23.14-.84-.04 9.07-.04 18.15.06 27.22.15 13.73 1.81 27.37 2.54 41.07 1.15 8.13.75 16.47 2.88 24.45 2.43 22.86 4.76 45.74 7.4 68.58-.14 6.04 1 11.99 1.62 17.97 6.52 49.71 14.21 99.3 24.3 148.42 2.03 12.04 4.49 24.06 7.73 35.83 1.02 2.85 2 5.71 2.61 8.68 3.02 12.2 6.07 24.4 9.15 36.59 1.54 5.07 1.62 10.46 3.42 15.47 5.52 18.69 11.35 37.29 17.94 55.63 2.3-.73 4.6-1.5 6.88-2.3-3.49-12.28-8.35-24.17-11.86-36.47-5.43-17.93-9.89-36.14-14.37-54.33-2.15-11.57-5.93-22.74-8.69-34.15-.59-3.96-1.63-7.82-2.39-11.74-9.59-44.91-17.11-90.24-23.61-135.7-2.34-14.74-3.62-29.63-6.33-44.31-2.69-29.5-6.12-58.91-8.79-88.45.86-7.65-.11-15.35-.17-23.03-1.25-9.65-2.17-19.35-1.81-29.1.35-6.44-1.37-13.3.87-19.47 3.15-1.32 6.68-.81 9.99-1.29 9.64-1.37 19.4-.2 29.08-.89 11.38-1.98 23.03-2 34.54-1.55.68 3.53.6 7.32 2.43 10.52 1.65 26.84 3.86 53.63 5.44 80.47 2.04 5.44 1.82 11.36 2.34 17.06.96 3.59.45 7.33.99 10.98 1.22 4.97.21 10.15 1.54 15.12-.06 6.04 1.39 11.93 1.32 17.98 1.18 4.41.46 9.01 1.43 13.44.63 2.55-.67 5.12-.09 7.7 1.12 6.27.8 12.67 1.77 18.96 1.26 7.94 1.33 16 2.75 23.92.63 11.81 2.58 23.5 3.55 35.28.23 7.96 2.25 15.74 2.63 23.68 1.89 11.1 2.59 22.41 4.24 33.57 1.26 8.81 1.3 17.87 3.92 26.44 5.81 41.15 12.76 82.16 21.22 122.86 2.45-.14 4.9-.4 7.34-.76-2.4-14.79-5.87-29.39-8.37-44.17-4.66-25.16-8.55-50.46-12.25-75.77-1.26-6.66-1.03-13.48-2.4-20.12-4.09-30.09-8.27-60.17-11.47-90.37-1.49-13.87-3.03-27.74-4.24-41.64-.6-4.63-1.05-9.29-1.05-13.97.1-4.06-1.43-7.97-1.15-12.04.17-3.38-1.17-6.61-1-9.99.31-5.06-1.39-9.95-1.06-15.02-1.12-5.62-.75-11.38-1.87-17 .3-5.06-1.3-9.94-1.09-14.98-.1-3.56-1.43-7-.92-10.59.84-6.15-.76-12.26-.48-18.41.44-8.4-2.17-16.58-1.91-24.98.39-11.07-2.59-21.95-2.04-33.02.22-4.39-.5-8.74-.79-13.1-.44-2.14 2.04-2.37 3.5-2.7 6.82-1.05 13.76-.24 20.6-1.13 16.37-.83 32.77-.26 49.16-.55 1.98.21 5.68-.23 5.88 2.54.81 19.99-.18 40.05 1.59 60 .25-10.95.22-21.92.76-32.87-.47 25.62.96 51.27 1.85 76.86 1.89 10.19.18 20.65.99 30.93 2.26 10.87-.52 22.17 1.58 33.03-.7 9.32 1 18.7-.46 27.99.2 7.53.12 15.08.23 22.61.06-7.43.1-14.87-.14-22.31.57-.63 1.15-1.27 1.73-1.9-1.55 7.48.28 15.08.3 22.61.14 12.28 1.1 24.52 1.31 36.79 1.09 9.45.6 18.99 1.41 28.47 2.37 46 4.54 92.01 8.13 137.93.44 4.71-.09 9.62 1.6 14.14 2.31.36 4.59-.28 6.83-.77-1.15-18.09-2.78-36.15-3.76-54.25 1.19-6.77-.66-13.56-.32-20.36.38-8.62-.93-17.16-1.3-25.75-1.56-9.69-.01-19.54-1.45-29.25-.09-7.67-1.55-15.26-1.25-22.94-.12-9.63-.8-19.26-1.19-28.88-1.79-11.99.06-24.15-1.48-36.15-.39-3.99-.23-7.99-.4-11.98-.36 5.08-.04 10.19-.75 15.26-.36-7.41-.23-14.84-.9-22.23-.74-7.26 1.07-14.56-.19-21.78-1.04-6.38-.64-12.86-.66-19.28.09-3.37-1.17-6.59-1.08-9.95-.2-7.01.75-14.13-.8-21.04-.65-6.96.42-13.99-.46-20.93-1.37-5.26-.29-10.7-.72-16.04-.69-11.74-.16-23.52-1.27-35.24-.13-19.09-1.41-38.14-1.24-57.23m287.83 369.57c1.23-2.81 2.2-5.8 1.91-8.92-1.44 2.63-2.91 5.94-1.91 8.92m28.25 128.47c2.62-1.91 3.36-5.69 3.18-8.79-1.63 2.69-2.67 5.69-3.18 8.79z" fill="#e61a0f"/><path d="m396.99 241.29c8.59-.78 17.23-.56 25.85-.49.85 10.44-.3 21.04 1.48 31.39-.54 10.95-.51 21.92-.76 32.87-1.77-19.95-.78-40.01-1.59-60-.2-2.77-3.9-2.33-5.88-2.54-16.39.29-32.79-.28-49.16.55-6.84.89-13.78.08-20.6 1.13-1.46.33-3.94.56-3.5 2.7.29 4.36 1.01 8.71.79 13.1-.55 11.07 2.43 21.95 2.04 33.02-.26 8.4 2.35 16.58 1.91 24.98-.28 6.15 1.32 12.26.48 18.41-2.29-3.71-.76-8.28-1.34-12.37-1.69-20.98-3.17-41.98-4.4-63-.53-6.08-1-12.17-.87-18.28 18.51-.64 37.03-1.14 55.55-1.47z" fill="#c53933"/><path d="m255.54 246.67c26.22-1.21 52.42-3.07 78.68-3.27.21 3.98.37 7.98.31 11.97-1.83-3.2-1.75-6.99-2.43-10.52-11.51-.45-23.16-.43-34.54 1.55-9.68.69-19.44-.48-29.08.89-3.31.48-6.84-.03-9.99 1.29-2.24 6.17-.52 13.03-.87 19.47-.36 9.75.56 19.45 1.81 29.1.06 7.68 1.03 15.38.17 23.03-.93-7.06-1.13-14.18-1.88-21.25-.93-17.41-2.44-34.81-2.18-52.26z" fill="#c73933"/><path d="m678.79 243.4c14.75-.14 29.48 1.07 44.23 1.41 11.38 1.19 22.95.62 34.25 2.12.61 6-.07 12.03-.01 18.04-.89 15.51-1.79 31.02-2.87 46.51-.26 2.93-.69 5.84-1.01 8.76-1-6.06.09-12.15 0-18.23 0-5.13.93-10.2 1.39-15.3 1.13-9.29.34-18.67.84-28-.13-3.36.48-7.06-1.08-10.16-3.17-1.32-6.73-.74-10.06-1.24-12.13-1.78-24.52.57-36.57-2.03-8.96-.59-18-.92-26.98-.43-.72 3.5-.49 7.35-2.5 10.45 0-3.97.15-7.94.37-11.9z" fill="#c73a33"/><path d="m763.73 249.13c-.24-2.24 2.63-2.69 4.28-2.25 6.91 1.17 13.94.47 20.88 1.36 19.5 1.63 39.08 2.24 58.52 4.49-.22 6.57-.92 13.14-1.96 19.64-.22-4.82.32-9.62.25-14.43-.16-1.45.08-3.63-1.74-4.1-9.23-1.92-18.69-1.2-27.98-2.49-9.67-1.21-19.42-1.02-29.13-1.47-6.58-1.02-13.27-2.31-19.94-1.26-.32.32-.96.98-1.28 1.3-.82 7.39.33 14.89-.76 22.26-1.24 7.22.18 14.6-1.13 21.82-.65 3.01.24 6.44-1.52 9.14-.05-8.74.59-17.47 1.3-26.18.36-9.27.11-18.56.21-27.83z" fill="#cf615c"/><path d="m168.57 269.85c.65 3.65.94 7.35 1.15 11.05.35 6.4 1.79 12.68 2.13 19.07.2 3.34.46 6.67 1.06 9.97 1.1 5.5.35 11.18 1.61 16.66 1.22 5.27.73 10.75 1.93 16.02.53 2.43 1.14 4.85 1.24 7.34.15 7.07 1.74 13.99 2.22 21.04 2.46 12.59 3.27 25.44 5.73 38.02 3.99 27.76 8.8 55.42 14.21 82.95 1.03 8.51 4.61 16.68 3.78 25.37-12.91-60.9-22.14-122.54-29.54-184.34-2.02-16.13-3.23-32.35-5.4-48.47-.3-4.1-1.01-8.16-1.12-12.27.25-.6.75-1.81 1-2.41z" fill="#c72f29"/><path d="m168.69 284.53c2.17 16.12 3.38 32.34 5.4 48.47 7.4 61.8 16.63 123.44 29.54 184.34 1.11 5.56 2.43 11.09 3.26 16.72-.98-1-2.33-1.89-2.22-3.46-.32-5.32-2.23-10.33-2.79-15.6-3.31-15.2-5.93-30.54-8.99-45.8-2.62-18.46-6.87-36.65-8.92-55.19-.49-2.64-1.38-5.21-1.55-7.9-.41-6.41-2.12-12.64-2.46-19.06-2.13-13.53-3.59-27.13-5.39-40.69-.19-7.55-2.5-14.84-2.49-22.41-1.24-8.36-1.68-16.84-3.4-25.13-.56-4.74-.28-9.53.01-14.29z" fill="#cc8984"/><path d="m753.38 320.24c.32-2.92.75-5.83 1.01-8.76 1.75 7.07.72 14.38.12 21.53.49-.06 1.48-.17 1.98-.23.62-1.95 1.26-3.88 1.92-5.82.47 1.78.97 3.55 1.39 5.34-.13 2.23-.44 4.44-1.02 6.6-1.06 3.64-.61 7.49-1.46 11.17-.78 10.33-2.19 20.6-3.28 30.9-.8 11.75-3.02 23.39-3.32 35.18-7.22 58.27-16.44 116.33-28.6 173.79-.67 2.55-.31 5.22-.79 7.78-.72 1.3-1.19 3.64-3.25 2.84.02 1.02.04 2.04.06 3.07-1.44 1.48-.69 3.61-.54 5.39-1.42-.49-2.82-.95-4.22-1.42-.25-2.4-.64-4.78-1.13-7.13 12.8-60.01 22.89-120.59 30.58-181.46 2.77-14.87 3.41-29.98 5.17-44.97 1.91-17.92 3.74-35.83 5.38-53.8m-33.21 274.14c-.91 1.12-.91 2.26.01 3.4 1.22-.3 1.35-3.32-.01-3.4z" fill="#b2aeab"/><path d="m820.14 460.97c7.42-41.56 13.03-83.41 18.47-125.26.53 7.14-.22 14.25-1.57 21.26-.35 7.4-2.25 14.59-2.75 21.97-1.39 7.67-1.88 15.45-3.36 23.1-.04 6.21-2.46 12.04-2.63 18.25-1.71 9.66-2.76 19.44-4.99 29.01-3.54 21.99-7.33 43.97-12.21 65.71-1.79 11.22-4.59 22.22-6.94 33.33-.46 1.09-1.06 2.11-1.8 3.07.93-6.95 2.87-13.69 4.16-20.56 5.12-23.18 9.39-46.53 13.62-69.88z" fill="#cc8a85"/><path d="m505.34 353.54c.33-.39 1-1.19 1.34-1.59 5.25 9.91 10.87 19.66 15.14 30.06-1.65 2.26-2.18 4.9-1.18 7.53-.39-.04-1.18-.12-1.57-.16.93 7.54-.63 15.07-.16 22.62-.03 2.42 1.93 4.13 3.12 6.06-1.12.91-3.2 1.24-3.3 2.99-.54 2.18.95 4.07 1.79 5.97-.31 1.78-.6 3.56-.86 5.35-.31.23-.94.7-1.25.93-.32 1.53-.46 3.1-.46 4.67.07 13.67.01 27.34.43 41.01-.46 53-.29 106.01-.31 159.01-.14 24.62-.01 49.25.04 73.88-.26 13.31.15 26.63.08 39.95-.25 24.18.18 48.37.19 72.56-.47 13.04-.05 26.1-.15 39.15-.23 18.69-.11 37.39.14 56.08-.71 6.46-.05 12.94-.19 19.42-.22 16.65.25 33.3.12 49.95.06 8.84-.18 17.68.2 26.52-.82 10.46-.04 20.98-.28 31.47-.05 9.67.02 19.34-.01 29.01.01 4.53-.58 9.19.93 13.58-3.53 2.97-7.19 5.8-11.11 8.26.12-236.94.01-473.89.04-710.84.04-5.26.26-10.54-.4-15.78-.5-4.02.53-8 .91-11.98-.97-.12-1.93-.24-2.88-.35-.11-1.78-.23-3.56-.36-5.33z" fill="#d7d7d8"/><g fill="#c7c7c7"><path d="m494.64 374.41c3.12-7.16 6.76-14.13 10.7-20.87.13 1.77.25 3.55.36 5.33.95.11 1.91.23 2.88.35-.38 3.98-1.41 7.96-.91 11.98.66 5.24.44 10.52.4 15.78-.03 236.95.08 473.9-.04 710.84l.01.25c-.47.24-1.42.73-1.89.98-3.23-2.36-6.5-4.67-9.62-7.18 1.96-1.92 4.88-3.68 4.5-6.84.09-235.34 0-470.69.05-706.03-.07-3.78 1.13-7.96-1.26-11.3-1.58 2.34-3.28 4.61-5.18 6.71z"/><path d="m518.37 919.61c.37 2.71.72 5.42.95 8.15 2.52.14 5.04.28 7.56.44.22 5.21.07 10.43.28 15.64 2.54.1 5.08.21 7.63.32.12 2.53.25 5.07.39 7.61 2.55.13 5.1.28 7.66.45.11 2.52.23 5.05.36 7.58 2.52.12 5.05.25 7.58.39.16 2.52.31 5.04.46 7.57 2.52.14 5.04.28 7.57.43.12 2.53.25 5.08.38 7.62 2.55.13 5.11.25 7.67.36.1 2.54.19 5.08.3 7.64 2.55.12 5.11.25 7.67.39.32 5.19.13 10.4.29 15.6 2.56.12 5.12.26 7.68.4.14 2.54.28 5.09.42 7.65 2.21.04 4.45-.02 6.66.34 1.56 1.94 2.9 4.04 4.5 5.97-11.64 13.33-23.64 26.33-35.91 39.08-2.26-1.68-4.36-3.58-6.81-4.97-2.73-.72-5.61-.39-8.4-.47-.11-2.57-.22-5.13-.33-7.68-2.56-.16-5.11-.31-7.65-.44-.12-2.55-.24-5.08-.35-7.6-2.56-.16-5.11-.29-7.65-.4-.1-2.5-.12-5-.57-7.45-2.43-.48-4.91-.43-7.36-.46.03-2.79-.26-5.56-.85-8.27-.38-8.84-.14-17.68-.2-26.52.13-16.65-.34-33.3-.12-49.95.14-6.48-.52-12.96.19-19.42z"/></g><path d="m494.64 374.41c1.9-2.1 3.6-4.37 5.18-6.71 2.39 3.34 1.19 7.52 1.26 11.3-.05 235.34.04 470.69-.05 706.03.38 3.16-2.54 4.92-4.5 6.84-.56-.42-1.13-.83-1.68-1.23.2-61.2-.25-122.43-.15-183.64.04-16.33-.35-32.67.3-48.99-.5-34.32-.22-68.66-.37-102.98-.77-3.61-2.07-7.13-1.89-10.88-1.18-.04-2.36-.07-3.53-.09-.12 2.55-.24 5.1-.36 7.66-1.86.19-3.71.39-5.56.6-.14 2.39-.3 4.78-.47 7.17-1.12.32-2.23.65-3.33.99-.76 1.13-1.5 2.28-2.24 3.44.02-1.46.03-2.92.01-4.36-1.75 2.59-.88 6.05-2.69 8.63-1.24-.85-2.48-1.69-3.71-2.53 1.64-5.73 3.44-11.42 4.76-17.23.85-4.13 1.98-8.19 3-12.28 2.32-10.48 4.34-21.03 5.95-31.64 4.31-25.93 5.93-52.24 6.24-78.49.81-8.81.12-17.67.6-26.49.51 2.45.96 4.93.84 7.45-.42 11.35.22 22.72-.42 34.07-.12 1.39.18 2.79.51 4.15 1.21-4.33 3.13-8.62 2.9-13.21-.14-5.45.3-10.95-.7-16.34-.45-2.32-.24-4.67.11-6.98.89-4.89-1.13-9.75-.21-14.64 1.07-5.33-.22-10.73.5-16.08.85-6.66-.96-13.26-.63-19.92.29-8.02-.4-16.02-.14-24.03.09-2.29.02-4.66-1.43-6.56.56-16.13.81-32.28.9-48.42 1.01-14.68.82-29.41 1.01-44.12.36-1.85-1.62-2.37-2.74-3.3.86-.98 2.54-1.49 2.77-2.9.55-10.56.47-21.13.51-31.7.3-4.25-2.26-7.85-3.07-11.88.99 1.36 1.98 2.72 2.99 4.08-.75-4.6-.52-9.27-.9-13.89.11-.23.32-.67.43-.9z" fill="#b8b9b8"/><path d="m483.35 410.01c.78-12.21 5.29-23.92 10.86-34.7.38 4.62.15 9.29.9 13.89-1.01-1.36-2-2.72-2.99-4.08.81 4.03 3.37 7.63 3.07 11.88-.04 10.57.04 21.14-.51 31.7-.23 1.41-1.91 1.92-2.77 2.9-6.28-5.2-9.19-13.57-8.56-21.59z" fill="#adadae"/><path d="m521.82 382.01c3.87 9.54 7.64 19.49 7.7 29.92.1 7.79-3.21 16.04-9.86 20.44.26-1.79.55-3.57.86-5.35-.84-1.9-2.33-3.79-1.79-5.97.1-1.75 2.18-2.08 3.3-2.99-1.19-1.93-3.15-3.64-3.12-6.06-.47-7.55 1.09-15.08.16-22.62.39.04 1.18.12 1.57.16-1-2.63-.47-5.27 1.18-7.53z" fill="#e6e6e7"/><path d="m437.78 464.27c.71-5.07.39-10.18.75-15.26.17 3.99.01 7.99.4 11.98 1.54 12-.31 24.16 1.48 36.15.39 9.62 1.07 19.25 1.19 28.88-.3 7.68 1.16 15.27 1.25 22.94 1.44 9.71-.11 19.56 1.45 29.25.37 8.59 1.68 17.13 1.3 25.75-.34 6.8 1.51 13.59.32 20.36-1.19-8.73-1.06-17.56-1.74-26.33-.82-9.79-1.06-19.61-1.71-29.4-.41-12.05-1.15-24.09-1.82-36.13-.04-1.32-.11-2.63-.19-3.94-.37-13.73-1.2-27.45-1.83-41.18 0-7.7-1.31-15.36-.85-23.07z" fill="#c6403a"/><g fill="#b5abac"><path d="m360.43 471.64c3.2 30.2 7.38 60.28 11.47 90.37 1.37 6.64 1.14 13.46 2.4 20.12 3.7 25.31 7.59 50.61 12.25 75.77 2.5 14.78 5.97 29.38 8.37 44.17-2.44.36-4.89.62-7.34.76-8.46-40.7-15.41-81.71-21.22-122.86-2.62-8.57-2.66-17.63-3.92-26.44-1.65-11.16-2.35-22.47-4.24-33.57-.38-7.94-2.4-15.72-2.63-23.68.21-2.06.49-4.11.77-6.15.79 1.23 1.58 2.48 2.38 3.73.43-.28 1.28-.83 1.71-1.1-.5-7.01-1.36-14.15 0-21.12z"/><path d="m649.78 497.07c.49-5.81 1.32-11.57 2.01-17.35.73 4.31.6 8.68.48 13.04.84.32 1.7.65 2.56.99.64-1.22 1.29-2.43 1.96-3.64.21 2.04.45 4.08.63 6.14-.07 1.92-.18 3.85-.42 5.77-3.32 23.93-5.88 47.96-8.84 71.93-2.14 7.05-2.56 14.43-3.77 21.67-2.53 17.35-5.53 34.64-8.29 51.95-1.96 7.92-3.02 16.02-4.65 24-1.17 6.93-3 13.74-3.85 20.73-1.15 3.66-1.93 7.42-2.58 11.2-2.32-.54-4.63-1.07-6.94-1.6.27-6.8 2.89-13.18 3.8-19.88 5.41-27.58 10.2-55.27 14.32-83.07 1.32-9.97 3.39-19.85 3.88-29.91 3.1-21.13 5.82-42.3 8.45-63.49.33-2.84.87-5.65 1.25-8.48z"/><path d="m299.68 607.62c.14-2.44.49-4.87 1.04-7.24 2.76 11.41 6.54 22.58 8.69 34.15 4.48 18.19 8.94 36.4 14.37 54.33 3.51 12.3 8.37 24.19 11.86 36.47-2.28.8-4.58 1.57-6.88 2.3-6.59-18.34-12.42-36.94-17.94-55.63-1.8-5.01-1.88-10.4-3.42-15.47-3.08-12.19-6.13-24.39-9.15-36.59-.61-2.97-1.59-5.83-2.61-8.68.03-.56.08-1.68.11-2.24 1.31-.46 2.62-.93 3.93-1.4z"/><path d="m712.25 600.47c.49 2.35.88 4.73 1.13 7.13 1.4.47 2.8.93 4.22 1.42.23 1.64-.24 3.23-1.25 4.54-2.63 10.64-5.32 21.27-7.97 31.9-1.71 7.23-3.92 14.34-4.89 21.72-3.78 14.09-8.43 27.93-13.15 41.74-2.38 6.19-3.53 12.9-6.92 18.67-2.06-.77-4.17-1.42-6.13-2.4.34-4.26 2.58-8.05 3.77-12.1 4.71-14.66 10.28-29.08 13.73-44.12 5.06-17.8 8.9-35.9 13.42-53.84 1.5-4.84 3.03-9.69 4.04-14.66z"/></g><path d="m438.63 487.34c.63 13.73 1.46 27.45 1.83 41.18-2.17-3.47-1.58-7.65-1.81-11.53-.3-9.86-1.58-19.84-.02-29.65z" fill="#cea09c"/><path d="m647.32 490.91c1.03 1.96 2 3.97 2.46 6.16-.38 2.83-.92 5.64-1.25 8.48-1.44-4.74-1.58-9.73-1.21-14.64z" fill="#d50513"/><path d="m519.83 528.18c.92-11.05.14-22.14.65-33.19 1.84 25.64.81 51.37 1.3 77.06.51 5.93-.34 11.91.42 17.83 1.78 16.97 1.42 34.03 1.4 51.07-.11 5.23.66 10.51-.33 15.71-1.05-8.85-.63-17.81-1.38-26.69-.33-25.99-.98-51.98-1.49-77.97.14-7.95-1.01-15.87-.57-23.82z" fill="#c7362e"/><path d="m492.74 527.44c1.45 1.9 1.52 4.27 1.43 6.56-.26 8.01.43 16.01.14 24.03-.33 6.66 1.48 13.26.63 19.92-.72 5.35.57 10.75-.5 16.08-.92 4.89 1.1 9.75.21 14.64-.35 2.31-.56 4.66-.11 6.98 1 5.39.56 10.89.7 16.34.23 4.59-1.69 8.88-2.9 13.21-.33-1.36-.63-2.76-.51-4.15.64-11.35 0-22.72.42-34.07.12-2.52-.33-5-.84-7.45.07-18.49 1.15-36.96 1.06-55.46.07-5.55.05-11.09.27-16.63z" fill="#b3aba8"/><path d="m440.65 532.46c.67 12.04 1.41 24.08 1.82 36.13-2.41-3.72-1.58-8.29-1.97-12.46-.19-7.88-1.01-15.84.15-23.67z" fill="#cda19f"/><path d="m490.44 553.04c.03-3.32-.5-6.86 1.06-9.93l.97.96c.09 18.5-.99 36.97-1.06 55.46-.48 8.82.21 17.68-.6 26.49-.31 26.25-1.93 52.56-6.24 78.49-1.68-7.63 1.75-14.97 1.82-22.55.05-3.82.6-7.6 1.22-11.36 1.46-9.45.21-19.04 1.28-28.51 1.82-29.63 1.49-59.36 1.55-89.05z" fill="#c73b35"/><path d="m794.54 582.8c2.53-9.41 4.29-19.02 7.01-28.37.55 5.08-1.48 9.91-2.31 14.85-2.64 9.87-4.86 19.83-7.34 29.74-.32 1.58-1.26 2.91-2.18 4.19 1.15-6.91 3.46-13.54 4.82-20.41z" fill="#cd857f"/><path d="m287.91 575.43c2.47 3.85 2.48 8.57 3.59 12.89 1.31 6.91 3.64 13.67 4.25 20.7-.03.56-.08 1.68-.11 2.24-3.24-11.77-5.7-23.79-7.73-35.83z" fill="#cf8785"/><path d="m567.4 602.04c-.22-8.05.91-16.05 1.15-24.09.09 4.76.02 9.53.59 14.27-1.42 28.87-3.52 57.69-5.6 86.52l-.66-.18c-.5-5.2.57-10.38.57-15.58.32-5.27-.58-10.66.98-15.8 1.55-5.96.79-12.15 1.02-18.23.2-9 2.23-17.88 1.95-26.91z" fill="#c73f38"/><path d="m720.17 594.38c1.36.08 1.23 3.1.01 3.4-.92-1.14-.92-2.28-.01-3.4z" fill="#d87f80"/><path d="m718.29 610.12c-1-2.98.47-6.29 1.91-8.92.29 3.12-.68 6.11-1.91 8.92z" fill="#c73b3c"/><path d="m631.45 671.57c1.63-7.98 2.69-16.08 4.65-24 .25 2.76.34 5.57-.39 8.28-2.03 9.12-2.99 18.43-5.21 27.51-.44 3.13-1.12 6.26-2.9 8.94.85-6.99 2.68-13.8 3.85-20.73z" fill="#c4362f"/><path d="m525.8 695.15c-1.88-6.34-1.69-13.03-1.22-19.55 1.56 9.34 2.11 18.81 3.75 28.14 1.43 10.91 3.73 21.68 5.91 32.47l-1.4-.25c-.35-2.1-.71-4.2-1.18-6.26-2.5-11.41-4.31-22.98-5.86-34.55z" fill="#ce8a85"/><g fill="#b6b6b6"><path d="m518.11 711.87c.5 2.48 2.12 4.41 4.1 5.91.64 2.43 1.46 4.89 3.53 6.5.59-.62 1.2-1.24 1.81-1.85 1.74 3.64 2.84 7.55 2.81 11.61.42-1.46.86-2.9 1.3-4.34.47 2.06.83 4.16 1.18 6.26.27 3.83 3.54 6.82 2.74 10.84.4.34 1.21 1.01 1.61 1.35 4.45 19.33 11.15 38.12 18.98 56.32-1.07.77-2.11 1.56-3.16 2.34-.31-5.73-1.77-11.75-6.63-15.33.41-.39 1.25-1.18 1.66-1.57-.49-1.07-.93-2.15-1.5-3.15-2.37-.3-5.1.46-6.95-1.49 1.12-.78 2.25-1.55 3.4-2.3-2.88-2.2-5.8-4.62-6.61-8.34-3.1-.82-5.6-2.78-7.41-5.38.72-.88 1.44-1.74 2.16-2.6-2.28-2.38-5.77-3.41-7.46-6.34-1.74-2.91-4.8-5.02-5.48-8.49.07-13.32-.34-26.64-.08-39.95z"/><path d="m321.82 1088.8c3.1-1.29 6.48-.22 9.44.94 9.05 3.26 18.91 2.13 28.07-.06 1.52.63 3.05 1.28 4.58 1.91-3.62.45-6.31 3.05-8.61 5.67-.5 7.91.07 15.87-.22 23.81.12 2.68-.9 6.49 2.51 7.47-1.93.89-3.73 2.02-5.39 3.35-9.21-7.07-17.55-15.24-25.35-23.83-3.27-3.56-6.81-7.27-7.98-12.1-.9-2.65.14-6.18 2.95-7.16z"/></g><path d="m746.54 738.59c.51-3.1 1.55-6.1 3.18-8.79.18 3.1-.56 6.88-3.18 8.79z" fill="#c1342b"/><path d="m489.21 744.06c1.17.02 2.35.05 3.53.09-.18 3.75 1.12 7.27 1.89 10.88.15 34.32-.13 68.66.37 102.98-.65 16.32-.26 32.66-.3 48.99-.1 61.21.35 122.44.15 183.64-20.87-16.8-39.59-36.05-57.81-55.65 1.81-2.35 4.18-1.22 6.43-.4.54-.82 1.07-1.64 1.57-2.47-1 .15-1.99.32-2.97.51-.17-3.54-.89-7.61 2.49-9.9.23-4.74 2.94-8.94 2.57-13.74.86-.53 1.73-1.05 2.61-1.55.17-2.21.35-4.41.58-6.6.91-.6 1.78-1.25 2.61-1.94.37-4.85-.14-9.73.26-14.58 1.57-.21 3.15-.42 4.73-.61.25-5.06-.15-10.13.27-15.17.66-.25 1.96-.75 2.61-1 .15-2.4.3-4.8.45-7.19 1.54-.23 3.09-.46 4.65-.66.2-5.01-.04-10.03.33-15.03.87-.57 1.74-1.12 2.62-1.67-.47-5.08 2.92-9.4 2.45-14.48.62-.26 1.86-.79 2.47-1.06.04-3.24-.01-6.74 2.97-8.75.83-4.69-.05-9.55.46-14.29 1.56-.25 3.13-.49 4.7-.72.33-4.56-.13-9.13.22-13.67.1-1.47 1.42-2.41 2.2-3.53 1.51.6 3.03 1.17 4.57 1.71.19-2.81.19-5.63.01-8.43-1.8.55-3.59 1.16-5.28 2.01 3.15-6.71 9.54-12.05 10.13-19.78 1-9.04-1.38-18-.75-27.05-.27-3.72.92-7.86-.99-11.25-1.6 1.66-.91 4.24-1.09 6.33.33 6.06-.66 12.07-1.47 18.05-.46-5.03-1.56-10-1.44-15.07.08-3.06.03-6.13-.4-9.16-1.2 5.23-.3 10.63-.78 15.94-2.55.12-5.1.24-7.65.37-.14 2.54-.28 5.09-.42 7.64-2.53.13-5.07.25-7.59.38-.11 2.54-.22 5.09-.32 7.64-2.57.11-5.15.23-7.71.37-.12 2.55-.22 5.1-.32 7.67-2.57.12-5.14.24-7.7.36-.33 5.2.04 10.41-.26 15.62-2.55.11-5.1.22-7.64.34-.14 2.52-.28 5.06-.42 7.61-2.54.11-5.08.24-7.61.37-.16 2.53-.31 5.06-.43 7.61-2.55.12-5.09.24-7.63.37-.12 2.52-.24 5.05-.36 7.59-2.54.14-5.06.29-7.59.46-.13 2.53-.26 5.06-.41 7.6-2.55.1-5.11.21-7.66.33-.35 5.22.05 10.46-.2 15.69-2.58.1-5.15.21-7.73.33-.12 2.54-.26 5.08-.39 7.63-2.53.12-5.06.25-7.59.39-.13 2.52-.26 5.04-.39 7.58-2.56.16-5.11.33-7.66.49-.12 2.52-.23 5.04-.33 7.57-2.52.14-5.04.29-7.56.43-.1 3.28-.4 6.62-1.78 9.65.49 1.09.98 2.18 1.49 3.29-.79.88-1.58 1.78-2.36 2.69-10.16-13.34-19.99-27.01-28.13-41.69 27.77-14.71 50.89-37.05 69.74-61.97 22.1-29.5 37.95-63.36 48.64-98.54 1.23.84 2.47 1.68 3.71 2.53 1.81-2.58.94-6.04 2.69-8.63.02 1.44.01 2.9-.01 4.36.74-1.16 1.48-2.31 2.24-3.44 1.1-.34 2.21-.67 3.33-.99.17-2.39.33-4.78.47-7.17 1.85-.21 3.7-.41 5.56-.6.12-2.56.24-5.11.36-7.66z" fill="#c5c5c5"/><g fill="#c1c1c1"><path d="m518.19 751.82c.68 3.47 3.74 5.58 5.48 8.49 1.69 2.93 5.18 3.96 7.46 6.34-.72.86-1.44 1.72-2.16 2.6 1.81 2.6 4.31 4.56 7.41 5.38.81 3.72 3.73 6.14 6.61 8.34-1.15.75-2.28 1.52-3.4 2.3 1.85 1.95 4.58 1.19 6.95 1.49.57 1 1.01 2.08 1.5 3.15-.41.39-1.25 1.18-1.66 1.57 4.86 3.58 6.32 9.6 6.63 15.33 1.05-.78 2.09-1.57 3.16-2.34 12.23 28.36 28.72 54.98 49.36 78 15.73 17.06 33.55 32.72 54.32 43.33-.16 2.09-1.52 3.76-2.5 5.54-5.28 8.94-11.23 17.45-17.26 25.89l-.2.01c-.64.05-1.92.13-2.56.17-.89 1.06-1.72 2.17-2.54 3.29-4.67-.2-9.02-2.88-11.03-7.13-1.25-4.91-5.33-9.35-10.46-10.13-.4-2.34.43-5.32-1.48-7.09-2.52-1.87-1.69-5.29-2.05-7.98-2.56-.45-5.39-.79-7.05-3.04-3.79-4.55-8.53-8.19-12.26-12.78-1.82-2.01-1.14-4.92-1.72-7.34-.79-.91-1.74-1.62-2.63-2.38-.26-2.04.45-4.44-.59-6.22-2.36-.89-5.17-1.09-6.78-3.29-2.93-3.44-6.25-6.48-9.54-9.55-1.83-1.56-1.93-4.11-2.89-6.14-1.2-1.45-2.85-2.48-3.91-4.02-.56-3.15-.39-6.37-.52-9.55-.68.01-2.04.03-2.72.03-.08 2.89-.18 5.82-1.08 8.6-1.54-2.88-.62-6.24-1.52-9.22-3.19-4.41-7.45-7.9-11.32-11.69-1.81-1.56-1.99-4.08-2.99-6.09-1.18-1.46-2.71-2.58-3.84-4.05-.62-3.01-.4-6.11-.53-9.15-2.35-.53-5.05-.7-6.67-2.73-3.71-4.08-7.62-7.96-11.75-11.61-.34 2.07-.73 4.14-1.08 6.23-.01-24.19-.44-48.38-.19-72.56z"/><path d="m391.82 1078.24c15.52-4.16 31.9-4.79 47.77-2.43-1.63 3.31-5.68 2.85-8.36 1.26.07.91.14 1.82.22 2.76-2.09.12-4.17.25-6.25.39-.15 2.47-.31 4.95-.45 7.44-1.52.22-3.03.46-4.54.71-.16 2.36-.32 4.72-.48 7.1-.63.24-1.9.73-2.53.98-.16 2.37-.31 4.77-.44 7.17-1.55.22-3.1.45-4.64.7-.43 8.89 0 17.8-.28 26.7-.25 2.12.52 4.1 1.6 5.9-7.51.12-15.07-.38-22.53.62 7.31 1.02 14.71-.01 22.03.79-4.61 3.79-11.34 3.66-16.33.69-.07.43-.21 1.3-.28 1.74-.69.24-1.37.49-2.05.77 1.76.55 3.52 1.15 5.28 1.75-11.43.37-23.28.24-34.12-3.89-4.78-1.79-9.12-4.52-13.24-7.5 1.66-1.33 3.46-2.46 5.39-3.35-3.41-.98-2.39-4.79-2.51-7.47.29-7.94-.28-15.9.22-23.81 2.3-2.62 4.99-5.22 8.61-5.67-1.53-.63-3.06-1.28-4.58-1.91 11.1-3.06 21.28-8.73 32.49-11.44z"/></g><g fill="#cbcbcb"><path d="m519.46 818.15c4.13 3.65 8.04 7.53 11.75 11.61 1.62 2.03 4.32 2.2 6.67 2.73.13 3.04-.09 6.14.53 9.15 1.13 1.47 2.66 2.59 3.84 4.05 1 2.01 1.18 4.53 2.99 6.09 3.87 3.79 8.13 7.28 11.32 11.69.9 2.98-.02 6.34 1.52 9.22.9-2.78 1-5.71 1.08-8.6.68 0 2.04-.02 2.72-.03.13 3.18-.04 6.4.52 9.55 1.06 1.54 2.71 2.57 3.91 4.02.96 2.03 1.06 4.58 2.89 6.14 3.29 3.07 6.61 6.11 9.54 9.55 1.61 2.2 4.42 2.4 6.78 3.29 1.04 1.78.33 4.18.59 6.22.89.76 1.84 1.47 2.63 2.38.58 2.42-.1 5.33 1.72 7.34 3.73 4.59 8.47 8.23 12.26 12.78 1.66 2.25 4.49 2.59 7.05 3.04.36 2.69-.47 6.11 2.05 7.98 1.91 1.77 1.08 4.75 1.48 7.09 5.13.78 9.21 5.22 10.46 10.13 2.01 4.25 6.36 6.93 11.03 7.13.82-1.12 1.65-2.23 2.54-3.29.64-.04 1.92-.12 2.56-.17-3.98 5.93-8.52 11.47-12.75 17.22-6.1-1.24-11.01-5.26-16.23-8.37-6.81-3.98-12.9-9.04-19.06-13.93-8.9-6.68-16.78-14.54-24.56-22.46-13.62-13.26-25.25-28.38-35.89-44.09-4.78-7.13-8.41-14.95-13.17-22.08.1-13.05-.32-26.11.15-39.15.35-2.09.74-4.16 1.08-6.23z"/><path d="m552.7 1086.56c1.2-.12 2.43-.2 3.65-.28.08.35.26 1.06.34 1.42.55.21 1.63.63 2.17.84.08 2.33.07 4.67-.04 7.02-1.23.27-2.46.56-3.69.86-.12 2.49-.13 4.99-.03 7.5 3.94.03 7.87.08 11.81.2.23 5.15.23 10.31-.12 15.47-1.23.24-2.46.5-3.68.77-.24 5.12.09 10.26-.21 15.39-4.17.07-8.47-.48-12.45 1.03-5.09.16-10.19.03-15.27-.09-.23-7.8-.53-15.68.06-23.43 4.35-2.59 1.91-8.04 4.01-11.9-.16-.52-.49-1.57-.65-2.09 4.78-4.14 9.55-8.3 14.1-12.71z"/></g><g fill="#cacaca"><path d="m486.83 839.79c.48-5.31-.42-10.71.78-15.94.43 3.03.48 6.1.4 9.16-.12 5.07.98 10.04 1.44 15.07.81-5.98 1.8-11.99 1.47-18.05.18-2.09-.51-4.67 1.09-6.33 1.91 3.39.72 7.53.99 11.25-.63 9.05 1.75 18.01.75 27.05-.59 7.73-6.98 13.07-10.13 19.78-4.65 8.08-10.36 15.48-16.04 22.85-5.53 7.67-12.17 14.45-18.63 21.33-3.34 4-7.05 7.67-10.79 11.3-15.77 14.57-32.75 28.02-51.65 38.3-1.98-2.56-3.97-5.11-5.9-7.7.78-.91 1.57-1.81 2.36-2.69-.51-1.11-1-2.2-1.49-3.29 1.38-3.03 1.68-6.37 1.78-9.65 2.52-.14 5.04-.29 7.56-.43.1-2.53.21-5.05.33-7.57 2.55-.16 5.1-.33 7.66-.49.13-2.54.26-5.06.39-7.58 2.53-.14 5.06-.27 7.59-.39.13-2.55.27-5.09.39-7.63 2.58-.12 5.15-.23 7.73-.33.25-5.23-.15-10.47.2-15.69 2.55-.12 5.11-.23 7.66-.33.15-2.54.28-5.07.41-7.6 2.53-.17 5.05-.32 7.59-.46.12-2.54.24-5.07.36-7.59 2.54-.13 5.08-.25 7.63-.37.12-2.55.27-5.08.43-7.61 2.53-.13 5.07-.26 7.61-.37.14-2.55.28-5.09.42-7.61 2.54-.12 5.09-.23 7.64-.34.3-5.21-.07-10.42.26-15.62 2.56-.12 5.13-.24 7.7-.36.1-2.57.2-5.12.32-7.67 2.56-.14 5.14-.26 7.71-.37.1-2.55.21-5.1.32-7.64 2.52-.13 5.06-.25 7.59-.38.14-2.55.28-5.1.42-7.64 2.55-.13 5.1-.25 7.65-.37z"/><path d="m439.59 1075.81c4.67 1.19 10.56.48 13.92 4.54 4.31 4.25 8.85 8.27 13.24 12.45l-.01.18c-.02 1.88-.25 3.92.7 5.66 1.09.87 2.32 1.57 3.45 2.42-.48 1.11-1.07 2.18-1.62 3.28-1.47-2.39-3.1-6.57-6.65-4.82 1.51 1.11 3.2 2.19 3.79 4.1-.87-.29-1.73-.57-2.59-.84-2.73 1.15-5.7 1.4-8.62 1.48-.34 10.51-.31 21.05-.11 31.57 2.69.08 5.39.26 8.06.71-12.38 1.16-24.87-.21-37.25.9 9.67 1.44 19.54-.24 29.26.93-3.48.49-6.99.93-10.19 2.47-4.67.6-9.43-.19-14.1.65 5.51 1.37 11.49-.82 16.72 1.76-10.85.58-21.73.07-32.6.24-5.14-.17-10.32.28-15.43-.21-1.76-.6-3.52-1.2-5.28-1.75.68-.28 1.36-.53 2.05-.77.07-.44.21-1.31.28-1.74 4.99 2.97 11.72 3.1 16.33-.69-7.32-.8-14.72.23-22.03-.79 7.46-1 15.02-.5 22.53-.62-1.08-1.8-1.85-3.78-1.6-5.9.28-8.9-.15-17.81.28-26.7 1.54-.25 3.09-.48 4.64-.7.13-2.4.28-4.8.44-7.17.63-.25 1.9-.74 2.53-.98.16-2.38.32-4.74.48-7.1 1.51-.25 3.02-.49 4.54-.71.14-2.49.3-4.97.45-7.44 2.08-.14 4.16-.27 6.25-.39-.08-.94-.15-1.85-.22-2.76 2.68 1.59 6.73 2.05 8.36-1.26z"/></g><path d="m518.23 863.53c4.76 7.13 8.39 14.95 13.17 22.08 10.64 15.71 22.27 30.83 35.89 44.09 7.78 7.92 15.66 15.78 24.56 22.46 6.16 4.89 12.25 9.95 19.06 13.93 5.22 3.11 10.13 7.13 16.23 8.37-10.58 13.51-21.48 26.77-32.76 39.7-1.6-1.93-2.94-4.03-4.5-5.97-2.21-.36-4.45-.3-6.66-.34-.14-2.56-.28-5.11-.42-7.65-2.56-.14-5.12-.28-7.68-.4-.16-5.2.03-10.41-.29-15.6-2.56-.14-5.12-.27-7.67-.39-.11-2.56-.2-5.1-.3-7.64-2.56-.11-5.12-.23-7.67-.36-.13-2.54-.26-5.09-.38-7.62-2.53-.15-5.05-.29-7.57-.43-.15-2.53-.3-5.05-.46-7.57-2.53-.14-5.06-.27-7.58-.39-.13-2.53-.25-5.06-.36-7.58-2.56-.17-5.11-.32-7.66-.45-.14-2.54-.27-5.08-.39-7.61-2.55-.11-5.09-.22-7.63-.32-.21-5.21-.06-10.43-.28-15.64-2.52-.16-5.04-.3-7.56-.44-.23-2.73-.58-5.44-.95-8.15-.25-18.69-.37-37.39-.14-56.08z" fill="#bfbfbf"/><path d="m483.62 881.78c1.69-.85 3.48-1.46 5.28-2.01.18 2.8.18 5.62-.01 8.43-1.54-.54-3.06-1.11-4.57-1.71-.78 1.12-2.1 2.06-2.2 3.53-.35 4.54.11 9.11-.22 13.67-1.57.23-3.14.47-4.7.72-.51 4.74.37 9.6-.46 14.29-2.98 2.01-2.93 5.51-2.97 8.75-.61.27-1.85.8-2.47 1.06.47 5.08-2.92 9.4-2.45 14.48-.88.55-1.75 1.1-2.62 1.67-.37 5-.13 10.02-.33 15.03-1.56.2-3.11.43-4.65.66-.15 2.39-.3 4.79-.45 7.19-.65.25-1.95.75-2.61 1-.42 5.04-.02 10.11-.27 15.17-1.58.19-3.16.4-4.73.61-.4 4.85.11 9.73-.26 14.58-.83.69-1.7 1.34-2.61 1.94-.23 2.19-.41 4.39-.58 6.6-.88.5-1.75 1.02-2.61 1.55.37 4.8-2.34 9-2.57 13.74-3.38 2.29-2.66 6.36-2.49 9.9.98-.19 1.97-.36 2.97-.51-.5.83-1.03 1.65-1.57 2.47-2.25-.82-4.62-1.95-6.43.4-6.61-7.06-12.93-14.4-19.37-21.62.61-1.01 2.12-1.71 1.8-3.08-.25-3.28-.55-6.56-.29-9.83 1.23-.28 2.48-.55 3.72-.8.3-5.06.08-10.13.3-15.18 1.2-.31 2.42-.61 3.63-.9.16-2.4.31-4.79.45-7.18 1.2-.27 2.4-.54 3.61-.79.23-5.05.12-10.1.35-15.15 1.21-.29 2.42-.57 3.63-.83.45-4.56.08-9.13.31-13.68.03-1.28 1.48-1.81 2.22-2.68-.19-.26-.56-.78-.75-1.04 1.07-1.52 3.06-3.04 1.51-4.97 3.74-3.63 7.45-7.3 10.79-11.3 6.46-6.88 13.1-13.66 18.63-21.33 5.68-7.37 11.39-14.77 16.04-22.85z" fill="#bbb"/><path d="m386.51 975.56c18.9-10.28 35.88-23.73 51.65-38.3 1.55 1.93-.44 3.45-1.51 4.97.19.26.56.78.75 1.04-.74.87-2.19 1.4-2.22 2.68-.23 4.55.14 9.12-.31 13.68-1.21.26-2.42.54-3.63.83-.23 5.05-.12 10.1-.35 15.15-1.21.25-2.41.52-3.61.79-.14 2.39-.29 4.78-.45 7.18-1.21.29-2.43.59-3.63.9-.22 5.05 0 10.12-.3 15.18-1.24.25-2.49.52-3.72.8-.26 3.27.04 6.55.29 9.83.32 1.37-1.19 2.07-1.8 3.08-10.64-12.39-21.17-24.88-31.16-37.81z" fill="#b0b0b0"/><path d="m518.5 1015.5c.59 2.71.88 5.48.85 8.27 2.45.03 4.93-.02 7.36.46.45 2.45.47 4.95.57 7.45 2.54.11 5.09.24 7.65.4.11 2.52.23 5.05.35 7.6 2.54.13 5.09.28 7.65.44.11 2.55.22 5.11.33 7.68 2.79.08 5.67-.25 8.4.47 2.45 1.39 4.55 3.29 6.81 4.97-12.64 12.59-25.38 25.16-39.33 36.32-1.51-4.39-.92-9.05-.93-13.58.03-9.67-.04-19.34.01-29.01.24-10.49-.54-21.01.28-31.47z" fill="#cecece"/><path d="m577.02 1075.21c17.51-1.93 35.45-.28 52.13 5.51.25.65.73 1.96.97 2.62-1.72.42-3.44.86-5.16 1.29 4.3-.02 9.3.62 11.88 4.51.69 7.48-.21 15.02.37 22.53 1.55.21 3.1.44 4.66.68.44 6.53.02 13.08.11 19.62-.07 1.62.6 3.14 1.22 4.62-1.34.94-2.67 1.91-3.98 2.89.52.47 1.57 1.4 2.09 1.87-16.34 3.35-33.16 1.83-49.73 2.1-1.64-3.31-5.45-3.98-8.54-5.23 4.06-.09 8.18.1 12.18-.83-3.07-.42-6.16-.63-9.24-.79 1.64-.3 3.27-.61 4.93-.88.35-7.8.24-15.61.02-23.4-1.26-.28-2.51-.54-3.75-.78-.43-7.76.22-15.52-.26-23.26-1.21-.25-2.42-.48-3.61-.7-.16-2.42-.33-4.82-.5-7.21-1.26-.31-2.51-.58-3.75-.86 1.29-.38 2.59-.72 3.9-1.05-2.05-.34-4.52-.32-5.45-2.57z" fill="#bebebe"/><path d="m562.05 1077.98c4.91-1.33 9.97-2.07 15.02-2.68l.44.59c.93 2.25 3.4 2.23 5.45 2.57-1.31.33-2.61.67-3.9 1.05 1.24.28 2.49.55 3.75.86.17 2.39.34 4.79.5 7.21 1.19.22 2.4.45 3.61.7.48 7.74-.17 15.5.26 23.26 1.24.24 2.49.5 3.75.78.22 7.79.33 15.6-.02 23.4-1.66.27-3.29.58-4.93.88 3.08.16 6.17.37 9.24.79-4 .93-8.12.74-12.18.83 3.09 1.25 6.9 1.92 8.54 5.23-16.37-.08-32.77.36-49.13-.19 5.22-2.58 11.2-.21 16.67-1.8-3.52-.22-6.99-.75-10.21-2.2-4.61-.73-9.33.07-13.95-.66 13.38-.86 26.83-.11 40.19-1.15-8.21-1.01-16.5.53-24.7-.67 3.98-1.51 8.28-.96 12.45-1.03.3-5.13-.03-10.27.21-15.39 1.22-.27 2.45-.53 3.68-.77.35-5.16.35-10.32.12-15.47-3.94-.12-7.87-.17-11.81-.2-.1-2.51-.09-5.01.03-7.5 1.23-.3 2.46-.59 3.69-.86.11-2.35.12-4.69.04-7.02-.54-.21-1.62-.63-2.17-.84-.08-.36-.26-1.07-.34-1.42-1.22.08-2.45.16-3.65.28 3.15-2.82 5.93-6.09 9.35-8.58z" fill="#c6c6c6"/><path d="m629.15 1080.72c14.67 5.59 29.8 13.07 45.98 10.62 5.07-.37 9.59-3.92 14.78-2.93 2.96.57 4.81 3.72 4.2 6.62-.88 4.71-4.02 8.57-7.18 12-7.75 8.16-15.58 16.32-24.43 23.32-6.24 5.02-13.36 9.1-21.19 11-.52-.47-1.57-1.4-2.09-1.87 1.31-.98 2.64-1.95 3.98-2.89-.62-1.48-1.29-3-1.22-4.62-.09-6.54.33-13.09-.11-19.62-1.56-.24-3.11-.47-4.66-.68-.58-7.51.32-15.05-.37-22.53-2.58-3.89-7.58-4.53-11.88-4.51 1.72-.43 3.44-.87 5.16-1.29-.24-.66-.72-1.97-.97-2.62z" fill="#b1b1b1"/><path d="m467.44 1098.64c-.95-1.74-.72-3.78-.7-5.66 8.04 6.7 15.82 13.76 24.42 19.77 3.99 2.74 7.91 6.11 12.89 6.79 4.34.8 8.78-.73 12.33-3.19 7.82-5.14 15.13-11 22.22-17.08.16.52.49 1.57.65 2.09-2.1 3.86.34 9.31-4.01 11.9-.59 7.75-.29 15.63-.06 23.43 5.08.12 10.18.25 15.27.09 8.2 1.2 16.49-.34 24.7.67-13.36 1.04-26.81.29-40.19 1.15 4.62.73 9.34-.07 13.95.66 3.22 1.45 6.69 1.98 10.21 2.2-5.47 1.59-11.45-.78-16.67 1.8-23.07.55-46.27.08-69.38.23-8.49-.19-17.05.36-25.48-.24-5.23-2.58-11.21-.39-16.72-1.76 4.67-.84 9.43-.05 14.1-.65 3.2-1.54 6.71-1.98 10.19-2.47-9.72-1.17-19.59.51-29.26-.93 12.38-1.11 24.87.26 37.25-.9-2.67-.45-5.37-.63-8.06-.71-.2-10.52-.23-21.06.11-31.57 2.92-.08 5.89-.33 8.62-1.48.86.27 1.72.55 2.59.84-.59-1.91-2.28-2.99-3.79-4.1 3.55-1.75 5.18 2.43 6.65 4.82.55-1.1 1.14-2.17 1.62-3.28-1.13-.85-2.36-1.55-3.45-2.42z" fill="#cfcfcf"/></g><path d="m400.84887 1203.9714c-29.8494-.4067-91.54898-2.3681-106.03232-3.3704-16.48371-1.1403-29.57056-3.7551-42.01814-8.3953-7.98856-2.9778-19.15758-8.44-21.98929-10.7537-.55657-.4554-4.14626-3.1858-7.97669-6.0689-11.19762-8.4281-20.5029-18.6669-30.03216-33.0447-1.38365-2.0876-2.51547-3.9766-2.51547-4.1976 0-.2219-1.52961-3.0148-3.40114-6.2075-4.65808-7.9509-17.57194-38.2255-32.77124-76.8271-2.81614-7.1522-5.73251-14.4226-6.48075-16.1561-.74729-1.7339-1.3603-3.6529-1.3603-4.2649 0-.613-.44566-1.8936-.9886-2.8499-1.08201-1.9012-8.50037-21.3467-10.58499-27.7446-.7181-2.2007-2.4861-7.15218-3.93124-11.00338-2.56316-6.8307-9.49716-27.0138-9.96616-29.009-.13624-.5508-.52154-1.6756-.86989-2.5006-.94967-2.2435-9.93989-29.8785-13.99196-43.0131-11.45216-37.1224-22.18759-77.0599-31.19064-116.0354-8.46848-36.6612-9.29886-40.4138-12.94927-58.5181-3.88803-19.2827-3.58854-17.7878-6.91397-34.5103-7.54506-37.9426-19.33466-111.6461-24.61237-153.8648-1.07813-8.6278-2.63944-21.0886-3.46848-27.6906-15.84597-126.1735-26.63937961-278.6772-26.79682961-378.6157-.0584-31.1707.22965-39.1175 1.64832001-47.0142 2.59293-14.433601 8.6735896-30.955201 13.3456696-36.261001.84848-.9633 1.24354-1.7515.87963-1.7515-1.10926 0 5.08369-8.0825 12.26522-16.0049 15.28941-16.8666 40.30618-30.4189 63.67367-34.4938 8.32174-1.4518 56.08619-4.9544995 81.46045-5.9747995 7.42733-.2997 16.65516-.7784 20.50622-1.0645 9.38836-.6986 78.06125-3.162 130.53984-4.6808 55.81338-1.61530003 222.55068-1.62110003 278.08498-.02 103.3457 2.9983 163.3518 5.8531 205.0623 9.7568995 45.3263 4.2421 64.5431 10.1315 82.0493 25.1455 5.6961 4.8853 11.9796 12.376 11.9796 14.2812 0 .5741.3853 1.0431.8583 1.0431.4709 0 2.6866 3.9924 4.9219 8.8719 7.2862 15.9056 11.2282 40.562001 11.2156 70.152201-.02 23.597-4.1801 90.3252-9.0634 145.0442-3.2562 36.4828-8.2909 83.9122-9.6627 91.0278-.3717 1.9266-.6014 3.7888-.51 4.1403.2161.833-5.4104 44.5782-7.315 56.8783-.8097 5.2266-2.1343 14.2294-2.9443 20.0061-.8097 5.7768-1.9228 13.2041-2.474 16.5051-.5507 3.301-2.1572 13.4289-3.5702 22.5066-2.9541 18.9774-5.2158 33.4873-8.9652 57.5178-3.7653 24.1305-12.1321 74.799-14.5192 87.9256-10.7763 59.2599-21.6868 110.9421-29.4796 139.6438-.8213 3.0259-3.0445 11.3535-4.9395 18.5057-6.9293 26.1503-16.3728 58.2673-20.5801 69.9909-1.8019 5.0205-13.0998 40.0924-19.022 59.0482-1.7185 5.5017-3.7693 11.4217-4.5566 13.1552-.788 1.734-1.4322 3.6365-1.4322 4.2287 0 2.3796-21.3311 64.69298-22.3795 65.37618-.6207.4047-.8348.7414-.4749.7492.3581.02.058 1.9286-.646 4.2665-2.5118 8.2207-20.1041 54.0101-22.5669 58.7375-.4379.8427-1.968 4.603-3.3982 8.3576-6.9175 18.1595-27.0877 59.8662-34.4321 71.1973-5.7054 8.8025-19.5376 22.6281-28.7986 28.7846-24.5055 16.2911-52.2059 24.1311-94.3658 26.7075-37.3503 2.2825-106.6703 3.2302-171.5525 2.3453zm154.5472-8.6628c3.026-.2959 10.9034-.8134 17.5054-1.1461 42.5774-2.1581 75.1414-12.5925 97.6204-31.2804 13.7738-11.4505 20.9092-21.6182 33.4488-47.6633 24.3801-50.6385 39.4917-90.4356 70.495-185.65008 7.2552-22.2818 17.0067-52.2159 21.6704-66.5205 26.4706-81.1929 44.9099-161.1729 63.7662-276.5843 27.2529-166.8027 37.2596-243.8941 45.5751-351.107 10.0395-129.4431 6.6362-165.463601-17.9595-190.086801-15.0996-15.1162-33.2049-21.3355-74.0431-25.4339-88.2772-8.8599-287.3538-13.8321995-449.6372-11.2309995-28.0584.4495-51.91576.9907-53.01606 1.2007-1.09951.2102995-13.02905.6461995-26.50804.9672995-78.35415 1.8642-181.13621 7.6434-195.62267 10.999-33.43426 7.7447-61.42616 30.2874-73.4384 59.1418-6.8450696 16.4428-7.2953896 20.383801-7.5905996 66.416501-.23353 36.3683.76092 73.5736 3.0337096 113.5344 12.98448 228.2949 39.00018 415.5236 80.13051 576.676 21.94765 85.9936 51.87472 173.77618 89.65919 262.99118 8.92696 21.0776 13.11002 29.3451 20.63251 40.779 16.9564 25.7723 40.19079 41.9182 70.1918 48.7771 12.46508 2.8497 29.45436 4.0442 79.52415 5.5905 26.1924.8097 195.6555.504 204.5624-.3697zm-236.31548-80.7144c-17.89772-1.6423-27.01188-6.5556-45.8437-24.7116-13.32291-12.8449-17.93234-18.994-17.93234-23.9215 0-4.9353 3.74577-7.1385 9.35218-5.501 2.28349.6674 6.87133 1.7241 10.19501 2.3479 8.22677 1.5452 19.49153-.5856 34.87316-6.6006 26.36717-10.3098 46.16387-12.5565 70.57477-8.0095 6.7326 1.2532 7.9217 1.8448 12.2088 6.0675 2.6122 2.5732 4.5112 5.0639 4.22 5.5351-.2919.4709.039.7336.7493.5817.7045-.156 1.2999.3581 1.3252 1.1308.02.7726.8563 1.5236 1.8468 1.6697 2.5788.3795 4.7908 2.4593 4.0301 3.7909-.3561.6246-.2802.8037.1751.395 1.1209-1.0137 3.6389 1.2125 2.8377 2.5099-.3619.5838-.1556.7453.4496.3659.6013-.3717 1.5568.1161 2.1249 1.0956.5682.9749 1.045 1.444 1.0625 1.0451.016-.3989 4.2905 2.6042 9.4974 6.674 5.2067 4.0703 10.8335 8.2077 12.5038 9.1944 1.6697.9867 3.0368 2.0483 3.0368 2.359 0 1.2123 10.8059.156 13.6948-1.337 1.6814-.8699 3.3389-1.298 3.6837-.9535.3445.3443.6266.156.6266-.403 0-.5663 3.2636-3.4462 7.2522-6.3999 8.1832-6.0597 21.2979-17.3481 30.2931-26.0744 5.7141-5.5433 6.4602-5.9402 14.0043-7.4532 17.5242-3.5147 41.82-1.7828 58.4829 4.1674 29.893 10.6755 30.2311 10.7695 39.013 10.8603 5.7855.058 10.5364-.5331 14.8666-1.8545 5.7149-1.7458 6.6333-1.7924 9.0028-.4692 3.3231 1.8566 3.8476 5.6171 1.479 10.6083-2.252 4.7454-22.5783 25.2483-31.8505 32.127-6.9508 5.1563-13.8237 8.3417-22.4932 10.4252-5.4302 1.3037-241.7154 1.9866-255.3351.7374zm116.52898-3.7034c-2.3382-.21-6.1643-.21-8.5025 0-2.3384.2103-.4262.3836 4.2512.3836 4.6765 0 6.5895-.1761 4.2513-.3836zm-8.2524-23.056c0-.194-.5002-.02-1.1132.3503-.6111.3775-1.4556.1361-1.876-.5469-.4768-.7725-.7628-.3015-.7628 1.2551 0 2.3397.1168 2.3934 1.876.8855 1.0314-.8835 1.876-1.7571 1.876-1.942zm7.0021 2.8413c0-.5178-.3756-1.1736-.8329-1.4557-.4593-.2843-.833.1361-.833.9419 0 .8017.3756 1.4557.833 1.4557.4592 0 .8329-.4244.8329-.9419zm-3.001-2.6304c0-.2743-.9011-.02-2.0006.5702-1.0995.5897-2.0005 1.2961-2.0005 1.5704 0 .2745.901.02 2.0005-.5701 1.0995-.5896 2.0006-1.296 2.0006-1.5705zm-4.871-3.3939c-1.984-1.6969-4.0064-2.639-4.9156-2.2901-.9224.3542-1.2863.1761-.9049-.4437.3522-.5702-.362-1.8838-1.586-2.9209l-2.2271-1.8838 2.0006 2.3558c1.0995 1.296 1.8935 2.6458 1.7611 3.0009-.1362.3541.543.6654 1.5005.6926.9574.02 1.6327.5722 1.5004 1.2144-.1363.7046.4184.9166 1.4147.5333 1.0567-.4049 1.409-.2395.977.4612-.5624.9088.6889 1.6891 3.3491 2.0896.2744.04-1.0158-1.2222-2.8704-2.8075zm37.5219-3.2658c.3854-.6245-.9516.1161-2.9706 1.666-2.0198 1.5412-3.6724 3.0031-3.6724 3.2505 0 .6947 5.8516-3.6357 6.643-4.9165zm3.0353-.4299c-.362-.3621-.097-1.376.5838-2.2507 1.0976-1.407 1.0392-1.4342-.4982-.2296-1.5646 1.2259-1.586 3.1377-.039 3.1377.3347 0 .3114-.2959-.058-.6578zm17.7609-17.2498c-.2627-.2629-1.2552.3327-2.2053 1.3232-1.6502 1.7223-1.6288 1.7437.4788.4787 1.2123-.7278 1.9898-1.5393 1.7261-1.8019zm-45.1521 4.9949c-1.2143-1.0139-1.8896-2.1963-1.5004-2.6278.3892-.432.1985-.4944-.4242-.1361-1.2708.7259-9.0112-5.0559-8.6218-6.4389.1362-.4884-.2919-.7765-.9555-.6382-.6636.136-1.2261-.2745-1.2494-.9167-.02-.6422-.4554-1.5413-.9555-2.0008-.5294-.4846-.6091-.3093-.1947.4165.395.687.3133 1.2514-.1947 1.2514-1.2338 0-4.3486-3.5343-3.693-4.1899.29-.2901-.2724-1.1539-1.2474-1.9188-1.6503-1.2942-1.6697-1.2514-.2919.6072 1.4654 1.9758 1.4556 1.9774-.7259.116-1.2163-1.0371-1.9881-2.243-1.7164-2.6816.2705-.4379-.039-1.1229-.6772-1.5218-.7318-.4514-.903-.2899-.4574.4321.3931.6344.3348 1.1539-.1362 1.1539-1.5763 0-12.3386-11.6127-11.5582-12.4704.4281-.4709.2529-.5545-.3892-.194-1.3662.7822-7.4058-4.9067-7.067-6.6568.1363-.6558-.3016-1.0898-.9535-.9651-3.7668.7258-74.95558-79.88998-74.10282-83.91518.13624-.687-.19466-1.2748-.73561-1.3098-1.9805-.1161-3.62706-1.7592-3.11293-3.1004.28803-.751.02-1.6755-.58576-2.0538-.73756-.4574-.82707-.2161-.26466.7182.72004 1.1968.59549 1.2006-.84653.038-1.89158-1.5355-2.34072-3.6471-.53711-2.5328.72198.4458.88351.2745.43201-.4573-.39894-.6442-1.09367-.9439-1.54517-.6636-.45148.2783-3.49394-3.202-6.7608-7.736-10.37112-14.3941-12.41683-17.723-11.67926-19.0052.3931-.683.32694-.8892-.13624-.4593-.76092.6928-7.46372-8.632-7.46372-10.3854 0-.3815 3.4885-2.8472 7.7523-5.4804 10.58773-6.538 20.08587-13.7604 30.66172-23.3153 4.89768-4.4248 9.35608-7.7662 9.90758-7.4255.5935.3677.6869.116.2296-.6306-.9321-1.5083 8.3007-11.2824 9.7893-10.3626.5741.3541.6675.098.2218-.6266-.4573-.7414.2316-2.3059 1.7223-3.9058 1.3681-1.4672 4.9652-5.911 7.994-9.8728 3.0289-3.9616 5.7849-7.0001 6.1249-6.7518.3405.2471.4086.176.1556-.1761-.831-1.1305 1.5335-4.4457 2.6704-3.7429.6558.4047.8232.2257.4086-.4438-.9165-1.4848 2.304-6.3545 3.652-5.5214.5936.3659.7493.176.36-.4632-.8796-1.4244 4.7233-10.4994 5.8503-9.4747.467.4242.5663.2763.2218-.3269-.6752-1.1851 5.9392-14.4062 7.2075-14.4062.4222 0 .7745-.5623.7842-1.2511.01-.6871 2.2849-6.2019 5.0555-12.254 9.3847-20.4984 22.6916-59.4281 20.9195-61.1999-.7628-.7628-11.4979 1.3953-30.6611 6.1649-52.12089 12.971-101.74693 34.6012-141.8157 61.8123-7.30198 4.9589-13.48247 8.8101-13.73449 8.5582-.93606-.9361-12.94247-28.9726-20.53812-47.9572-48.39829-120.9663-82.68959-262.0784-102.91846-423.5172-4.76453-38.0244-11.08164-99.7789-11.08164-108.3313v-3.8426l23.75709-1.7223c13.06662-.9477 26.00809-1.9344 28.75885-2.1911 14.62676-1.368 87.86941-5.1337 136.5417-7.0209 76.87457-2.9803 250.22517-2.9803 327.09977 0 48.6722 1.8876 121.9148 5.6531 136.5416 7.0209 2.7509.2569 15.6922 1.2436 28.7588 2.1911l23.7575 1.7223v3.8426c0 8.5524-6.3174 70.3069-11.082 108.3313-19.7947 157.9746-52.5649 294.3748-99.6142 414.6265-8.975 22.9385-23.6114 57.0173-24.4885 57.0173-.4009 0-4.4708-2.687-9.0452-5.9712-27.5431-19.775-69.3688-40.4531-108.0016-53.3947-23.0092-7.7077-63.6653-18.1743-67.8485-17.4671-1.7048.2879-1.588 1.152 1.6502 12.3134 12.8146 44.1668 36.5493 89.1826 61.8713 117.3468 2.5612 2.8486 4.7581 5.8696 4.8818 6.7128.1169.8427.5099 1.409.8563 1.2554 1.0412-.4573 7.7113 6.4704 7.1317 7.4081-.2938.4767-.078.7432.4671.5915.5507-.156 3.7351 2.1141 7.0747 5.034 8.8857 7.7691 21.8926 17.4031 29.9942 22.2159 3.9001 2.3172 7.091 4.367 7.091 4.555 0 .8953-6.9478 11.9881-13.4322 21.4452-16.5301 24.1075-59.7946 76.8598-62.5281 76.2398-.6675-.156-.9438.1561-.6149.6908.7589 1.226-5.2156 8.10888-6.7801 7.81038-.6441-.116-1.0528.3541-.9088 1.0606.3678 1.8099-17.7712 20.326-19.1445 19.5423-.6169-.3523-.7765-.2589-.3523.2063 1.0042 1.1053-6.2906 8.5826-7.5898 7.78-.5449-.3367-.7006-.1361-.3425.4379 1.119 1.8117-26.8521 27.3187-29.0992 26.5353-.9984-.3483-1.2085-64.63568-1.0392-317.69888.1168-174.4951.3172-312.5372.4476-306.7604.1362 5.7769.7239 34.8106 1.3175 64.5197 2.3891 119.3956 3.3622 141.3753 7.6044 171.7916 1.7436 12.5 5.9625 34.6427 6.7511 35.4312.2977.2977 5.7044 1.5881 12.0159 2.8707 46.771 9.498 94.831 26.1819 131.7018 45.7201 11.4827 6.0849 32.3805 18.5209 36.8961 21.9565 1.3117.9983 2.9479 1.8158 3.6351 1.8158 2.5824 0 22.7866-50.5339 39.1944-98.03 9.6212-27.8509 10.6709-31.1659 20.2716-64.0195 23.6042-80.7746 44.2723-182.1738 56.4783-277.0845.8834-6.8771 2.0504-15.8799 2.5909-20.0061 1.4947-11.4099 4.7337-40.1137 5.9817-53.0162.613-6.3269 1.516-15.3297 2.0068-20.0061.4923-4.6764 1.1637-11.7114 1.4946-15.6332l.5994-7.1303-6.3005-.6132c-3.4653-.3365-13.0526-1.084-21.3051-1.6599-8.2525-.576-20.2588-1.4809-26.6803-2.0101-6.4216-.5293-15.3117-.9632-19.7561-.9632-7.0245 0-8.0814.2294-8.0904 1.7493-.1361 22.2728-3.9066 69.9927-9.3983 118.7862-1.9816 17.6056-4.0628 36.9615-4.6252 43.0133-4.0108 43.161-20.9744 145.5829-31.3958 189.5577-12.1459 51.2532-19.9656 80.2421-28.4662 105.5322-6.7212 19.9959-6.7261 20.0059-9.5878 19.796-1.5743-.116-3.204-.5664-3.6206-1.0003-.4165-.4339 2.5906-10.6931 6.6822-22.7967 7.5205-22.2464 22.5849-79.3743 30.3343-115.0351 7.443-34.2513 18.8406-100.4965 24.6228-143.1131.8913-6.5638 2.2319-16.4356 2.9807-21.9373 1.8196-13.3721 10.984-103.2689 12.3894-121.5371.613-7.9774 1.405-23.3535 1.7591-34.169l.6442-19.6646-5.407-.5566c-4.9235-.5059-44.9125-2.2979-64.4251-2.8864l-8.0024-.2413-.6558 7.0019c-.36 3.8514-1.1599 15.1046-1.7748 25.0076-1.6113 25.928-3.0144 44.6331-4.1665 55.5172-2.5558 24.1457-7.6745 82.5936-7.2882 83.2186.362.5858-.9905 15.5151-3.1526 34.8174-.2783 2.4757-1.6328 15.0796-3.0123 28.0083-3.5827 33.5813-11.3745 98.2574-12.0514 100.0306-.3152.8252-1.8721 10.2781-3.4587 21.0064-5.3758 36.3328-14.0753 85.0395-17.6593 98.8705-1.623 6.2645-1.6814 6.3352-4.6486 5.7414-1.6522-.3309-3.1837-.7805-3.4019-.9983-.2179-.2181 1.407-9.3289 3.6133-20.2458 10.2039-50.5108 22.092-131.6434 30.6107-208.9069 4.4884-40.7115 13.9155-147.9634 16.5734-188.5576.5936-9.0777 1.4304-21.4563 1.8565-27.5082.4262-6.0518.5956-11.5251.3717-12.1625-.5098-1.4654-11.9559-2.1194-50.8664-2.9067l-30.1003-.6091-.7142 24.8441c-.8095 28.1544-2.0807 65.1567-3.4992 101.8679-.5313 13.7542-1.2299 34.6856-1.553 46.514-.323 11.8286-.8134 25.3329-1.0936 30.0094-.2783 4.6762-.9478 20.2059-1.4849 34.5103-.5371 14.3046-1.2027 30.2844-1.477 35.5108-.2744 5.2266-.9633 19.1811-1.5296 31.0095-1.7028 35.5718-4.0401 75.0605-6.5168 110.1304-.7998 11.3316-1.4557 21.3471-1.4557 22.2568 0 1.2182-.9068 1.6541-3.4419 1.6541-1.8936 0-3.6427-.3367-3.8881-.7492-.2452-.4126.1363-8.1775.8524-17.2551.7142-9.0778 1.804-24.8328 2.4211-35.0109.6169-10.1781 1.5471-25.4828 2.0636-34.0102.5176-8.5276 1.4187-25.633 2.0054-38.0118.5858-12.3787 1.4848-30.8344 1.9998-41.0125.5137-10.1779 1.4206-32.0097 2.0167-48.5148.5955-16.5048 1.9441-52.2909 2.9957-79.5242 1.0529-27.2331 2.3793-64.8198 2.9485-83.5255.5702-18.7057 1.2182-39.9132 1.444-47.128l.4087-13.1178-6.6628-.6286c-8.6807-.8192-130.6827-.8192-139.3634 0l-6.6626.6286.4087 13.1178c.2238 7.2148.8738 28.4223 1.444 47.128s1.8954 56.2924 2.9485 83.5255c1.0528 27.2333 2.4004 63.0194 2.9957 79.5242.5955 16.5051 1.5024 38.3369 2.0169 48.5148.5138 10.1781 1.4128 28.6338 1.9998 41.0125.5857 12.3788 1.4887 29.4842 2.0052 38.0118.5176 8.5274 1.4459 23.8321 2.0636 34.0102.6169 10.1781 1.7067 25.9331 2.4211 35.0109.7142 9.0776 1.0976 16.8425.8524 17.2551-.2452.4125-1.9949.7492-3.8881.7492-2.5345 0-3.442-.4359-3.442-1.6541 0-.9089-.6538-10.9252-1.4556-22.2568-2.4768-35.0699-4.8134-74.5586-6.5166-110.1304-.5663-11.8284-1.2552-25.7829-1.5296-31.0095-.2744-5.2264-.9399-21.2062-1.4771-35.5108-.5371-14.3044-1.2065-29.8341-1.4848-34.5103-.2783-4.6765-.7706-18.1808-1.0937-30.0094-.323-11.8284-1.0216-32.7598-1.5529-46.514-1.4187-36.7112-2.6895-73.7135-3.499-101.8679l-.7142-24.8441-30.10032.6091c-38.91047.7863-50.356 1.4421-50.86646 2.9067-.22185.6382-.0584 6.1107.3717 12.1625.42619 6.0519 1.26298 18.4305 1.85654 27.5082 1.64246 25.0851 7.43453 93.9691 12.57446 149.5457 7.33001 79.2569 22.27729 186.4158 34.58553 247.9478 2.18675 10.9327 3.76325 20.0905 3.50335 20.3508-.2608.2607-1.93831.543-3.72888.6286-3.74306.1761-3.01212 2.3087-8.0133-23.3519-4.22781-21.6922-10.41938-57.9589-13.83296-81.0247-1.58799-10.7283-3.14426-20.181-3.45932-21.0064-.67723-1.7728-8.46866-66.4493-12.05136-100.0306-1.37976-12.9287-2.73479-25.5326-3.01212-28.0083-2.16245-19.3023-3.51437-34.2323-3.1528-34.8174.38726-.6246-4.73242-59.0729-7.28818-83.2186-1.15207-10.8841-2.55576-29.5892-4.16651-55.5172-.61495-9.903-1.41283-21.1562-1.7748-25.0076l-.65582-7.0019-8.00238.2413c-19.51256.5875-59.50154 2.3801-64.42506 2.8864l-5.40713.5566.64416 19.6646c.35419 10.8157 1.14623 26.1916 1.75923 34.169 1.40505 18.2682 10.56943 108.1652 12.38958 121.5371.74923 5.5017 2.09006 15.3735 2.98059 21.9373 6.90189 50.8685 19.79492 123.6379 28.10342 158.6178 11.8077 49.7126 19.97123 79.7941 28.52766 105.1237 2.71183 8.028 4.93072 15.2936 4.93072 16.1465 0 1.5471-4.37241 3.2746-5.90026 2.3303-1.46926-.9087-12.32107-33.6579-17.42189-52.5786-2.91831-10.8245-14.5429-57.2735-18.27504-73.0225-10.42134-43.9748-27.38493-146.3967-31.39575-189.5577-.56242-6.0518-2.64373-25.4077-4.62522-43.0131-5.49177-48.7937-9.26732-96.5136-9.39808-118.7862-.01-1.5219-1.06645-1.7495-8.09075-1.7495-4.44422 0-13.33439.4339-19.75599.9632-6.42162.5294-18.42782 1.4343-26.68028 2.0101-8.25246.5759-17.8397 1.3234-21.30506 1.6599l-6.30054.6132.59938 7.1303c.32888 3.9218 1.00221 10.9568 1.49458 15.6332.49235 4.6764 1.3953 13.6792 2.00677 20.0061 1.24742 12.9025 4.48663 41.6063 5.98159 53.0162.541 4.1262 1.7067 13.129 2.59119 20.0061 10.70234 83.2196 27.45129 169.0932 48.77504 250.0763 2.20079 8.3579 11.60822 41.1745 12.61727 44.0134.48845 1.3758 2.32281 7.2272 4.07542 13.004 5.88702 19.4031 14.50827 44.4437 26.51875 77.0235 1.82152 4.9393 17.84224 44.5408 20.33552 50.2653 1.13845 2.6132 2.56045 4.7515 3.16021 4.7515.5994 0 3.67144-1.7516 6.82542-3.8942 10.00915-6.7973 32.16932-19.1967 47.17187-26.3943 36.14279-17.3405 70.29361-28.7342 116.01891-38.7076 7.9686-1.7377 14.5745-3.2464 14.6799-3.3516.4671-.4672 4.3421-21.1849 5.8331-31.1841 4.5484-30.4993 5.7763-53.1871 7.5529-139.5424.5936-28.8838 1.4965-70.033 2.0031-91.4427l.9224-38.9263-4.4255-4.7312c-11.2292-12.0049-9.5244-27.9784 6.4786-60.7043 3.8351-7.8428 7.452-14.2596 8.0378-14.2596s.8057-.4183.4885-.9301c-.3172-.5119-.1363-1.2007.3911-1.5296 1.2669-.7843 3.365 3.1699 2.4591 4.6354-.4048.656-.2569.8602.3483.4847.578-.3563 1.3603.1361 1.7398 1.0956.3795.9594.6305 18.3267.5585 38.5935-.097 29.9218.1168 36.711 1.1657 36.1144 1.0411-.5895 1.0509-.4689.039.613-1.4868 1.6017-1.6853 4.3346-.2491 3.4479.5507-.3405 1.0003-.1361 1.0003.4417 0 .582-.4398 1.0587-.977 1.0587-.6324 0-.9769 115.4339-.9749 328.1642l.0009 328.16368 4.2259-3.2956c2.3242-1.8118 3.6835-2.6076 3.0207-1.767-1.5627 1.9832-10.8773 8.6811-9.9214 7.1344.4787-.7764.2004-.9751-.8193-.5838-.8504.3269-1.298.9963-.9925 1.4887.9341 1.512-.9438.9303-3.2733-1.0139zm21.019-14.4106c-.3775-.6092 0-.7805.938-.4224.866.3328 2.2506-.156 3.0886-1.0801 1.3584-1.506 1.3545-1.8934-.039-3.6835-1.1501-1.4771-1.409-1.5609-.9828-.3231.7434 2.1655-1.5179 4.0332-3.9304 3.247-1.3934-.4536-1.5277-.3619-.5196.3581 1.7125 1.222-.039 2.471-2.2672 1.6171-.8757-.3367-1.5899-.116-1.5899.4963 0 .609.3367 1.0548.7512.9885 2.9944-.4729 3.4782.2161 1.6619 2.3692-1.7515 2.0756-1.6872 2.0644.8154-.1361 1.4926-1.3174 2.4277-2.857 2.0794-3.4208zm-30.3143-.078c0-.2161-.6986-.6616-1.553-.9887-.8893-.3426-1.2922-.1761-.9419.3931.5877.9497 2.4937 1.405 2.4937.5956zm38.5047-5.5974c.3503-.5663-.058-.7356-.9419-.3931-1.7339.6656-2.05 1.3818-.6111 1.3818.5177 0 1.2163-.4457 1.553-.9887zm3.7582-2.9288c.4126-.038.7493-.508.7493-1.0258 0-1.0897-3.9394-.5195-5.2137.7551-.4788.4787.1556.7474 1.4264.6072 1.2572-.1361 2.6239-.2899 3.0365-.3347zm-61.6974-4.0705c0-1.1753-.3678-1.6191-.8991-1.0879-.4943.4943-.5955 1.3876-.2257 1.9864.9399 1.5219 1.1248 1.3738 1.1248-.8991zm66.4489-1.0139c0-.5508-.1984-1.0003-.4417-1.0003s-.7201.4495-1.0587 1.0003c-.3405.5508-.1362 1.0003.4418 1.0003.5818 0 1.0586-.4495 1.0586-1.0003zm4.0768-3.7209c1.3331-1.4965 1.7087-2.1755.8329-1.5081-.8757.6654-1.9608.8777-2.4109.469-.4496-.4088-.4943-.1761-.097.5079.3951.6868.2433 1.2512-.3405 1.2512-.5819 0-1.0587.4495-1.0587 1.0003 0 1.4946.4203 1.2612 3.0765-1.7203zm7.9269-7.7826c1.2922-1.3758 2.1241-2.501 1.8488-2.501-.2744 0-1.5569 1.125-2.8496 2.501-1.2922 1.3758-2.1242 2.5006-1.8488 2.5006.2744 0 1.5568-1.1248 2.8496-2.5006zm7.5022-7.5023c.9964-1.1015 1.5861-2.0008 1.3097-2.0008-.2743 0-1.3155.9011-2.3105 2.0008-.9964 1.0995-1.586 2.0006-1.3097 2.0006.2744 0 1.3155-.9011 2.3107-2.0006zm-48.1199 40.528c.1168-.8017.5993-1.8078 1.0703-2.2375.4709-.4301.4865-.1361.039.6422-.615 1.0585-.4009 1.2572.8407.7822 2.2747-.8736 2.1047-.02-.2452 1.2514-1.4887.7978-1.8624.7006-1.697-.4359zm-.3153-418.22658c.039-1.1658.2841-1.4031.6033-.6032.2899.7218.253 1.5841-.078 1.9168-.3327.3327-.5682-.2589-.5254-1.3136zm.1947-53.4329c0-2.4758.1946-3.4885.4339-2.2509.2394 1.2378.2394 3.2636 0 4.5016-.2393 1.2375-.4339.2256-.4339-2.2507zm.039-68.5209c.01-3.3012.1946-4.5308.4145-2.7329.2219 1.7982.218 4.4986-.01 6.0017-.2277 1.5022-.4106.038-.4048-3.2688zm-.1557-96.5297c0-1.3758.2277-1.9382.5041-1.2494.2783.687.2783 1.8138 0 2.501-.2783.687-.5041.116-.5041-1.2514zm4.3602-19.9789c-.3951-.6384-.4476-1.4304-.1169-1.7613.3309-.3307.5994.02.5994.7746 0 .7571 2.0257-.613 4.5015-3.0425 2.4755-2.4297 4.5012-4.1927 4.5012-3.9176 0 .2745-1.9729 2.4365-4.3845 4.8031-2.8969 2.8432-4.6277 3.9094-5.1016 3.1427zm12.7393-22.5339c.012-2.2008.216-2.9833.4553-1.7397.2394 1.2436.2297 3.0449-.02 4.0012-.251.9555-.4456-.058-.4339-2.2623zm-1.1735-8.0858c.039-1.1658.2861-1.403.6052-.6032.288.7218.253 1.5841-.078 1.9168-.3328.3327-.5682-.2589-.5254-1.3136zm-4.4567-14.96c-.9652-2.5153-.6811-3.1643.4982-1.1365.5838 1.0043.8504 2.0364.5936 2.2939-.2569.2568-.7493-.2627-1.0918-1.158zm-6.6039-15.4195c-1.2747-2.7222-2.7969-4.8589-3.3823-4.7486-.5857.116-1.1014-1.0374-1.1481-2.5502-.039-1.5121.039-2.7507.1984-2.7507.5683 0 7.4283 14.2206 7.0449 14.6041-.2179.2179-1.4381-1.8334-2.713-4.5546zm-4.0229.02c0-.5177.4456-1.2164.9886-1.5529.5663-.3503.7356.058.3931.9419-.6656 1.732-1.3817 2.0501-1.3817.611zm-175.50627-175.2238c-15.34079-2.2353-26.55903-9.2849-32.39175-20.3546-2.33507-4.4314-2.65657-6.1923-2.65657-14.5447 0-8.3433.32304-10.1157 2.64625-14.5242 9.13539-17.3353 32.81367-25.906301 58.16691-21.055401 14.1788 2.712801 25.44588 10.272901 30.42433 20.414401 2.3677 4.8235 2.7712 6.8619 2.7229 13.7614-.078 10.3527-3.1203 17.0858-10.99136 24.2794-11.65143 10.6486-28.44299 14.8619-47.92071 12.0237zm24.7307-6.5432c15.70587-5.0098 24.2405-22.6956 19.27124-39.9346-4.14725-14.3874-20.78798-22.6841-39.10099-19.495-15.18955 2.645-23.81819 10.8507-26.46483 25.1679-3.17617 17.1823 7.89048 32.8942 25.22091 35.8083 6.47572 1.088 14.70463.4846 21.07367-1.547zm-209.88493-29.0227.0584-35.176901 20.50639.198c19.15487.1761 20.81913.3503 25.25383 2.504401 8.06348 3.918 11.21026 10.3414 8.87868 18.1237-2.09589 6.9956-13.02185 14.0177-21.81025 14.0177-1.27661 0-2.31931.3775-2.31931.8369 0 .4611 7.50847 8.2255 16.68549 17.2552 9.17704 9.0298 16.4917 16.5829 16.25486 16.785-.23743.2024-3.72261.3853-7.7463.4067l-7.31601.04-16.02423-16.6617c-12.23565-12.7221-16.60825-16.6615-18.49398-16.6615h-2.46954l.53905 16.4202.53906 16.4202-6.28986.3347-6.28986.3347.0584-35.1771zm31.01298-6.3865c9.7081-2.8369 13.91879-12.9418 7.60636-18.253-3.19836-2.6912-12.07841-4.703-20.75939-4.703h-5.03368l-.63635 4.6408c-.35029 2.5528-.63636 8.2437-.63636 12.6468v8.0059l7.75251-.5918c4.26362-.3249 9.53161-1.1111 11.70651-1.7475zm337.14972 41.1943-4.0011-.3775-12.5038-25.0356c-6.8772-13.7696-14.8671-29.336-17.7554-34.592-2.8884-5.256-5.2517-9.639501-5.2517-9.740701 0-.098 3.2636-.1761 7.2522-.1761l7.2522.02 12.8109 26.128801c7.0459 14.3708 13.5833 27.1531 14.5277 28.4048 1.7009 2.2551 1.7982 2.1161 10.4515-15.0045 4.8039-9.5043 10.9069-22.2322 13.5625-28.2841l4.8282-11.003301 5.1697-.1761c2.8434-.098 5.1699.04 5.1699.2959 0 .2627-1.9848 3.943601-4.4108 8.181701-2.4259 4.2383-10.4079 19.739-17.7377 34.4461s-13.7851 26.8626-14.345 27.0123c-.5604.156-2.8185.098-5.0193-.098zm131.04-34.6413v-35.010701l22.757-.058 22.7571-.058v3.279001 3.2794l-16.346-.6207-16.3457-.6208-.6325 8.2013c-.3483 4.5107-.3522 10.2487-.01 12.7511l.6228 4.5499 14.8542-.3621 14.8541-.3619.001 3.5079.0009 3.5079-14.8852-.2997-14.8854-.2997-.6694 2.668c-.7453 2.9655-.6383 18.4182.1556 22.6493l.508 2.7126 16.3875-.5313 16.3876-.5314.0002 3.3212v3.3212h-22.7563-22.757v-35.0108zm144.5486 34.5101c-.4477-.2743-.7454-16.0709-.6598-35.1013l.1561-34.601201 19.5061.1561c22.0524.176 26.4065.9983 31.3874 5.978801 10.1965 10.1965 1.3856 25.8523-15.8796 28.2188-2.4776.3387-4.5046.9323-4.5046 1.3176s7.6523 8.2357 17.0054 17.4467c9.3526 9.211 17.0052 16.8272 17.0052 16.9248 0 .098-3.6972.098-8.2157-.02l-8.2159-.1941-15.8763-16.5656c-12.4682-13.0096-16.4284-16.5657-18.4484-16.5657h-2.5722l.6014 16.7551.6032 16.7551h-5.5383c-3.0462 0-5.9048-.2256-6.353-.5001zm30.4579-41.0631c9.7172-2.8397 13.6632-12.2434 7.5383-17.9649-3.414-3.1892-13.0812-5.341-21.5758-4.8029l-4.9213.3115-.3193 12.4014-.3191 12.4014 7.8212-.5954c4.3015-.3269 9.6004-1.1151 11.7752-1.7515z" fill="#afafae" stroke-width="1.00031"/></svg>