<svg id="Laag_1" data-name="Laag 1" xmlns="http://www.w3.org/2000/svg" viewBox="0 0 496.06 305.75"><defs><style>.cls-1{fill:#fab900;}.cls-2{fill:#fff;}</style></defs><ellipse class="cls-1" cx="248.03" cy="152.88" rx="242.63" ry="147.48"/><path class="cls-1" d="M248,5.4c134,0,242.63,66,242.63,147.48S382,300.35,248,300.35,5.4,234.33,5.4,152.88,114,5.4,248,5.4M248,0C182.25,0,120.32,15.62,73.66,44,26.16,72.85,0,111.53,0,152.88s26.16,80,73.66,108.89c46.66,28.37,108.59,44,174.37,44s127.71-15.61,174.37-44c47.5-28.87,73.66-67.54,73.66-108.89S469.9,72.85,422.4,44C375.74,15.62,313.82,0,248,0Z"/><path class="cls-2" d="M248,5.4C114,5.4,5.4,71.43,5.4,152.88S114,300.35,248,300.35s242.63-66,242.63-147.47S382,5.4,248,5.4ZM415.3,250.08c-44.55,27.08-104,42-167.27,42s-122.71-14.91-167.26-42c-43.26-26.29-67.09-60.81-67.09-97.2S37.51,82,80.77,55.67c44.55-27.07,104-42,167.26-42s122.72,14.92,167.27,42a199.61,199.61,0,0,1,22.93,16.2c-2.65,1.51-5.43,3-8.5,4.45A324.38,324.38,0,0,1,378.18,95q-29.19,8.16-61.46,14.66t-59.1,10.94q2.55-6.51,4.43-11c1.23-3,2.28-5.61,3.14-7.79s1.56-4.16,2.11-6,1.14-3.84,1.77-6.12q4.06-10.06-2.32-11.89a23.7,23.7,0,0,0-17.56,1q-3.74,1.74-4.9,4.27c.08.29-.44,3.47-1.53,9.51s-3.39,16.5-6.9,31.32l-.45.56c-5.35.85-10.38,1.71-15.12,2.58a121.55,121.55,0,0,0-12.64,3c-2.62.57-3.66,2-3.09,4.34l.53,2.18c.14.58,1.23,1,3.25,1.13.38-.08,1.64-.19,3.77-.35s4.57-.38,7.27-.66l7.83-.77c2.51-.24,4.55-.37,6.13-.41q-2.13,8.26-4.87,18.95L223,175.84q-2.73,10.69-4.32,20t-2,14.89q-.68,9.33,2.61,15.5t7.21,7.62c2.31,1.34,5.61,1.46,9.89.39a16,16,0,0,0,9.88-7q4.81-7,9.24-21.73c.79-2.62,1.63-5.26,2.51-7.9,0,.2,0,.41,0,.61q.5,10.95,4.42,18.61a32.54,32.54,0,0,0,13,13.46q8.69,5,20.14-.21,4.69-2.13,10.1-9.76a158.24,158.24,0,0,0,10.62-17.49c.46-.86.9-1.74,1.34-2.62a44.62,44.62,0,0,0,2.73,10.3q2.48,6.3,6.13,9.32a21.3,21.3,0,0,0,7.82,4.19,18.33,18.33,0,0,0,7.67.67,33.55,33.55,0,0,0,6.22-1.45,22.45,22.45,0,0,0,10.92-8.33,80.4,80.4,0,0,0,8.17-14.52c1-2.29,2-4.7,3-7.19,1.58,8.85,5.86,19.88,16.64,23.38,17.13,5.56,30.1-7.26,33.46-11.36,3-3.71,11.41-16.25,15.18-32.65s2.66-30.41-2.85-38.39a17.67,17.67,0,0,0-9.31-6.48,26.59,26.59,0,0,0-12.59-.49,40.59,40.59,0,0,0-13.81,5.5,47.43,47.43,0,0,0-12.81,12,80.16,80.16,0,0,0-10.93,19.52c-1,1.91-2.05,3.9-3.05,6.09q-4.14,9.08-8.37,17.93c-2.82,5.92-5.47,11.2-8,15.88s-4.63,7.33-6.43,8q-7.61,2.64-11.24-6.58t0-22.88a86.72,86.72,0,0,1,10-24q4.15-6.69,6.59-9.92a25.05,25.05,0,0,1,4.81-5q4.94-3.13,5.85-.84a21.11,21.11,0,0,1,.93,7.07c-.18,1.66.81,2.34,3,2.07s3.75-1.7,4.79-4.29q3.33-8.79.89-13.43a9.32,9.32,0,0,0-7.88-5.12q-5.44-.49-12.71,3a46.1,46.1,0,0,0-13.76,10.51,94.54,94.54,0,0,0-7.49,10,85.16,85.16,0,0,0-8.6,16.59v0c-.27.6-.53,1.14-.81,1.77q-4.5,10-9.9,20.14t-10.58,18.21q-5.18,8.07-8.83,9.72c-3.12,1.42-5.74,1.55-7.83.38a13,13,0,0,1-5.19-5.72A33.53,33.53,0,0,1,276,201.88q-.68-6.3-.85-9.17a16.78,16.78,0,0,0,9.42,1.44,32.81,32.81,0,0,0,9.84-2.73,27.68,27.68,0,0,0,11.7-9.78,43.55,43.55,0,0,0,6.24-13.51,42.19,42.19,0,0,0,1.39-13.55,27.24,27.24,0,0,0-2.51-10.53q-6-11.69-21.64-4.58A45.6,45.6,0,0,0,271,154.61a72.27,72.27,0,0,0-4.4,7.09h-.09c-1.16,1.78-6.48,12.79-8.18,16.37s-3.42,7.47-5.16,11.67-3.59,8.43-5.52,12.67A106.55,106.55,0,0,1,242.19,213a15.15,15.15,0,0,1-2.46,3.29c-1.11,1.15-2.11,1.53-3,1.1q-.55.12-1.68-.78c-.74-.6-.81-3-.24-7.06a290.22,290.22,0,0,1,7.75-36.33q5.63-20.72,11.73-39.48,21.41-2.33,47.28-5.85t52-8.49q26.1-5,49.25-11.1t39-14.39a71.85,71.85,0,0,0,11.82-7.6c18.76,20.26,28.8,43,28.8,66.57C482.38,189.27,458.56,223.79,415.3,250.08Zm-8-86.51a27.3,27.3,0,0,0,4.82,10A23.06,23.06,0,0,0,422.24,181c.44.21.26,1.48-.56,3.79a43.07,43.07,0,0,1-3.76,7.7,55.9,55.9,0,0,1-6,8.18,14,14,0,0,1-7.43,4.82c-5.57,1.51-10.75-.76-14.13-5.29-3.61-4.82-5-11.88-3.95-20.67,1.5-11.64,5-18.25,8.73-23.19s7.8-8.18,12.17-9.74a45.78,45.78,0,0,0-.94,7.09A31.81,31.81,0,0,0,407.29,163.57ZM417,151.14a11.66,11.66,0,0,1,3.25-7.36q1.91.53,3.1,4.15a33.87,33.87,0,0,1,1.46,8.41c.18,3.17.26,6.36.26,9.58a31.66,31.66,0,0,1-1,8.24q-2.11-1.38-4-5.34a34.16,34.16,0,0,1-2.7-8.6A33.61,33.61,0,0,1,417,151.14Zm-141.58,36a76.46,76.46,0,0,1,1.18-7.73,27.76,27.76,0,0,1,2.31-6.77,55.33,55.33,0,0,1,5.23-9.82,16.33,16.33,0,0,1,6.58-6q5.11-1.32,7.18,2.7a14.69,14.69,0,0,1,.87,4.82,25.37,25.37,0,0,1-.81,7.82,31.65,31.65,0,0,1-3.46,8.28,14.47,14.47,0,0,1-6.58,6,16.21,16.21,0,0,1-4.48,1.29A29.94,29.94,0,0,1,275.44,187.1Z"/><path class="cls-2" d="M196.72,158.5a85.41,85.41,0,0,0-14.6-12c-5.53-3.61-11.29-7.07-17.12-10.29s-11.65-6.39-17.26-9.44a120.73,120.73,0,0,1-15.24-9.73A48.16,48.16,0,0,1,121.64,106a22.1,22.1,0,0,1-3.88-13.71,19.33,19.33,0,0,1,2.91-9.08,25.44,25.44,0,0,1,7.94-7.94,41.94,41.94,0,0,1,12.63-5.34A59.81,59.81,0,0,1,158.6,68.4a89.07,89.07,0,0,1,16.24,2.09,46.06,46.06,0,0,1,12.8,4.82c3.25,1.89,13.43,9,8.25,20.9A44.91,44.91,0,0,1,191,105a40.11,40.11,0,0,0-4.62,8.08A18.83,18.83,0,0,0,185,119a5.46,5.46,0,0,0,1.27,4.32,5.75,5.75,0,0,0,4,1.56c2.46.1,5.47-.78,8.79-2.62a31.23,31.23,0,0,0,9.66-9,53.34,53.34,0,0,0,7-12.54,32.64,32.64,0,0,0-.49-24.18c-2.59-6.11-7.92-10.83-12.27-14.26a63.08,63.08,0,0,0-18.08-9.83,72.28,72.28,0,0,0-21.12-4.08c-11.42-.48-21.6.51-30.19,2.91A68.73,68.73,0,0,0,111.9,61.2,44.68,44.68,0,0,0,98.7,75.57a37.42,37.42,0,0,0-4.86,16.6A33,33,0,0,0,97,108.46a49.08,49.08,0,0,0,10,13.45,91.38,91.38,0,0,0,14.66,11.47c5.51,3.53,11.27,7,17.12,10.25s11.62,6.53,17.27,9.73a113.43,113.43,0,0,1,15.28,10.26,49.32,49.32,0,0,1,10.81,11.82,24.78,24.78,0,0,1,3.81,14.62,25.7,25.7,0,0,1-5.61,15.26,41.08,41.08,0,0,1-13,10.59,63,63,0,0,1-17.46,6,82.46,82.46,0,0,1-19.12,1.48A70.36,70.36,0,0,1,115.17,221a44.6,44.6,0,0,1-13.31-6,29.77,29.77,0,0,1-9.22-9.85,25.18,25.18,0,0,1-3.08-13.89,46.4,46.4,0,0,1,.71-6.47q.54-2.9,1.11-5.29t1.08-4.38a17.62,17.62,0,0,0,.52-3.44c.09-2.07-.39-3.53-1.46-4.47A7.05,7.05,0,0,0,87,165.63h-.45A16.39,16.39,0,0,0,80.44,167a21.19,21.19,0,0,0-6.77,4.52,27,27,0,0,0-5.47,7.85,28.64,28.64,0,0,0-2.54,11.14c-.36,8.39,1.23,15.87,4.72,22.24A49.56,49.56,0,0,0,85,229.09a71.71,71.71,0,0,0,21.52,10.4,103,103,0,0,0,25.42,4.23,108.57,108.57,0,0,0,18.71-.84,100.31,100.31,0,0,0,17.87-4,77.37,77.37,0,0,0,15.93-7.21,59.17,59.17,0,0,0,12.89-10.38,48.65,48.65,0,0,0,8.81-13.5A46.43,46.43,0,0,0,209.81,191a39.21,39.21,0,0,0-3.15-18A51.41,51.41,0,0,0,196.72,158.5Z"/></svg>